<svg width="24" height="24" viewBox="0 0 24 24" fill="none" xmlns="http://www.w3.org/2000/svg">
<path d="M20.9101 16.31L20.1401 10.12L20.0801 9.88C19.5701 7.84 18.2901 7 17.0801 7H16.9201C16.9501 6.93 16.9701 6.85 16.9601 6.77H16.9901C16.8801 4.1 14.6701 2 11.9901 2C9.31008 2 7.11009 4.11 6.99009 6.77C6.98008 6.84 6.98008 6.92 6.99009 7H6.77009C5.53009 7.06 4.24009 7.93 3.86009 10.12L3.08009 16.31L3.05009 16.58C2.54009 20.9 4.85009 22 7.85009 22H16.3401C19.2901 21.93 21.4501 20.27 20.9001 16.31H20.9101ZM8.48008 6.77C8.48008 4.85 10.0401 3.3 11.9601 3.3C13.8801 3.3 15.4401 4.85 15.4401 6.77C15.4401 6.85 15.4601 6.92 15.4801 7H8.47009C8.48009 6.93 8.48009 6.85 8.47009 6.77H8.48008ZM9.10009 12.14C8.61009 12.14 8.22009 11.73 8.22009 11.23C8.22009 10.73 8.62009 10.32 9.10009 10.32C9.55009 10.32 9.92008 10.67 9.98008 11.12V11.23C9.98008 11.73 9.59009 12.14 9.10009 12.14ZM14.8901 12.14C14.4001 12.14 14.0101 11.73 14.0101 11.23C14.0101 10.73 14.4101 10.32 14.8901 10.32C15.3701 10.32 15.7701 10.73 15.7701 11.23C15.7701 11.73 15.3701 12.14 14.8901 12.14Z" fill="black"/>
</svg>
