<svg width="24" height="24" viewBox="0 0 24 24" fill="none" xmlns="http://www.w3.org/2000/svg">
<path fill-rule="evenodd" clip-rule="evenodd" d="M21.59 6.61C21.19 6.14 20.79 5.93 20.18 5.93H6.68001C6.36001 5.93 6.10001 5.69 6.07001 5.36L5.88001 3.07C5.85001 2.72 5.60001 2.44 5.26001 2.38L2.88001 2.01C2.47001 1.95 2.08001 2.22 2.01001 2.64C1.94001 3.05 2.22001 3.45 2.62001 3.52L4.13001 3.79L5.05001 14.91C5.16001 16.26 6.26001 17.3 7.59001 17.3H18.49C19.76 17.3 20.84 16.35 21.02 15.07L21.97 8.38C22.06 7.77 21.99 7.1 21.59 6.63V6.61ZM16.89 11.23H14.12C13.7 11.23 13.37 10.88 13.37 10.46C13.37 10.04 13.7 9.69 14.12 9.69H16.89C17.31 9.69 17.64 10.03 17.64 10.46C17.64 10.89 17.31 11.23 16.89 11.23ZM7.42991 18.91C6.58991 18.91 5.90991 19.6 5.90991 20.46C5.90991 21.32 6.58991 22 7.42991 22C8.26991 22 8.93991 21.31 8.93991 20.46C8.93991 19.61 8.25991 18.91 7.42991 18.91ZM17.1499 20.46C17.1499 19.6 17.8299 18.91 18.6699 18.91C19.4999 18.91 20.1799 19.61 20.1799 20.46C20.1799 21.31 19.5099 22 18.6699 22C17.8299 22 17.1499 21.32 17.1499 20.46Z" fill="black"/>
</svg>
