<svg width="24" height="24" viewBox="0 0 24 24" fill="none" xmlns="http://www.w3.org/2000/svg">
<path fill-rule="evenodd" clip-rule="evenodd" d="M17.7201 6.58C17.3701 6.57 17.0501 6.42 16.8101 6.18C16.7701 6.13 16.6001 5.92 16.2001 5.17C15.7401 4.31 14.8601 3.78 13.8901 3.78H10.1301C9.18012 3.78 8.30012 4.3 7.83012 5.13C7.41012 5.89 7.24012 6.11 7.19012 6.16C6.95012 6.41 6.62012 6.56 6.29012 6.57C4.41012 6.57 2.87012 8.1 2.87012 9.99V15.41C2.87012 17.85 4.85012 19.83 7.29012 19.83H16.6901C19.1301 19.83 21.1101 17.85 21.1101 15.41V9.99C21.1101 8.1 19.5801 6.57 17.7101 6.57L17.7201 6.58ZM14.4201 13.51H12.7201V15.21C12.7201 15.61 12.4001 15.93 12.0001 15.93C11.6001 15.93 11.2801 15.61 11.2801 15.21V13.51H9.58012C9.18012 13.51 8.86012 13.19 8.86012 12.79C8.86012 12.39 9.18012 12.07 9.58012 12.07H11.2801V10.37C11.2801 9.97 11.6001 9.65 12.0001 9.65C12.4001 9.65 12.7201 9.97 12.7201 10.37V12.07H14.4201C14.8201 12.07 15.1401 12.39 15.1401 12.79C15.1401 13.19 14.8201 13.51 14.4201 13.51Z" fill="black"/>
</svg>
