<svg width="24" height="24" viewBox="0 0 24 24" fill="none" xmlns="http://www.w3.org/2000/svg">
<path fill-rule="evenodd" clip-rule="evenodd" d="M12 2.5C6.76 2.5 2.5 6.76 2.5 12C2.5 17.24 6.76 21.5 12 21.5C17.24 21.5 21.5 17.24 21.5 12C21.5 6.76 17.24 2.5 12 2.5ZM15.99 10.22L11.37 14.84C11.22 14.99 11.03 15.06 10.84 15.06C10.65 15.06 10.46 14.99 10.31 14.84L8 12.53C7.71 12.24 7.71 11.76 8 11.47C8.29 11.18 8.77 11.18 9.06 11.47L10.84 13.25L14.93 9.16C15.22 8.87 15.7 8.87 15.99 9.16C16.28 9.45 16.28 9.93 15.99 10.22Z" fill="black"/>
</svg>
