<svg width="24" height="24" viewBox="0 0 24 24" fill="none" xmlns="http://www.w3.org/2000/svg">
<path fill-rule="evenodd" clip-rule="evenodd" d="M21.72 5.44001C21.68 5.06001 21.36 4.77001 20.98 4.77001H18.52C18.55 4.21001 18.56 3.84001 18.56 3.76001C18.56 3.48001 18.34 3.26001 18.06 3.26001H5.95002C5.82002 3.26001 5.69002 3.31001 5.60002 3.41001C5.51002 3.50001 5.45002 3.63001 5.45002 3.76001C5.45002 3.84001 5.45002 4.21001 5.49002 4.77001H3.03002C2.65002 4.77001 2.33002 5.06001 2.29002 5.44001C2.27002 5.61001 1.85002 9.72001 5.00002 11.8C5.13002 11.88 5.27002 11.92 5.41002 11.92C5.65002 11.92 5.89002 11.8 6.04002 11.58C6.27002 11.23 6.17002 10.77 5.83002 10.54C4.10002 9.40001 3.80002 7.33001 3.77002 6.27001H5.64002C6.03002 9.40001 7.28002 14.39 11.26 14.95V16.7H8.92002C8.70002 16.7 8.51002 16.84 8.44002 17.05L7.74002 19.23H6.41002C6.00002 19.23 5.66002 19.57 5.66002 19.98C5.66002 20.39 6.00002 20.73 6.41002 20.73H17.75C18.16 20.73 18.5 20.39 18.5 19.98C18.5 19.57 18.16 19.23 17.75 19.23H16.42L15.72 17.05C15.65 16.84 15.46 16.7 15.24 16.7H12.75V14.95C16.74 14.39 17.99 9.40001 18.38 6.27001H20.25C20.22 7.33001 19.92 9.40001 18.19 10.54C17.84 10.77 17.75 11.23 17.98 11.58C18.12 11.8 18.36 11.92 18.61 11.92C18.75 11.92 18.89 11.88 19.02 11.8C22.17 9.72001 21.75 5.62001 21.73 5.44001H21.72ZM10.42 11.19C10.3 11.26 10.17 11.3 10.04 11.3C9.78002 11.3 9.54002 11.17 9.40002 10.94C8.91002 10.13 8.53002 9.11001 8.27002 7.90001C8.18002 7.49001 8.44002 7.09001 8.84002 7.01001C9.24002 6.92001 9.64002 7.18001 9.73002 7.58001C9.96002 8.63001 10.28 9.50001 10.68 10.17C10.89 10.52 10.78 10.99 10.42 11.2V11.19Z" fill="black"/>
</svg>
