<svg width="24" height="24" viewBox="0 0 24 24" fill="none" xmlns="http://www.w3.org/2000/svg">
<path fill-rule="evenodd" clip-rule="evenodd" d="M20.4099 11.25L15.5199 8.97C15.4599 8.94 15.4099 8.89 15.3899 8.84L13.1099 3.94C12.9099 3.5 12.4799 3.23 11.9999 3.23C11.5199 3.23 11.0899 3.5 10.8899 3.94L8.60988 8.83C8.57988 8.89 8.52988 8.93 8.47988 8.96L3.58988 11.25C3.15988 11.45 2.87988 11.88 2.87988 12.36C2.87988 12.84 3.14988 13.26 3.58988 13.47L8.47988 15.75C8.53988 15.78 8.58988 15.83 8.60988 15.87L10.8899 20.77C11.0899 21.21 11.5199 21.48 11.9999 21.48C12.4799 21.48 12.9099 21.21 13.1099 20.77L15.3899 15.88C15.4199 15.83 15.4599 15.78 15.5199 15.75L20.4099 13.46C20.8399 13.26 21.1099 12.83 21.1099 12.35C21.1099 11.87 20.8399 11.45 20.3999 11.24L20.4099 11.25Z" fill="black"/>
</svg>
