<svg width="24" height="24" viewBox="0 0 24 24" fill="none" xmlns="http://www.w3.org/2000/svg">
<path fill-rule="evenodd" clip-rule="evenodd" d="M20.4398 10.24C18.3998 8.19001 16.3598 6.15002 14.3098 4.11002C13.2498 3.05002 11.9498 2.51002 10.4698 2.51002H10.1498C6.81983 2.50002 5.61983 2.51002 5.38983 2.56002C3.75983 2.84002 2.51983 4.31002 2.51983 5.97002V6.62002C2.49983 7.90001 2.47983 10.29 2.54983 11.05C2.65983 12.28 3.16983 13.35 4.05983 14.25C6.11983 16.32 8.17983 18.38 10.2398 20.43C10.9398 21.13 11.8498 21.48 12.7498 21.48C13.6498 21.48 14.5298 21.14 15.2198 20.45C16.9698 18.72 18.7198 16.97 20.4498 15.22C21.8298 13.82 21.8198 11.63 20.4298 10.24H20.4398ZM8.71983 12.87C8.17983 12.87 7.73983 12.43 7.73983 11.89C7.73983 11.64 7.83983 11.39 8.01983 11.2C8.19983 11.01 8.44983 10.91 8.70983 10.91C9.24983 10.91 9.68983 11.35 9.68983 11.88C9.68983 12.41 9.24983 12.86 8.71983 12.86V12.87ZM12.6498 15.16C12.6498 15.57 12.3098 15.91 11.8998 15.91C11.4898 15.91 11.1498 15.57 11.1498 15.16V8.62002C11.1498 8.21002 11.4898 7.87002 11.8998 7.87002C12.3098 7.87002 12.6498 8.21002 12.6498 8.62002V15.16ZM15.0798 12.87C14.5398 12.87 14.0998 12.43 14.0998 11.89C14.0998 11.64 14.1998 11.39 14.3798 11.2C14.5598 11.01 14.8098 10.91 15.0698 10.91C15.6098 10.91 16.0498 11.35 16.0498 11.88C16.0498 12.41 15.6098 12.86 15.0798 12.86V12.87Z" fill="black"/>
</svg>
