<svg width="24" height="24" viewBox="0 0 24 24" fill="none" xmlns="http://www.w3.org/2000/svg">
<path fill-rule="evenodd" clip-rule="evenodd" d="M21.0899 9.09C20.8599 8.68 20.5199 8.34 19.7999 7.62C19.6499 7.47 19.5599 7.39 19.4999 7.35C19.2299 7.17 19.0899 7.13 18.7699 7.17C18.6599 7.18 18.5399 7.22 18.0399 7.37C17.6299 7.5 17.2099 7.39 16.9099 7.09C16.6099 6.79 16.5099 6.37 16.6299 5.96L16.6799 5.81C16.7899 5.44 16.8299 5.33 16.8399 5.23C16.8799 4.9 16.8399 4.77 16.6599 4.49C16.6199 4.43 16.5399 4.34 16.3399 4.14C15.6599 3.46 15.3099 3.11 14.9099 2.89C13.9199 2.35 12.7499 2.35 11.7599 2.89C11.3599 3.11 11.0199 3.45 10.3199 4.15L4.15988 10.31C3.47988 10.99 3.12988 11.34 2.90988 11.74C2.36988 12.73 2.36988 13.91 2.90988 14.9C3.13988 15.31 3.47988 15.65 4.17988 16.35C4.34988 16.52 4.43988 16.6 4.50988 16.64C4.78988 16.82 4.91988 16.86 5.23988 16.82C5.29988 16.82 5.48988 16.76 5.85988 16.65L5.96988 16.62C6.37988 16.49 6.79988 16.6 7.11988 16.92C7.38988 17.21 7.48988 17.62 7.37988 18C7.21988 18.55 7.18988 18.67 7.17988 18.77C7.14988 19.1 7.17988 19.22 7.35988 19.5C7.39988 19.56 7.47988 19.65 7.67988 19.85C8.35988 20.53 8.69988 20.87 9.10988 21.09C9.59988 21.36 10.1499 21.5 10.6899 21.5C11.2299 21.5 11.7699 21.36 12.2699 21.09C12.6699 20.87 13.0199 20.52 13.6999 19.84L19.8599 13.68C20.5399 13 20.8899 12.65 21.1099 12.25C21.6499 11.26 21.6499 10.09 21.1099 9.1L21.0899 9.09ZM9.31988 12.66C9.12988 12.84 8.88988 12.94 8.64988 12.94C8.40988 12.94 8.16988 12.85 7.98988 12.67C7.61988 12.3 7.61988 11.7 7.98988 11.33C8.36988 10.96 8.95988 10.96 9.32988 11.33C9.69988 11.7 9.69988 12.3 9.32988 12.67L9.31988 12.66ZM12.8099 15.42C12.8099 15.83 12.4699 16.17 12.0599 16.17C11.6499 16.17 11.3099 15.83 11.3099 15.42V8.49C11.3099 8.08 11.6499 7.74 12.0599 7.74C12.4699 7.74 12.8099 8.08 12.8099 8.49V15.42ZM16.0599 12.66C15.8699 12.84 15.6299 12.94 15.3899 12.94C15.1499 12.94 14.9099 12.85 14.7199 12.66C14.5399 12.48 14.4399 12.25 14.4399 11.99C14.4399 11.73 14.5399 11.5 14.7199 11.32C15.0899 10.96 15.6799 10.96 16.0499 11.32C16.4199 11.69 16.4199 12.29 16.0499 12.66H16.0599Z" fill="black"/>
</svg>
