<svg width="24" height="24" viewBox="0 0 24 24" fill="none" xmlns="http://www.w3.org/2000/svg">
<path fill-rule="evenodd" clip-rule="evenodd" d="M21.04 13.66C20.95 13.59 20.81 13.51 20.29 13.24C19.82 12.99 19.54 12.53 19.54 12C19.54 11.47 19.82 11.01 20.35 10.73C20.84 10.47 20.96 10.41 21.05 10.34C21.33 10.11 21.41 9.99 21.48 9.63C21.5 9.54 21.5 9.4 21.5 9.11C21.5 7.98 21.5 7.41 21.35 6.9C20.99 5.66 20.04 4.71 18.8 4.35C18.29 4.2 17.72 4.2 16.59 4.2H7.41001C6.28001 4.2 5.71001 4.2 5.21001 4.35C3.97001 4.71 3.02001 5.66 2.66001 6.91C2.51001 7.42 2.51001 7.99 2.52001 9.14C2.52001 9.4 2.52001 9.54 2.54001 9.63C2.61001 9.99 2.69001 10.11 2.97001 10.34C3.06001 10.41 3.18001 10.48 3.72001 10.76C4.19001 11.01 4.47001 11.47 4.47001 12.04C4.45001 12.53 4.18001 12.98 3.74001 13.22C3.18001 13.53 3.04001 13.61 2.95001 13.68C2.67001 13.92 2.60001 14.03 2.53001 14.39C2.51001 14.47 2.51001 14.62 2.51001 14.9C2.51001 16.02 2.51001 16.59 2.66001 17.1C3.02001 18.34 3.97001 19.3 5.22001 19.65C5.73001 19.8 6.29001 19.8 7.42001 19.8H16.61C17.74 19.8 18.31 19.8 18.82 19.65C20.06 19.29 21.01 18.34 21.37 17.1C21.52 16.59 21.52 16.02 21.52 14.89C21.52 14.61 21.52 14.47 21.5 14.37C21.43 14.02 21.35 13.89 21.07 13.66H21.04ZM9.63001 8.67C10.15 8.67 10.58 9.09 10.58 9.62C10.58 10.15 10.16 10.57 9.63001 10.57C9.10001 10.57 8.68001 10.15 8.68001 9.62C8.68001 9.09 9.10001 8.67 9.63001 8.67ZM9.63001 15.2C9.44001 15.2 9.25001 15.13 9.10001 14.98C8.81001 14.69 8.81001 14.21 9.10001 13.92L14 9.02C14.29 8.73 14.77 8.73 15.06 9.02C15.35 9.31 15.35 9.79 15.06 10.08L10.16 14.98C10.01 15.13 9.82001 15.2 9.63001 15.2ZM14.41 15.33C13.89 15.33 13.46 14.91 13.46 14.38C13.46 13.85 13.89 13.43 14.41 13.43C14.93 13.43 15.35 13.85 15.35 14.38C15.35 14.91 14.93 15.33 14.41 15.33Z" fill="black"/>
</svg>
