<svg width="24" height="24" viewBox="0 0 24 24" fill="none" xmlns="http://www.w3.org/2000/svg">
<path fill-rule="evenodd" clip-rule="evenodd" d="M11.1501 9.45999H3.12008C2.91008 9.45999 2.76008 9.24999 2.87008 9.06999C2.89008 9.02999 2.94008 8.94999 2.94008 8.94999L5.89008 4.62999C6.34008 3.94999 7.10008 3.54999 7.92008 3.54999H14.4201C14.6601 3.54999 14.8001 3.80999 14.6801 4.00999L11.4101 9.31999C11.3501 9.40999 11.2501 9.45999 11.1501 9.45999ZM20.8999 9.46H13.6099L13.6299 9.47001C13.3899 9.47001 13.2499 9.21 13.3699 9.01C13.9484 8.06937 14.7021 6.83942 15.3437 5.79252L15.3448 5.79074L15.3455 5.78958C15.89 4.90117 16.3534 4.145 16.5599 3.81C16.6299 3.69 16.7599 3.64 16.8799 3.68C17.3799 3.84 17.8299 4.17 18.1399 4.63L21.0799 8.95C21.0899 8.97001 21.1024 8.99 21.1149 9.01C21.1274 9.03 21.1399 9.05 21.1499 9.07C21.2599 9.25 21.1099 9.46 20.8999 9.46ZM21.03 10.96H10.14C9.94004 10.96 9.79004 11.16 9.85004 11.35L12.68 20.24C12.73 20.41 12.92 20.49 13.07 20.41C13.25 20.31 13.41 20.18 13.56 20.02L20.87 11.99C21.05 11.79 21.2 11.57 21.3 11.33C21.38 11.15 21.24 10.96 21.04 10.96H21.03ZM7.9299 10.96C8.0599 10.96 8.1799 11.05 8.2199 11.17L11.0099 19.93C11.0799 20.17 10.8499 20.37 10.6499 20.21L10.6499 20.21C10.5799 20.15 10.5099 20.09 10.4499 20.02L3.1399 11.99C2.9599 11.79 2.8099 11.57 2.7099 11.33C2.6299 11.15 2.7699 10.96 2.9699 10.96H7.9299Z" fill="black"/>
</svg>
