<svg width="24" height="24" viewBox="0 0 24 24" fill="none" xmlns="http://www.w3.org/2000/svg">
<path d="M17.71 2.79C17.11 2.59 16.48 2.5 15.85 2.5C14.46 2.5 13.11 2.95 12 3.8C11.91 3.73 11.8 3.67 11.7 3.61C11.6 3.55 11.42 3.4 11.27 3.32L10.89 3.15C10.69 3.04 10.48 2.96 10.26 2.89C10.24 2.87 10.21 2.85 10.17 2.83H10.11C9.52003 2.63 8.91003 2.52 8.28003 2.5H8.17003C7.89003 2.5 7.61003 2.52 7.33003 2.56H7.21003C6.91003 2.6 6.61003 2.67 6.32003 2.77C2.59003 3.99 1.26003 8.04 2.39003 11.58C3.03003 13.39 4.06003 15.03 5.40003 16.38C7.35003 18.26 9.48003 19.92 11.77 21.34L12.03 21.5L12.28 21.35C14.56 19.92 16.68 18.26 18.61 16.39C19.96 15.04 20.99 13.39 21.62 11.58C22.73 8.04 21.4 3.99 17.71 2.79ZM19.3 8.94C19.27 9.36 18.92 9.69 18.51 9.7C18.29 9.68 18.08 9.58 17.94 9.41C17.8 9.24 17.73 9.02 17.75 8.79V8.76C17.75 8.06 17.32 7.43 16.68 7.19C16.26 7.04 16.04 6.58 16.18 6.16C16.33 5.74 16.78 5.52 17.19 5.66C18.48 6.15 19.33 7.42 19.3 8.82V8.94Z" fill="black"/>
</svg>
