<svg width="24" height="24" viewBox="0 0 24 24" fill="none" xmlns="http://www.w3.org/2000/svg">
<path fill-rule="evenodd" clip-rule="evenodd" d="M20.5699 7.72001C19.9599 5.82001 17.6499 3.73001 15.1899 2.86001C13.2099 2.17001 11.0399 2.22001 9.07991 2.98001C7.41991 3.63001 5.98991 4.75001 4.94991 6.21001C3.90991 7.66001 3.31991 9.37001 3.22991 11.17C3.12991 14.21 4.58991 17.4 7.55991 17.95C7.40991 18.85 6.98991 19.7 6.33991 20.35C6.04991 20.64 6.04991 21.12 6.33991 21.41C6.48991 21.55 6.67991 21.63 6.86991 21.63C7.05991 21.63 7.25991 21.56 7.39991 21.41C8.30991 20.49 8.88991 19.28 9.05991 18C9.27991 17.98 9.49991 17.93 9.70991 17.87C10.0299 18.11 11.1999 18.92 12.6599 19.45V20.88C12.6599 21.29 12.9999 21.63 13.4099 21.63C13.8199 21.63 14.1599 21.29 14.1599 20.88V19.86C14.4899 19.91 14.8199 19.94 15.1499 19.94C15.4199 19.94 15.6899 19.92 15.9499 19.88C17.1399 19.68 18.1099 19.03 18.8099 17.98C19.6399 16.8 20.0999 15.42 20.1499 13.98C20.1899 12.81 19.9399 11.66 19.4399 10.61C19.4399 10.61 19.4399 10.61 19.4499 10.61C20.0499 10.48 20.3599 10.15 20.5099 9.89001C20.8199 9.38001 20.8399 8.66001 20.5599 7.73001L20.5699 7.72001ZM8.35991 14.7C7.17991 14.7 6.21991 13.74 6.21991 12.56C6.21991 11.38 7.17991 10.42 8.35991 10.42C9.53991 10.42 10.4999 11.38 10.4999 12.56C10.4999 13.74 9.53991 14.7 8.35991 14.7ZM17.5799 17.12C17.0999 17.84 16.4899 18.26 15.7099 18.39C14.1099 18.66 12.2299 17.68 11.2399 17.07C11.2999 17.04 11.3599 16.99 11.4199 16.94C12.6099 15.77 13.3899 14.29 13.6999 12.63C13.7599 12.25 13.9499 11.91 14.1799 11.71C14.4199 11.57 14.6699 11.48 14.9599 11.44C15.9499 11.26 16.9299 11.07 17.9199 10.89C18.4299 11.82 18.6999 12.85 18.6599 13.92C18.6199 15.07 18.2599 16.17 17.5899 17.12H17.5799Z" fill="black"/>
</svg>
