<svg width="24" height="24" viewBox="0 0 24 24" fill="none" xmlns="http://www.w3.org/2000/svg">
<path d="M12 2C6.48 2 2 6.48 2 12C2 17.52 6.48 22 12 22C17.52 22 22 17.52 22 12C22 6.48 17.53 2 12 2ZM11.12 8.21C11.12 7.73 11.52 7.33 12 7.33C12.48 7.33 12.87 7.73 12.87 8.21V12.63C12.87 13.11 12.48 13.5 12 13.5C11.52 13.5 11.12 13.11 11.12 12.63V8.21ZM12.01 16.68C11.52 16.68 11.13 16.28 11.13 15.8C11.13 15.32 11.52 14.93 12 14.93C12.48 14.93 12.88 15.32 12.88 15.8C12.88 16.28 12.49 16.68 12.01 16.68Z" fill="black"/>
</svg>
