<svg width="24" height="24" viewBox="0 0 24 24" fill="none" xmlns="http://www.w3.org/2000/svg">
<path d="M11.99 2C7.34 2 3.5 5.72 3.5 10.32C3.5 12.64 4.34 14.79 5.73 16.61C7.25 18.62 9.13 20.37 11.27 21.75C11.8 22.09 12.24 22.07 12.73 21.75C14.85 20.37 16.74 18.62 18.27 16.61C19.66 14.79 20.5 12.63 20.5 10.32C20.5 5.72 16.66 2 11.99 2ZM11.99 13.33C10.45 13.33 9.19 12.12 9.19 10.58C9.19 9.04 10.45 7.78 11.99 7.78C13.53 7.78 14.8 9.05 14.8 10.58C14.8 12.11 13.53 13.33 11.99 13.33Z" fill="black"/>
</svg>
