<svg width="16" height="16" viewBox="0 0 16 16" fill="none" xmlns="http://www.w3.org/2000/svg">
<path fill-rule="evenodd" clip-rule="evenodd" d="M8.83954 3.3006C8.83954 2.54544 9.45167 1.93326 10.2069 1.93326C10.962 1.93326 11.5742 2.54544 11.5742 3.3006C11.5742 4.05577 10.962 4.66795 10.2069 4.66795C9.45167 4.66795 8.83954 4.05577 8.83954 3.3006ZM3.82386 10.0859C2.98228 10.0859 2.30005 10.7682 2.30005 11.6097C2.30005 12.4513 2.98228 13.1335 3.82386 13.1335C4.66544 13.1335 5.34767 12.4513 5.34767 11.6097C5.34767 10.7682 4.66544 10.0859 3.82386 10.0859ZM1.30005 11.6097C1.30005 10.2159 2.43 9.08594 3.82386 9.08594C5.21772 9.08594 6.34767 10.2159 6.34767 11.6097C6.34767 13.0036 5.21772 14.1335 3.82386 14.1335C2.43 14.1335 1.30005 13.0036 1.30005 11.6097ZM12.1504 10.0859C11.3089 10.0859 10.6266 10.7682 10.6266 11.6097C10.6266 12.4513 11.3089 13.1335 12.1504 13.1335C12.992 13.1335 13.6742 12.4513 13.6742 11.6097C13.6742 10.7682 12.992 10.0859 12.1504 10.0859ZM9.62659 11.6097C9.62659 10.2159 10.7565 9.08594 12.1504 9.08594C13.5443 9.08594 14.6742 10.2159 14.6742 11.6097C14.6742 13.0036 13.5443 14.1335 12.1504 14.1335C10.7565 14.1335 9.62659 13.0036 9.62659 11.6097ZM2.66673 3.59995C2.02239 3.59995 1.50006 4.12228 1.50006 4.76661V6.83328C1.50006 7.47761 2.02239 7.99995 2.66673 7.99995H4.73339C5.37773 7.99995 5.90006 7.47761 5.90006 6.83328V4.76661C5.90006 4.12228 5.37773 3.59995 4.73339 3.59995H2.66673ZM9.31753 4.97952C8.87099 4.7217 8.29999 4.8747 8.04213 5.32127L6.37933 8.20132C6.20224 8.50807 6.21897 8.87351 6.39151 9.15584C6.41714 9.23422 6.46255 9.30734 6.52742 9.36728L8.02508 10.7508L6.84148 13.2455C6.72315 13.495 6.82942 13.7932 7.07895 13.9116C7.32842 14.0299 7.62662 13.9237 7.74502 13.6741L9.08615 10.8473C9.17988 10.6497 9.13435 10.4141 8.97368 10.2657L7.89926 9.27319C7.93517 9.23088 7.96779 9.18476 7.99653 9.13499L9.41735 6.67406L9.45029 6.71153C9.87149 7.18699 10.5242 7.78493 11.3096 7.94993C11.6473 8.02086 12.073 8.01713 12.3805 8.00273C12.5412 7.99519 12.6836 7.98386 12.7858 7.97453C12.837 7.96979 12.8786 7.96553 12.9077 7.96239L12.9419 7.95859L12.9514 7.95753L12.9542 7.95719L12.9556 7.95699C13.2297 7.92393 13.4252 7.67479 13.3921 7.40066C13.359 7.12653 13.11 6.93113 12.8358 6.96419L12.8345 6.96433L12.8281 6.96513L12.8006 6.96813C12.7762 6.97079 12.7398 6.97453 12.6944 6.97866C12.6031 6.98706 12.4761 6.99713 12.3336 7.00379C12.0348 7.01779 11.719 7.01406 11.5152 6.97126C11.0612 6.87593 10.5908 6.49088 10.1988 6.04837C10.0118 5.83731 9.85929 5.63242 9.75362 5.48013C9.73486 5.45309 9.71765 5.42781 9.70205 5.40457C9.62448 5.23201 9.4939 5.08134 9.31753 4.97952Z" fill="black"/>
</svg>
