<svg width="24" height="24" viewBox="0 0 24 24" fill="none" xmlns="http://www.w3.org/2000/svg">
<path fill-rule="evenodd" clip-rule="evenodd" d="M17.77 9.06001C15.66 7.16001 12.1 4.92001 9.44 3.85001C8.29 3.48001 7.32 3.52001 6.57 3.97001C5.75 4.47001 5.22 5.46001 4.98 6.93001C4.81 8.47001 4.72 10.1 4.73 11.75C4.73 13.41 4.81 15.04 4.98 16.6C5.2 18.03 5.73 19.02 6.54 19.52C6.96 19.78 7.44 19.91 8 19.91C8.44 19.91 8.92 19.83 9.44 19.66C9.45 19.66 9.46 19.66 9.47 19.65C12.1 18.59 15.67 16.36 17.76 14.45C18.75 13.58 19.26 12.67 19.26 11.75C19.26 10.83 18.76 9.92001 17.77 9.05001V9.06001Z" fill="black"/>
</svg>
