<svg width="24" height="24" viewBox="0 0 24 24" fill="none" xmlns="http://www.w3.org/2000/svg">
<path d="M12 2C6.49 2 2 6.49 2 12.01C2 17.53 6.49 22 12 22C17.51 22 22 17.51 22 12.01C22 6.51 17.51 2 12 2ZM15.94 12.71C15.94 12.71 15.78 12.91 15.67 13.02L15.61 13.08C14.8 13.96 12.78 15.28 11.76 15.7C11.76 15.7 11.15 15.96 10.86 15.97H10.82C10.38 15.97 9.96 15.72 9.75 15.31C9.63 15.09 9.53 14.44 9.52 14.43C9.43 13.85 9.38 12.96 9.38 11.99C9.38 11.02 9.44 10.04 9.54 9.47C9.54 9.47 9.65 8.94 9.71 8.77C9.82 8.52 10.01 8.31 10.25 8.17C10.44 8.07 10.65 8.03 10.86 8.03C11.08 8.03 11.5 8.19 11.66 8.25C12.74 8.67 14.81 10.06 15.6 10.91C15.74 11.05 15.88 11.21 15.92 11.25C16.08 11.46 16.17 11.72 16.17 12C16.17 12.25 16.09 12.5 15.94 12.7V12.71Z" fill="black"/>
</svg>
