<svg width="24" height="24" viewBox="0 0 24 24" fill="none" xmlns="http://www.w3.org/2000/svg">
<path d="M21.6599 10.78C21.9699 10.49 22.0799 10.05 21.9499 9.65C21.8099 9.25 21.4599 8.96 21.0399 8.9L16.0699 8.18C15.7099 8.13 15.3999 7.9 15.2399 7.57L13.0199 3.1C12.8499 2.76 12.5199 2.54 12.1399 2.5H11.7199L11.5499 2.57L11.4399 2.61C11.3799 2.64 11.3299 2.69 11.2799 2.74L11.1899 2.81C11.1099 2.89 11.0399 2.98 10.9899 3.08L8.79994 7.57C8.62994 7.91 8.29994 8.14 7.91994 8.18L2.94994 8.9C2.53994 8.97 2.18994 9.25 2.05994 9.65C1.91994 10.05 2.02994 10.49 2.32994 10.78L5.93994 14.28C6.19994 14.54 6.31994 14.9 6.25994 15.26L5.36994 20.18C5.26994 20.78 5.66994 21.34 6.25994 21.45C6.49994 21.49 6.74994 21.45 6.96994 21.34L11.3999 19.02C11.4799 18.97 11.5799 18.94 11.6699 18.93H11.9399C12.1099 18.93 12.2899 18.98 12.4399 19.06L16.8699 21.37C17.2399 21.57 17.6999 21.54 18.0399 21.29C18.3899 21.05 18.5599 20.63 18.4899 20.21L17.5999 15.29C17.5399 14.93 17.6599 14.57 17.9199 14.32L21.6599 10.78Z" fill="black"/>
</svg>
