<svg width="24" height="24" viewBox="0 0 24 24" fill="none" xmlns="http://www.w3.org/2000/svg">
<path fill-rule="evenodd" clip-rule="evenodd" d="M10.5901 3.59H14.8001C15.2101 3.59 15.5501 3.25 15.5501 2.84C15.5501 2.43 15.2101 2.09 14.8001 2.09H10.5901C10.1801 2.09 9.84009 2.43 9.84009 2.84C9.84009 3.25 10.1801 3.59 10.5901 3.59ZM12.69 5.02C8.19003 5.02 4.53003 8.68 4.53003 13.18V13.49C4.53003 13.65 4.67003 13.77 4.83003 13.77H8.19003C9.30003 13.77 10.19 14.66 10.19 15.77V15.92C10.17 16.12 10.32 16.31 10.52 16.31H10.69C11.79 16.31 12.69 17.2 12.69 18.31C12.69 18.48 12.67 18.64 12.63 18.8C12.59 18.97 12.71 19.16 12.88 19.16C13.81 19.16 14.6 19.8 14.81 20.67C14.86 20.86 15.04 20.99 15.22 20.93C18.49 19.87 20.85 16.8 20.85 13.18C20.85 8.68 17.19 5.02 12.69 5.02ZM16.15 10.74L13.21 13.68C13.07 13.83 12.87 13.9 12.68 13.9C12.49 13.9 12.3 13.83 12.15 13.68C11.86 13.39 11.86 12.91 12.15 12.62L15.09 9.68C15.39 9.39 15.86 9.39 16.15 9.68C16.45 9.97001 16.45 10.45 16.15 10.74ZM10.6699 17.56C11.0799 17.56 11.4199 17.9 11.4199 18.31C11.4199 18.72 11.0799 19.06 10.6699 19.06H6.37988C5.96988 19.06 5.62988 18.72 5.62988 18.31C5.62988 17.9 5.96988 17.56 6.37988 17.56H10.6699ZM12.8601 20.41H8.57007C8.16007 20.41 7.82007 20.75 7.82007 21.16C7.82007 21.57 8.16007 21.91 8.57007 21.91H12.8601C13.2701 21.91 13.6101 21.57 13.6101 21.16C13.6101 20.75 13.2701 20.41 12.8601 20.41ZM8.1899 15.02C8.5999 15.02 8.9399 15.36 8.9399 15.77C8.9399 16.18 8.5999 16.52 8.1899 16.52H3.8999C3.4899 16.52 3.1499 16.18 3.1499 15.77C3.1499 15.36 3.4899 15.02 3.8999 15.02H8.1899Z" fill="black"/>
</svg>
