<svg width="24" height="24" viewBox="0 0 24 24" fill="none" xmlns="http://www.w3.org/2000/svg">
<path fill-rule="evenodd" clip-rule="evenodd" d="M18.5898 8.39002L17.5398 9.44001V9.46002L8.39984 18.6C7.67984 17.875 6.95734 17.1525 6.23484 16.43C5.51234 15.7075 4.78984 14.985 4.06984 14.26C3.17984 13.36 2.66984 12.29 2.55984 11.06C2.47984 10.29 2.49984 7.90001 2.51984 6.62002V5.97002C2.51984 4.31002 3.75984 2.84002 5.38984 2.56002C5.61984 2.51002 6.80984 2.50002 10.1498 2.51002H10.4698C11.9498 2.51002 13.2498 3.05002 14.3098 4.11002C15.2628 5.05629 16.2113 6.007 17.1612 6.95919C17.6368 7.43589 18.1128 7.91295 18.5898 8.39002ZM6.63984 9.95002C7.08984 10.4 7.67984 10.65 8.29984 10.65H8.31984C9.60984 10.65 10.6698 9.61001 10.6698 8.32001C10.6698 7.69001 10.4298 7.09001 9.97984 6.64002C9.53984 6.20002 8.95984 5.95002 8.34984 5.95002H8.33984C7.00984 5.95002 5.96984 6.98002 5.95984 8.30002C5.94984 8.92002 6.19984 9.50002 6.63984 9.95002ZM8.32983 7.45001C7.82983 7.45001 7.45983 7.82001 7.44983 8.31001C7.44983 8.53001 7.53983 8.73001 7.69983 8.90001C7.85983 9.06001 8.07983 9.16001 8.29983 9.16001C8.75983 9.16001 9.14983 8.78001 9.15983 8.32001C9.15983 8.09001 9.06983 7.86001 8.89983 7.70001C8.73983 7.54001 8.53983 7.46001 8.32983 7.46001V7.45001ZM20.4398 10.24L19.6498 9.45001L9.45984 19.65L10.0898 20.28L10.2498 20.44C10.9498 21.14 11.8598 21.49 12.7598 21.49C13.6598 21.49 14.5398 21.15 15.2398 20.46C16.9898 18.72 18.7398 16.98 20.4698 15.23C21.8598 13.83 21.8498 11.64 20.4498 10.25L20.4398 10.24Z" fill="black"/>
</svg>
