<svg width="19" height="20" viewBox="0 0 19 20" fill="none" xmlns="http://www.w3.org/2000/svg">
<path fill-rule="evenodd" clip-rule="evenodd" d="M18.585 6.605C18.355 6.195 18.015 5.855 17.295 5.135C17.145 4.985 17.055 4.905 16.995 4.865C16.725 4.685 16.585 4.645 16.265 4.685C16.155 4.695 16.035 4.735 15.535 4.885C15.125 5.015 14.705 4.905 14.405 4.605C14.105 4.305 14.005 3.885 14.125 3.475L14.175 3.325C14.285 2.955 14.325 2.845 14.335 2.745C14.375 2.415 14.335 2.285 14.155 2.005C14.115 1.945 14.035 1.855 13.835 1.655C13.155 0.975 12.805 0.625 12.405 0.405C11.415 -0.135 10.245 -0.135 9.255 0.405C8.855 0.625 8.515 0.965 7.815 1.665L1.655 7.825C0.975 8.505 0.625 8.855 0.405 9.255C-0.135 10.245 -0.135 11.425 0.405 12.415C0.635 12.825 0.975 13.165 1.675 13.865C1.845 14.035 1.935 14.115 2.005 14.155C2.285 14.335 2.415 14.375 2.735 14.335C2.795 14.335 2.985 14.275 3.355 14.165L3.465 14.135C3.875 14.005 4.295 14.115 4.615 14.435C4.885 14.725 4.985 15.135 4.875 15.515C4.715 16.065 4.685 16.185 4.675 16.285C4.645 16.615 4.675 16.735 4.855 17.015C4.895 17.075 4.975 17.165 5.175 17.365C5.855 18.045 6.195 18.385 6.605 18.605C7.095 18.875 7.645 19.015 8.185 19.015C8.725 19.015 9.265 18.875 9.765 18.605C10.165 18.385 10.515 18.035 11.195 17.355L17.355 11.195C18.035 10.515 18.385 10.165 18.605 9.765C19.145 8.775 19.145 7.605 18.605 6.615L18.585 6.605ZM6.815 10.175C6.625 10.355 6.385 10.455 6.145 10.455C5.905 10.455 5.665 10.365 5.485 10.185C5.115 9.815 5.115 9.215 5.485 8.845C5.865 8.475 6.455 8.475 6.825 8.845C7.195 9.215 7.195 9.815 6.825 10.185L6.815 10.175ZM10.305 12.935C10.305 13.345 9.965 13.685 9.555 13.685C9.145 13.685 8.805 13.345 8.805 12.935V6.005C8.805 5.595 9.145 5.255 9.555 5.255C9.965 5.255 10.305 5.595 10.305 6.005V12.935ZM13.555 10.175C13.365 10.355 13.125 10.455 12.885 10.455C12.645 10.455 12.405 10.365 12.215 10.175C12.035 9.995 11.935 9.765 11.935 9.505C11.935 9.245 12.035 9.015 12.215 8.835C12.585 8.475 13.175 8.475 13.545 8.835C13.915 9.205 13.915 9.805 13.545 10.175H13.555Z" fill="black"/>
</svg>
