<svg width="24" height="24" viewBox="0 0 24 24" fill="none" xmlns="http://www.w3.org/2000/svg">
<path d="M11.9491 14.5399C8.49909 14.5399 5.58813 15.1037 5.58813 17.2794C5.58813 19.4561 8.51789 20 11.9491 20C15.3991 20 18.31 19.4362 18.31 17.2605C18.31 15.0839 15.3803 14.5399 11.9491 14.5399Z" fill="#2C3750"/>
<path opacity="0.4" d="M11.949 12.467C14.2851 12.467 16.1583 10.5831 16.1583 8.23351C16.1583 5.88306 14.2851 4 11.949 4C9.61293 4 7.73975 5.88306 7.73975 8.23351C7.73975 10.5831 9.61293 12.467 11.949 12.467Z" fill="#2C3750"/>
<path opacity="0.4" d="M20.0881 9.21926C20.6925 6.84179 18.9205 4.70657 16.664 4.70657C16.4187 4.70657 16.1841 4.73359 15.9549 4.77952C15.9244 4.78672 15.8904 4.80203 15.8725 4.82905C15.8519 4.86327 15.8671 4.9092 15.8895 4.93892C16.5673 5.89531 16.9568 7.05973 16.9568 8.3097C16.9568 9.50744 16.5996 10.6241 15.9728 11.5508C15.9083 11.6463 15.9656 11.775 16.0793 11.7949C16.2369 11.8228 16.3981 11.8372 16.5629 11.8417C18.2059 11.8849 19.6807 10.8213 20.0881 9.21926Z" fill="#2C3750"/>
<path d="M21.8094 14.817C21.5086 14.1722 20.7824 13.73 19.6783 13.513C19.1572 13.3851 17.747 13.205 16.4352 13.2293C16.4155 13.232 16.4048 13.2455 16.403 13.2545C16.4003 13.2671 16.4057 13.2887 16.4316 13.3022C17.0378 13.6039 19.3811 14.916 19.0865 17.6834C19.074 17.8032 19.1698 17.9068 19.2888 17.8888C19.8655 17.8059 21.3492 17.4853 21.8094 16.4866C22.0637 15.9589 22.0637 15.3456 21.8094 14.817Z" fill="#2C3750"/>
<path opacity="0.4" d="M8.04483 4.77979C7.8165 4.73296 7.58101 4.70685 7.33567 4.70685C5.07926 4.70685 3.30726 6.84207 3.91255 9.21953C4.31906 10.8216 5.79379 11.8852 7.43685 11.842C7.60161 11.8375 7.76368 11.8221 7.92037 11.7951C8.03409 11.7753 8.09139 11.6465 8.02692 11.5511C7.40014 10.6235 7.04288 9.50771 7.04288 8.30997C7.04288 7.0591 7.43327 5.89468 8.11109 4.93919C8.13258 4.90947 8.1487 4.86354 8.12721 4.82932C8.1093 4.80141 8.07617 4.787 8.04483 4.77979Z" fill="#2C3750"/>
<path d="M4.32156 13.5127C3.21752 13.7297 2.49225 14.1719 2.19139 14.8167C1.9362 15.3453 1.9362 15.9586 2.19139 16.4872C2.65163 17.485 4.13531 17.8065 4.71195 17.8885C4.83104 17.9065 4.92595 17.8038 4.91342 17.6831C4.61883 14.9166 6.9621 13.6045 7.56918 13.3028C7.59425 13.2884 7.59962 13.2677 7.59694 13.2542C7.59515 13.2452 7.5853 13.2317 7.5656 13.2299C6.25294 13.2047 4.84358 13.3848 4.32156 13.5127Z" fill="#2C3750"/>
</svg>
