<svg width="24" height="24" viewBox="0 0 24 24" fill="none" xmlns="http://www.w3.org/2000/svg">
<path opacity="0.4" fill-rule="evenodd" clip-rule="evenodd" d="M3.16886 10.6462C3.0098 10.6462 2.88086 10.7752 2.88086 10.9342V15.1582C2.88086 17.8395 4.6031 19.6414 7.16534 19.6414H16.8326C19.3967 19.6414 21.119 17.8395 21.119 15.1582V10.9342C21.119 10.7752 20.99 10.6462 20.831 10.6462H3.16886Z" fill="black"/>
<path fill-rule="evenodd" clip-rule="evenodd" d="M20.831 9.2055C20.99 9.2055 21.119 9.07656 21.119 8.9175V8.8407C21.119 6.15942 19.3967 4.3575 16.8335 4.3575H7.16534C4.6031 4.3575 2.88086 6.15942 2.88086 8.8407V8.9175C2.88086 9.07656 3.0098 9.2055 3.16886 9.2055H20.831Z" fill="black"/>
<path d="M10.8306 15.765H12.2015C12.5989 15.765 12.9215 15.4425 12.9215 15.045C12.9215 14.6476 12.5989 14.325 12.2015 14.325H10.8306C10.4332 14.325 10.1106 14.6476 10.1106 15.045C10.1106 15.4425 10.4332 15.765 10.8306 15.765Z" fill="black"/>
<path d="M7.10208 15.765H8.47296C8.8704 15.765 9.19296 15.4425 9.19296 15.045C9.19296 14.6476 8.8704 14.325 8.47296 14.325H7.10208C6.70464 14.325 6.38208 14.6476 6.38208 15.045C6.38208 15.4425 6.70464 15.765 7.10208 15.765Z" fill="black"/>
</svg>
