<svg width="24" height="24" viewBox="0 0 24 24" fill="none" xmlns="http://www.w3.org/2000/svg">
<path fill-rule="evenodd" clip-rule="evenodd" d="M17.3468 4.87125H8.33242C8.06823 4.87125 7.8164 4.89186 7.57694 4.93038C7.38993 4.96045 7.30013 5.16883 7.36595 5.34643C7.46213 5.6059 7.51642 5.88685 7.51642 6.17685V6.99937C7.51642 7.12655 7.60049 7.23716 7.71901 7.28329C8.02793 7.40352 8.3181 7.58333 8.56282 7.82805C8.92539 8.19061 9.15271 8.64107 9.23345 9.11135C9.2594 9.26251 9.38398 9.38325 9.53736 9.38325H21.062C21.2211 9.38325 21.35 9.2543 21.35 9.09525V9.05685C21.35 6.55125 19.7372 4.87125 17.3468 4.87125Z" fill="#2C3750"/>
<path fill-rule="evenodd" clip-rule="evenodd" d="M4.84229 11.9483C4.90949 11.9761 4.98245 11.9847 5.05541 11.9915C5.07749 11.9934 5.09669 12.0039 5.11877 12.0039C5.21573 12.0039 5.31077 11.9847 5.39813 11.9473C5.44997 11.9262 5.49125 11.8878 5.53637 11.8551C5.56709 11.8331 5.60261 11.8196 5.62949 11.7918L7.37957 10.035C7.66085 9.75368 7.65989 9.29768 7.37861 9.01736C7.09637 8.73704 6.64037 8.73704 6.36005 9.01928L5.83877 9.54248V6.17672C5.83877 5.77928 5.51621 5.45672 5.11877 5.45672C4.72133 5.45672 4.39877 5.77928 4.39877 6.17672V9.54056L3.87941 9.01928C3.59909 8.73704 3.14309 8.73704 2.86085 9.01736C2.57957 9.29768 2.57861 9.75368 2.85989 10.035L4.60805 11.7899C4.67429 11.8571 4.75397 11.9118 4.84229 11.9483Z" fill="#2C3750"/>
<path opacity="0.4" fill-rule="evenodd" clip-rule="evenodd" d="M11.8462 14.8376C11.8462 15.212 11.5486 15.5096 11.1838 15.5096H8.52455C8.15015 15.5096 7.85255 15.212 7.85255 14.8376C7.85255 14.4728 8.15015 14.1656 8.52455 14.1656H11.1838C11.5486 14.1656 11.8462 14.4728 11.8462 14.8376ZM8.57255 11.2184L6.81575 12.9752C6.76775 13.0328 6.71015 13.0904 6.64295 13.1384C6.21095 13.4936 5.68295 13.6856 5.11655 13.6856C4.98381 13.6856 4.85108 13.6739 4.72066 13.6516C4.52551 13.6183 4.32935 13.7577 4.32935 13.9556V14.9432C4.32935 17.4488 5.94215 19.1288 8.33255 19.1288H17.347C19.7374 19.1288 21.3502 17.4488 21.3502 14.9432V11.0168C21.3502 10.8577 21.2212 10.7288 21.0622 10.7288H9.10847C9.00814 10.7288 8.91588 10.7816 8.85961 10.8646C8.77435 10.9905 8.67866 11.1122 8.57255 11.2184Z" fill="#2C3750"/>
</svg>
