<svg width="24" height="24" viewBox="0 0 24 24" fill="none" xmlns="http://www.w3.org/2000/svg">
<path fill-rule="evenodd" clip-rule="evenodd" d="M15.3289 6.24405L16.2284 5.3379C16.392 5.17306 16.3021 4.89671 16.0704 4.88148C15.9687 4.8748 15.8654 4.87125 15.7609 4.87125H6.74653C4.35613 4.87125 2.75293 6.55125 2.75293 9.05685V9.09525C2.75293 9.2543 2.88187 9.38325 3.04093 9.38325H14.5358C14.7742 9.38325 14.919 9.10101 14.8247 8.88204C14.4495 8.01094 14.6102 6.95478 15.3289 6.24405Z" fill="#2C3750"/>
<path fill-rule="evenodd" clip-rule="evenodd" d="M21.0372 7.42521L19.2871 5.66841C19.2832 5.66457 19.2775 5.66361 19.2736 5.65977C19.144 5.53497 18.9693 5.45625 18.7764 5.45625C18.5757 5.45625 18.3952 5.53881 18.2647 5.67033L16.5165 7.42521C16.2362 7.70649 16.2372 8.16345 16.5184 8.44377C16.7997 8.72409 17.2557 8.72409 17.537 8.44184L18.0564 7.92057V11.2844C18.0564 11.6819 18.378 12.0044 18.7764 12.0044C19.1738 12.0044 19.4964 11.6819 19.4964 11.2844V7.91865L20.0176 8.44184C20.1578 8.58297 20.3421 8.65305 20.5274 8.65305C20.7108 8.65305 20.8951 8.58297 21.0352 8.44377C21.3175 8.16345 21.3175 7.70649 21.0372 7.42521Z" fill="#2C3750"/>
<path opacity="0.4" fill-rule="evenodd" clip-rule="evenodd" d="M9.59773 15.5096H6.93853C6.56413 15.5096 6.26653 15.212 6.26653 14.8376C6.26653 14.4728 6.56413 14.1656 6.93853 14.1656H9.59773C9.96255 14.1656 10.2697 14.4728 10.2697 14.8376C10.2697 15.212 9.96255 15.5096 9.59773 15.5096ZM16.3753 11.2856V11.0168C16.3753 10.8577 16.2464 10.7288 16.0873 10.7288H3.04093C2.88187 10.7288 2.75293 10.8577 2.75293 11.0168V14.9432C2.75293 17.4488 4.35613 19.1288 6.74653 19.1288H15.7609C18.1513 19.1288 19.7641 17.4488 19.7641 14.9432V13.9147C19.7641 13.707 19.5496 13.5667 19.3479 13.6164C19.1649 13.6614 18.9746 13.6856 18.7753 13.6856C17.4505 13.6856 16.3753 12.6104 16.3753 11.2856Z" fill="#2C3750"/>
</svg>
