<svg width="24" height="24" viewBox="0 0 24 24" fill="none" xmlns="http://www.w3.org/2000/svg">
<path opacity="0.4" fill-rule="evenodd" clip-rule="evenodd" d="M19.7408 19.5203V5.20088C19.7408 3.79832 18.6013 2.65688 17.2016 2.65688H6.70399C5.30335 2.65688 4.16479 3.79832 4.16479 5.20088V19.5203H19.7408Z" fill="#2C3750"/>
<path d="M14.6003 8.41312C14.6003 8.81632 14.2739 9.13312 13.8803 9.13312H10.0211C9.62747 9.13312 9.30103 8.81632 9.30103 8.41312C9.30103 8.01952 9.62747 7.69312 10.0211 7.69312H13.8803C14.2739 7.69312 14.6003 8.01952 14.6003 8.41312Z" fill="#2C3750"/>
<path fill-rule="evenodd" clip-rule="evenodd" d="M14.8979 19.5206V15.1044C14.8979 14.1444 14.1107 13.3572 13.1507 13.3572H10.7603C9.79066 13.3572 9.01301 14.1444 9.01301 15.1044V19.5206H3.3533C2.9597 19.5206 2.6333 19.847 2.6333 20.2406C2.6333 20.6438 2.9597 20.9606 3.3533 20.9606H20.5908C20.994 20.9606 21.3108 20.6438 21.3108 20.2406C21.3108 19.847 20.994 19.5206 20.5908 19.5206H14.8979ZM13.1507 14.7972H10.7603C10.5875 14.7972 10.4531 14.9412 10.4531 15.1044V19.5206H13.4579V15.1044C13.4579 14.9412 13.3235 14.7972 13.1507 14.7972Z" fill="#2C3750"/>
</svg>
