<svg width="24" height="24" viewBox="0 0 24 24" fill="none" xmlns="http://www.w3.org/2000/svg">
<path opacity="0.4" fill-rule="evenodd" clip-rule="evenodd" d="M9.56167 14.4277C9.15847 14.4277 8.82247 14.0917 8.82247 13.6789C8.82247 13.2661 9.15847 12.9301 9.56167 12.9301C9.97443 12.9301 10.3104 13.2661 10.3104 13.6789C10.3104 14.0917 9.97443 14.4277 9.56167 14.4277ZM6.02887 14.4277C5.61607 14.4277 5.28007 14.0917 5.28007 13.6789C5.28007 13.2661 5.61607 12.9301 6.02887 12.9301C6.44167 12.9301 6.77767 13.2661 6.77767 13.6789C6.77767 14.0917 6.44167 14.4277 6.02887 14.4277ZM6.02887 17.6437C5.61607 17.6437 5.28007 17.3077 5.28007 16.8949C5.28007 16.4821 5.61607 16.1557 6.02887 16.1557C6.44167 16.1557 6.77767 16.4821 6.77767 16.8949C6.77767 17.3077 6.44167 17.6437 6.02887 17.6437ZM17.088 11.8837C17.6805 11.8837 18.2518 11.9825 18.7838 12.1558C18.9116 12.1975 19.0464 12.1044 19.0464 11.9699V10.6357C19.0464 10.5297 18.9605 10.4437 18.8544 10.4437H2.87047C2.76443 10.4437 2.67847 10.5297 2.67847 10.6357V16.0021C2.67847 18.8341 4.38727 20.5333 7.23847 20.5333H11.9956C12.1472 20.5333 12.2401 20.3651 12.1667 20.2326C11.7196 19.4256 11.4624 18.4978 11.4624 17.5093C11.4624 14.4085 13.9776 11.8837 17.088 11.8837Z" fill="#2C3750"/>
<path fill-rule="evenodd" clip-rule="evenodd" d="M19.051 8.2557C19.051 6.91362 18.6517 5.79042 17.8808 5.01954C17.1858 4.33506 16.2056 3.94434 15.044 3.8397V2.92578C15.044 2.53602 14.7205 2.2125 14.3307 2.2125C13.9314 2.2125 13.6165 2.53602 13.6165 2.92578V6.30498C13.5502 6.32418 13.4936 6.34242 13.4264 6.34242C13.027 6.34242 12.7131 6.0189 12.7131 5.62914V3.9933C12.7131 3.88726 12.6272 3.8013 12.5211 3.8013H8.11573V2.92578C8.11573 2.53602 7.80181 2.2125 7.40245 2.2125C7.01173 2.2125 6.68821 2.53602 6.68821 2.92578V6.30498C6.63157 6.32418 6.56533 6.34242 6.49813 6.34242C6.10837 6.34242 5.78485 6.0189 5.78485 5.62914V4.23757C5.78485 4.11288 5.66742 4.02121 5.54798 4.05703C3.73197 4.60167 2.68213 6.07462 2.68213 8.2557V8.82498C2.68213 8.93101 2.76809 9.01698 2.87413 9.01698H18.859C18.9651 9.01698 19.051 8.93101 19.051 8.82498V8.2557Z" fill="#2C3750"/>
<path fill-rule="evenodd" clip-rule="evenodd" d="M18.9024 18.9396C18.768 19.1604 18.528 19.2852 18.288 19.2852C18.1632 19.2852 18.0288 19.2564 17.9136 19.1796L16.7424 18.4788C16.5312 18.3541 16.3968 18.1236 16.3968 17.8644V16.3572C16.3968 15.9636 16.7136 15.6372 17.1168 15.6372C17.5104 15.6372 17.8368 15.9636 17.8368 16.3572V17.4613L18.6528 17.9508C18.9984 18.1524 19.104 18.594 18.9024 18.9396ZM17.136 13.41C14.8224 13.41 12.9504 15.2916 12.9504 17.6052C12.9504 19.9092 14.8224 21.7908 17.136 21.7908C19.44 21.7908 21.3216 19.9092 21.3216 17.6052C21.3216 15.2916 19.44 13.41 17.136 13.41Z" fill="#2C3750"/>
<path fill-rule="evenodd" clip-rule="evenodd" d="M9.56163 14.4276C9.15843 14.4276 8.82243 14.0916 8.82243 13.6788C8.82243 13.266 9.15843 12.93 9.56163 12.93C9.97443 12.93 10.3104 13.266 10.3104 13.6788C10.3104 14.0916 9.97443 14.4276 9.56163 14.4276ZM6.02883 14.4276C5.61603 14.4276 5.28003 14.0916 5.28003 13.6788C5.28003 13.266 5.61603 12.93 6.02883 12.93C6.44163 12.93 6.77763 13.266 6.77763 13.6788C6.77763 14.0916 6.44163 14.4276 6.02883 14.4276ZM6.02883 17.6436C5.61603 17.6436 5.28003 17.3075 5.28003 16.8947C5.28003 16.4819 5.61603 16.1555 6.02883 16.1555C6.44163 16.1555 6.77763 16.4819 6.77763 16.8947C6.77763 17.3075 6.44163 17.6436 6.02883 17.6436Z" fill="#2C3750"/>
</svg>
