<svg width="24" height="24" viewBox="0 0 24 24" fill="none" xmlns="http://www.w3.org/2000/svg">
<g opacity="0.4">
<path fill-rule="evenodd" clip-rule="evenodd" d="M12.9966 16.7775L15.4734 14.0703L15.6366 13.8975L16.3374 13.1295C17.1413 12.2549 18.3517 11.9738 19.415 12.3085C19.5465 12.3499 19.6878 12.2564 19.6878 12.1187V10.9695C19.6878 10.8635 19.6019 10.7775 19.4958 10.7775H3.36778C3.26174 10.7775 3.17578 10.8635 3.17578 10.9695V16.3839C3.17578 19.2447 4.89418 20.9535 7.77418 20.9535H11.8669C12.0031 20.9535 12.0966 20.8152 12.0599 20.6841C11.9684 20.3569 11.9414 20.0101 11.979 19.6575L12.0654 18.8703C12.1518 18.0831 12.4686 17.3631 12.9966 16.7775Z" fill="#2C3750"/>
<path fill-rule="evenodd" clip-rule="evenodd" d="M19.4575 16.0093L19.0831 16.4125L17.9503 15.2797L18.2767 14.9149C18.3439 14.8477 18.4303 14.8093 18.5167 14.8093C18.6031 14.8093 18.6799 14.8381 18.7375 14.8957L19.4479 15.5485C19.5247 15.6253 19.5439 15.7213 19.5439 15.7789C19.5535 15.8269 19.5439 15.9229 19.4575 16.0093ZM16.1647 19.6093C16.0015 19.7917 15.7711 19.9165 15.5215 19.9645L14.7631 20.0893C14.7055 20.0989 14.6671 20.0701 14.6479 20.0509C14.6191 20.0317 14.5999 19.9933 14.5999 19.9357L14.6863 19.1485C14.7151 18.9277 14.8111 18.7069 14.9551 18.5437L16.9711 16.3357L18.1135 17.4781L16.1647 19.6093ZM20.4175 14.4925L19.7167 13.8397C19.0063 13.1773 17.8831 13.2253 17.2207 13.9357L16.4527 14.7805C16.4527 14.7805 16.4431 14.7805 16.4431 14.7901C16.4335 14.7901 16.4335 14.7997 16.4239 14.8093L13.8895 17.5741C13.5343 17.9773 13.3135 18.4669 13.2559 18.9949L13.1695 19.7821C13.1215 20.2813 13.2943 20.7613 13.6591 21.0973C13.9567 21.3757 14.3311 21.5293 14.7343 21.5293C14.8207 21.5293 14.9071 21.5197 14.9935 21.5101L15.7615 21.3757C16.3279 21.2797 16.8559 20.9917 17.2303 20.5693L20.5135 16.9885C20.8399 16.6429 21.0031 16.1917 20.9839 15.7213C20.9647 15.2509 20.7631 14.8093 20.4175 14.4925Z" fill="#2C3750"/>
</g>
<path fill-rule="evenodd" clip-rule="evenodd" d="M19.6878 8.56725C19.6878 7.21365 19.2846 6.08085 18.507 5.30325C17.8062 4.61205 16.8174 4.21845 15.6462 4.11285V3.19125C15.6462 2.79765 15.3198 2.47125 14.9262 2.47125C14.523 2.47125 14.2062 2.79765 14.2062 3.19125V6.59925C14.139 6.61845 14.0814 6.63765 14.0142 6.63765C13.611 6.63765 13.2942 6.31125 13.2942 5.91765V4.26645C13.2942 4.16041 13.2083 4.07445 13.1022 4.07445H8.65738V3.19125C8.65738 2.79765 8.34058 2.47125 7.93738 2.47125C7.54378 2.47125 7.21738 2.79765 7.21738 3.19125V6.59925C7.15978 6.61845 7.09258 6.63765 7.02538 6.63765C6.63178 6.63765 6.30538 6.31125 6.30538 5.91765V4.51178C6.30538 4.38706 6.18791 4.29538 6.06843 4.3312C4.23606 4.88059 3.17578 6.36608 3.17578 8.56725V9.14325C3.17578 9.24929 3.26174 9.33525 3.36778 9.33525H19.4958C19.6019 9.33525 19.6878 9.24929 19.6878 9.14325V8.56725Z" fill="#2C3750"/>
<path fill-rule="evenodd" clip-rule="evenodd" d="M19.4575 16.0066L19.0831 16.4098L17.9503 15.277L18.2767 14.9122C18.3439 14.845 18.4303 14.8066 18.5167 14.8066C18.6031 14.8066 18.6799 14.8354 18.7375 14.893L19.4479 15.5458C19.5247 15.6226 19.5439 15.7186 19.5439 15.7762C19.5535 15.8242 19.5439 15.9202 19.4575 16.0066ZM16.1647 19.6066C16.0015 19.789 15.7711 19.9138 15.5215 19.9618L14.7631 20.0866C14.7055 20.0962 14.6671 20.0674 14.6479 20.0482C14.6191 20.029 14.5999 19.9906 14.5999 19.933L14.6863 19.1458C14.7151 18.925 14.8111 18.7042 14.9551 18.541L16.9711 16.333L18.1135 17.4754L16.1647 19.6066ZM20.4175 14.4898L19.7167 13.837C19.0063 13.1746 17.8831 13.2226 17.2207 13.933L16.4527 14.7778C16.4527 14.7778 16.4431 14.7778 16.4431 14.7874C16.4335 14.7874 16.4335 14.797 16.4239 14.8066L13.8895 17.5714C13.5343 17.9746 13.3135 18.4642 13.2559 18.9922L13.1695 19.7794C13.1215 20.2786 13.2943 20.7586 13.6591 21.0946C13.9567 21.373 14.3311 21.5266 14.7343 21.5266C14.8207 21.5266 14.9071 21.517 14.9935 21.5074L15.7615 21.373C16.3279 21.277 16.8559 20.989 17.2303 20.5666L20.5135 16.9858C20.8399 16.6402 21.0031 16.189 20.9839 15.7186C20.9647 15.2482 20.7631 14.8066 20.4175 14.4898Z" fill="#2C3750"/>
<path fill-rule="evenodd" clip-rule="evenodd" d="M11.24 14.7792C10.8464 14.7792 10.52 14.4528 10.52 14.0496C10.52 13.6464 10.8464 13.32 11.24 13.32C11.6432 13.32 11.9696 13.6464 11.9696 14.0496C11.9696 14.4528 11.6432 14.7792 11.24 14.7792ZM7.69762 14.7792C7.29442 14.7792 6.96802 14.4528 6.96802 14.0496C6.96802 13.6464 7.29442 13.32 7.69762 13.32C8.10082 13.32 8.42722 13.6464 8.42722 14.0496C8.42722 14.4528 8.10082 14.7792 7.69762 14.7792ZM7.69762 18.0336C7.29442 18.0336 6.96802 17.7072 6.96802 17.304C6.96802 16.9008 7.29442 16.5744 7.69762 16.5744C8.10082 16.5744 8.42722 16.9008 8.42722 17.304C8.42722 17.7072 8.10082 18.0336 7.69762 18.0336Z" fill="#2C3750"/>
</svg>
