<svg width="24" height="24" viewBox="0 0 24 24" fill="none" xmlns="http://www.w3.org/2000/svg">
<path opacity="0.4" fill-rule="evenodd" clip-rule="evenodd" d="M17.7186 6.57744C17.3701 6.564 17.0456 6.41808 16.8124 6.17424C16.7701 6.1272 16.5992 5.91504 16.2008 5.16816C15.7429 4.31184 14.8559 3.78 13.8863 3.78H10.1308C9.17652 3.78 8.2962 4.29936 7.8354 5.13456C7.41588 5.89392 7.24212 6.1176 7.19508 6.16944C6.95412 6.42192 6.62964 6.56784 6.2994 6.58224C4.41588 6.58224 2.88276 8.1144 2.87988 9.99792V15.4142C2.87988 17.8526 4.86324 19.837 7.30164 19.837H16.6981C19.1365 19.837 21.1199 17.8526 21.1199 15.4142V9.996C21.1199 8.11056 19.5858 6.57744 17.7186 6.57744Z" fill="#2C3750"/>
<path d="M12.7219 13.5043H14.423C14.8205 13.5043 15.143 13.1818 15.143 12.7843C15.143 12.3869 14.8205 12.0643 14.423 12.0643H12.7219V10.3613C12.7219 9.96384 12.3994 9.64128 12.0019 9.64128C11.6045 9.64128 11.2819 9.96384 11.2819 10.3613V12.0643H9.57693C9.17949 12.0643 8.85693 12.3869 8.85693 12.7843C8.85693 13.1818 9.17949 13.5043 9.57693 13.5043H11.2819V15.2074C11.2819 15.6048 11.6045 15.9274 12.0019 15.9274C12.3994 15.9274 12.7219 15.6048 12.7219 15.2074V13.5043Z" fill="#2C3750"/>
</svg>
