<svg width="24" height="24" viewBox="0 0 24 24" fill="none" xmlns="http://www.w3.org/2000/svg">
<path opacity="0.4" fill-rule="evenodd" clip-rule="evenodd" d="M17.7186 6.57744C17.3701 6.564 17.0456 6.41808 16.8124 6.17424C16.7701 6.1272 16.5992 5.91504 16.2008 5.16816C15.7429 4.31184 14.8559 3.78 13.8863 3.78H10.1308C9.17652 3.78 8.2962 4.29936 7.8354 5.13456C7.41588 5.89392 7.24212 6.1176 7.19508 6.16944C6.95412 6.42096 6.62964 6.56784 6.2994 6.58224C4.41588 6.58224 2.88276 8.1144 2.87988 9.99792V15.4142C2.87988 17.8526 4.8642 19.837 7.30164 19.837H16.6981C19.1365 19.837 21.1199 17.8526 21.1199 15.4142V9.996C21.1199 8.11056 19.5858 6.57744 17.7186 6.57744Z" fill="#2C3750"/>
<path d="M16.9661 10.4997C17.3635 10.4997 17.6861 10.1772 17.6861 9.77971V9.72307C17.6861 9.32563 17.3635 9.03188 16.9661 9.03188C16.5687 9.03188 16.2461 9.38227 16.2461 9.77971C16.2461 10.1772 16.5687 10.4997 16.9661 10.4997Z" fill="#2C3750"/>
<path fill-rule="evenodd" clip-rule="evenodd" d="M11.9991 16.5583C9.96485 16.5583 8.30981 14.9032 8.30981 12.869C8.30981 10.8348 9.96485 9.17972 11.9991 9.17972C14.0333 9.17972 15.6884 10.8348 15.6884 12.869C15.6884 14.9032 14.0333 16.5583 11.9991 16.5583ZM9.74993 12.869C9.74993 11.6287 10.7589 10.6197 11.9992 10.6197C13.2395 10.6197 14.2485 11.6287 14.2485 12.869C14.2485 14.1093 13.2395 15.1183 11.9992 15.1183C10.7589 15.1183 9.74993 14.1093 9.74993 12.869Z" fill="#2C3750"/>
</svg>
