<svg width="24" height="24" viewBox="0 0 24 24" fill="none" xmlns="http://www.w3.org/2000/svg">
<path opacity="0.4" fill-rule="evenodd" clip-rule="evenodd" d="M11.9527 13.6006C11.4055 13.6006 10.9639 13.159 10.9639 12.6118C10.9639 12.0646 11.4055 11.6134 11.9527 11.6134C12.4999 11.6134 12.9511 12.0646 12.9511 12.6118C12.9511 13.159 12.4999 13.6006 11.9527 13.6006ZM7.45991 13.6006C6.91271 13.6006 6.46151 13.159 6.46151 12.6118C6.46151 12.0646 6.91271 11.6134 7.45991 11.6134C8.00711 11.6134 8.44871 12.0646 8.44871 12.6118C8.44871 13.159 8.00711 13.6006 7.45991 13.6006ZM13.6135 6.73663H6.09671C4.34951 6.73663 2.92871 8.15743 2.92871 9.9046V15.0406C2.92871 16.7782 4.34951 18.199 6.09671 18.199H6.88391C7.24871 18.199 7.59431 18.343 7.85351 18.6022L8.90951 19.6582C9.15911 19.9078 9.49511 20.0518 9.85033 20.0518C10.2055 20.0518 10.5415 19.9078 10.8007 19.6582L11.8567 18.6022C12.1063 18.343 12.4519 18.199 12.8167 18.199H13.6135C15.3511 18.199 16.7719 16.7782 16.7719 15.0406V9.9046C16.7719 8.15743 15.3511 6.73663 13.6135 6.73663Z" fill="#2C3750"/>
<path fill-rule="evenodd" clip-rule="evenodd" d="M11.9527 13.6007C11.4055 13.6007 10.9639 13.1591 10.9639 12.6119C10.9639 12.0647 11.4055 11.6135 11.9527 11.6135C12.4999 11.6135 12.9511 12.0647 12.9511 12.6119C12.9511 13.1591 12.4999 13.6007 11.9527 13.6007ZM7.45983 13.6007C6.91263 13.6007 6.46143 13.1591 6.46143 12.6119C6.46143 12.0647 6.91263 11.6135 7.45983 11.6135C8.00703 11.6135 8.44863 12.0647 8.44863 12.6119C8.44863 13.1591 8.00703 13.6007 7.45983 13.6007Z" fill="#2C3750"/>
<path fill-rule="evenodd" clip-rule="evenodd" d="M17.5303 3.06938H10.0135C8.58961 3.06938 7.37995 4.01182 6.99151 5.30585C6.9563 5.42317 7.04766 5.53658 7.17016 5.53658H13.6135C16.0135 5.53658 17.9719 7.49498 17.9719 9.90461V14.2732C17.9719 14.3896 18.075 14.4797 18.1889 14.4557C19.6177 14.1553 20.6887 12.8815 20.6887 11.3638V6.22778C20.6887 4.49018 19.2679 3.06938 17.5303 3.06938Z" fill="#2C3750"/>
</svg>
