<svg width="24" height="24" viewBox="0 0 24 24" fill="none" xmlns="http://www.w3.org/2000/svg">
<path opacity="0.4" fill-rule="evenodd" clip-rule="evenodd" d="M13.5321 17.7773C13.5321 15.1459 15.6643 13.0128 18.2957 13.0128C19.0776 13.0128 19.8103 13.2087 20.4596 13.5444C20.6393 13.6374 20.8656 13.539 20.8956 13.3389C20.9612 12.902 20.9971 12.4551 20.9971 12C20.9971 6.97152 16.9056 2.88 11.8771 2.88C6.8486 2.88 2.75708 6.97152 2.75708 12C2.75708 17.0285 6.8486 21.12 11.8771 21.12C12.6675 21.12 13.4346 21.0189 14.1664 20.8288C14.3621 20.7779 14.4355 20.5427 14.324 20.3742C13.8294 19.6273 13.5321 18.7403 13.5321 17.7773Z" fill="#2C3750"/>
<path fill-rule="evenodd" clip-rule="evenodd" d="M18.6878 20.9267C18.2904 20.9267 17.9678 20.6051 17.9678 20.2067V18.6515H16.4126C16.0152 18.6515 15.6926 18.3289 15.6926 17.9315C15.6926 17.534 16.0152 17.2115 16.4126 17.2115H17.9678L17.9669 15.6591C17.9669 15.2617 18.2885 14.9391 18.6869 14.9391C19.0843 14.9391 19.4069 15.2617 19.4069 15.6591L19.4078 17.2124H20.9611C21.3585 17.2124 21.6811 17.535 21.6811 17.9324C21.6811 18.3299 21.3585 18.6524 20.9611 18.6524H19.4078V20.2067C19.4078 20.6041 19.0862 20.9267 18.6878 20.9267Z" fill="#2C3750"/>
<path d="M12.912 12.6433C12.912 12.8967 12.7786 13.131 12.5616 13.2615L9.51363 15.0855C9.39843 15.1547 9.27075 15.1873 9.14499 15.1873C8.90019 15.1873 8.66115 15.0635 8.52675 14.8379C8.32227 14.4961 8.43363 14.0545 8.77443 13.85L11.472 12.2353V8.71688C11.472 8.31944 11.7946 7.99688 12.192 7.99688C12.5895 7.99688 12.912 8.31944 12.912 8.71688V12.6433Z" fill="#2C3750"/>
</svg>
