<svg width="24" height="24" viewBox="0 0 24 24" fill="none" xmlns="http://www.w3.org/2000/svg">
<path fill-rule="evenodd" clip-rule="evenodd" d="M21.0724 7.91805C20.6759 7.86045 20.313 8.13405 20.2564 8.52765L19.3703 14.6534C19.3021 15.1219 18.8922 15.4762 18.416 15.4762H8.22661C7.72645 15.4762 7.30309 15.0864 7.26181 14.5891L6.36229 3.87549C6.33445 3.54909 6.09061 3.28221 5.76709 3.22653L3.82405 2.89053C3.43333 2.82141 3.05989 3.08541 2.99269 3.47805C2.92453 3.86973 3.18757 4.24221 3.57925 4.31037L4.97413 4.55133L5.82661 14.7091C5.92933 15.9466 6.98341 16.9162 8.22661 16.9162H18.416C19.6045 16.9162 20.6269 16.031 20.7949 14.8589L21.682 8.73405C21.7386 8.34045 21.466 7.97469 21.0724 7.91805Z" fill="#2C3750"/>
<path fill-rule="evenodd" clip-rule="evenodd" d="M7.81848 18.7587C7.16664 18.7587 6.63672 19.2886 6.63672 19.9385C6.63672 20.5904 7.16664 21.1203 7.81848 21.1203C8.47032 21.1203 9.0012 20.5904 9.0012 19.9385C9.0012 19.2886 8.47032 18.7587 7.81848 18.7587Z" fill="#2C3750"/>
<path fill-rule="evenodd" clip-rule="evenodd" d="M18.4015 18.7587C17.7496 18.7587 17.2197 19.2886 17.2197 19.9385C17.2197 20.5904 17.7496 21.1203 18.4015 21.1203C19.0533 21.1203 19.5842 20.5904 19.5842 19.9385C19.5842 19.2886 19.0533 18.7587 18.4015 18.7587Z" fill="#2C3750"/>
<path opacity="0.4" fill-rule="evenodd" clip-rule="evenodd" d="M11.3471 13.0036L15.2927 13.0132C16.8959 13.0132 18.0095 11.8612 18.0191 10.2004V6.4852C18.0287 4.7956 16.9343 3.6532 15.3119 3.634H11.3759C10.6463 3.6244 9.93589 3.8836 9.44629 4.3732C8.93749 4.882 8.64949 5.6212 8.64949 6.4564L8.63989 10.1716C8.63989 11.0068 8.91829 11.746 9.42709 12.2548C9.91669 12.7444 10.5791 13.0036 11.3471 13.0036Z" fill="#2C3750"/>
<path d="M12.5857 6.19688C12.1921 6.19688 11.8657 6.52328 11.8657 6.91688C11.8657 7.32008 12.1921 7.63688 12.5857 7.63688H14.0737C14.4673 7.63688 14.7937 7.32008 14.7937 6.91688C14.7937 6.52328 14.4673 6.19688 14.0737 6.19688H12.5857Z" fill="#2C3750"/>
</svg>
