<svg width="24" height="24" viewBox="0 0 24 24" fill="none" xmlns="http://www.w3.org/2000/svg">
<g opacity="0.4">
<path fill-rule="evenodd" clip-rule="evenodd" d="M11.3276 7.45453C11.4867 7.45453 11.6156 7.32558 11.6156 7.16653V3.18253C11.6156 3.02347 11.4867 2.89453 11.3276 2.89453H7.43671C6.13879 2.89453 4.98871 3.67597 4.50775 4.88653L3.69559 6.91117C3.67235 6.96894 3.65014 7.02734 3.62882 7.08621C3.56307 7.26782 3.70213 7.45453 3.89528 7.45453H11.3276Z" fill="#2C3750"/>
<path fill-rule="evenodd" clip-rule="evenodd" d="M13.0557 7.16653C13.0557 7.32558 13.1846 7.45453 13.3437 7.45453H20.7864C20.9796 7.45453 21.1184 7.26781 21.052 7.08636C21.0293 7.0242 21.0055 6.96229 20.9805 6.90061L20.1664 4.87597C19.6854 3.67309 18.5363 2.89453 17.2393 2.89453H13.3437C13.1846 2.89453 13.0557 3.02347 13.0557 3.18253V7.16653Z" fill="#2C3750"/>
<path fill-rule="evenodd" clip-rule="evenodd" d="M3.51725 8.89478C3.3662 8.89478 3.23903 9.01137 3.23171 9.16223C3.22891 9.21997 3.22713 9.27769 3.22713 9.33542L3.21561 16.7169C3.20793 19.449 4.62393 21.0858 7.00281 21.0964L17.6885 21.105C18.7637 21.105 19.6373 20.7806 20.2824 20.1393C21.038 19.3895 21.4383 18.2202 21.4421 16.7582L21.4556 9.35558C21.4556 9.29123 21.4537 9.22705 21.4509 9.16304C21.444 9.01185 21.317 8.89478 21.1657 8.89478H3.51725Z" fill="#2C3750"/>
</g>
<path d="M7.63455 13.2468H8.78367C9.18111 13.2468 9.50367 13.5693 9.50367 13.9668C9.50367 14.3642 9.18111 14.6868 8.78367 14.6868H7.63455C7.23711 14.6868 6.91455 14.3642 6.91455 13.9668C6.91455 13.5693 7.23711 13.2468 7.63455 13.2468Z" fill="#2C3750"/>
<path d="M10.5107 17.4132H7.63455C7.23711 17.4132 6.91455 17.0906 6.91455 16.6932C6.91455 16.2958 7.23711 15.9732 7.63455 15.9732H10.5107C10.9081 15.9732 11.2307 16.2958 11.2307 16.6932C11.2307 17.0906 10.9081 17.4132 10.5107 17.4132Z" fill="#2C3750"/>
<path fill-rule="evenodd" clip-rule="evenodd" d="M18.5007 14.4755C18.5007 15.2954 17.8335 15.9635 17.0137 15.9635H15.0342C14.2143 15.9635 13.5481 15.2954 13.5481 14.4755V12.498C13.5481 11.6772 14.2143 11.01 15.0342 11.01H17.0137C17.8335 11.01 18.5007 11.6772 18.5007 12.498V14.4755ZM15.034 14.5236L14.9879 14.4756L15.034 12.45L17.0605 12.498L17.0135 14.5236H15.034Z" fill="#2C3750"/>
</svg>
