<svg width="24" height="24" viewBox="0 0 24 24" fill="none" xmlns="http://www.w3.org/2000/svg">
<g opacity="0.4">
<path fill-rule="evenodd" clip-rule="evenodd" d="M19.1611 12.48L15.1195 12.4704C13.7083 12.4704 12.8251 13.4688 12.8251 14.88L12.8155 18.6912C12.8059 20.1024 13.6891 21.1104 15.1003 21.1104L19.1419 21.12C20.5627 21.12 21.4459 20.1312 21.4459 18.7104L21.4555 14.8992C21.4555 13.488 20.5819 12.4896 19.1611 12.48Z" fill="#2C3750"/>
<path fill-rule="evenodd" clip-rule="evenodd" d="M9.57078 12.48L5.52918 12.4704C4.10838 12.4704 3.22518 13.4688 3.22518 14.88L3.21558 18.6912C3.21558 20.1024 4.09878 21.1104 5.50038 21.1104L9.55158 21.12C10.9628 21.12 11.846 20.1312 11.8556 18.7104V14.8992C11.8652 13.488 10.982 12.4896 9.57078 12.48Z" fill="#2C3750"/>
<path fill-rule="evenodd" clip-rule="evenodd" d="M10.3003 11.52L14.3515 11.5296C15.7627 11.5296 16.6459 10.5312 16.6459 9.12L16.6555 5.3088C16.6555 3.89761 15.7819 2.8896 14.3611 2.8896L10.3195 2.88C8.90826 2.88 8.02506 3.86881 8.02506 5.28961L8.01546 9.1008C8.00586 10.512 8.88906 11.5104 10.3003 11.52Z" fill="#2C3750"/>
</g>
<path d="M16.1756 16.08H18.0956C18.4892 16.08 18.8156 15.7632 18.8156 15.36C18.8156 14.9664 18.4892 14.64 18.0956 14.64H16.1756C15.7724 14.64 15.4556 14.9664 15.4556 15.36C15.4556 15.7632 15.7724 16.08 16.1756 16.08Z" fill="#2C3750"/>
<path d="M6.57571 16.08H8.49571C8.89891 16.08 9.21571 15.7632 9.21571 15.36C9.21571 14.9664 8.89891 14.64 8.49571 14.64H6.57571C6.18211 14.64 5.85571 14.9664 5.85571 15.36C5.85571 15.7632 6.18211 16.08 6.57571 16.08Z" fill="#2C3750"/>
<path d="M13.2955 5.03999H11.3755C10.9723 5.03999 10.6555 5.36639 10.6555 5.75999C10.6555 6.16319 10.9723 6.47999 11.3755 6.47999H13.2955C13.6891 6.47999 14.0155 6.16319 14.0155 5.75999C14.0155 5.36639 13.6891 5.03999 13.2955 5.03999Z" fill="#2C3750"/>
</svg>
