<svg width="24" height="24" viewBox="0 0 24 24" fill="none" xmlns="http://www.w3.org/2000/svg">
<path fill-rule="evenodd" clip-rule="evenodd" d="M9.59325 14.4152C4.81341 14.4152 2.67261 17.059 2.67261 19.6798C2.67261 19.8708 2.74845 20.0542 2.88381 20.1896C3.01821 20.324 3.20157 20.3998 3.39261 20.3998L15.7939 20.3825C16.1914 20.3816 16.513 20.059 16.513 19.6625C16.513 17.0504 14.3731 14.4152 9.59325 14.4152Z" fill="#2C3750"/>
<path fill-rule="evenodd" clip-rule="evenodd" d="M9.59309 12.9611C12.1736 12.9611 14.2731 10.8607 14.2731 8.28019C14.2731 5.69971 12.1736 3.60019 9.59309 3.60019C7.01261 3.60019 4.91309 5.69971 4.91309 8.28019C4.91309 10.8607 7.01261 12.9611 9.59309 12.9611Z" fill="#2C3750"/>
<g opacity="0.4">
<path fill-rule="evenodd" clip-rule="evenodd" d="M20.3672 19.6449C19.8363 19.6449 19.4072 19.2148 19.4072 18.6849C19.4072 17.9687 19.1509 16.2513 16.7854 15.7665C16.2661 15.6599 15.931 15.153 16.0376 14.6337C16.1441 14.1143 16.6453 13.7783 17.1713 13.8858C20.2347 14.5137 21.3272 16.7764 21.3272 18.6849C21.3272 19.2148 20.8981 19.6449 20.3672 19.6449Z" fill="#2C3750"/>
<path fill-rule="evenodd" clip-rule="evenodd" d="M16.5272 12.5031C16.1384 12.5031 15.7717 12.2641 15.6277 11.8782C15.4424 11.3819 15.6949 10.8279 16.1912 10.6436C16.9669 10.3547 17.4709 9.62893 17.4776 8.79661C17.4776 7.86637 16.8142 7.04941 15.9003 6.86029C15.381 6.75277 15.0469 6.24397 15.1544 5.72461C15.2629 5.20525 15.7707 4.87021 16.2901 4.98061C18.091 5.35405 19.3976 6.96205 19.3976 8.80333C19.3861 10.4219 18.3666 11.8811 16.8632 12.4427C16.7518 12.483 16.6386 12.5031 16.5272 12.5031Z" fill="#2C3750"/>
</g>
</svg>
