<svg width="24" height="24" viewBox="0 0 24 24" fill="none" xmlns="http://www.w3.org/2000/svg">
<path opacity="0.4" fill-rule="evenodd" clip-rule="evenodd" d="M20.6258 7.18104C19.973 5.56824 18.7154 4.38744 17.0834 3.85944C16.1906 3.57144 15.221 3.50424 14.2802 3.66744C13.4258 3.81144 12.6482 4.32024 11.9954 4.80024C11.3714 4.33944 10.5746 3.82104 9.71065 3.67704C8.77949 3.52344 7.81949 3.58104 6.91709 3.85944C3.33629 5.02104 2.23229 8.93784 3.24029 12.0579C4.79549 17.0595 11.5154 20.2371 11.7938 20.3715C11.861 20.4003 11.9282 20.4195 11.9954 20.4195C12.0722 20.4195 12.1394 20.4003 12.197 20.3715C12.485 20.2467 19.0994 17.1171 20.7506 12.0579C21.2786 10.4163 21.2306 8.67864 20.6258 7.18104Z" fill="#2C3750"/>
<path fill-rule="evenodd" clip-rule="evenodd" d="M17.6498 10.3974H17.5922C17.2274 10.3974 16.9106 10.1094 16.8818 9.735C16.8242 9.0054 16.325 8.3814 15.6338 8.151C15.2498 8.0262 15.0482 7.623 15.1634 7.2486C15.2882 6.8646 15.701 6.663 16.0754 6.7878C17.333 7.191 18.2066 8.3046 18.3122 9.6198C18.341 10.0134 18.053 10.359 17.6498 10.3974Z" fill="#2C3750"/>
</svg>
