<svg width="24" height="24" viewBox="0 0 24 24" fill="none" xmlns="http://www.w3.org/2000/svg">
<path opacity="0.4" d="M19.7726 7.62575L14.9227 3.66095C13.2677 2.30639 10.8657 2.30735 9.21166 3.66095L4.35886 7.62671C3.07726 8.67887 2.47534 10.3426 2.7883 11.9669L3.88366 17.6885C4.2907 19.813 6.1531 21.3547 8.31214 21.3547H8.55886H15.5765H15.8203C17.9803 21.3547 19.8427 19.813 20.2497 17.6885L21.347 11.9669C21.6581 10.3426 21.0552 8.67887 19.7726 7.62575Z" fill="#2C3750"/>
<path d="M8.84684 17.4186V21.0666C8.84684 21.2257 8.71789 21.3546 8.55884 21.3546L10.5749 21.3543C10.4158 21.3543 10.2869 21.2254 10.2869 21.0663V17.4183C10.2869 16.4391 11.0856 15.6423 12.0677 15.6423C13.0498 15.6423 13.8485 16.4391 13.8485 17.4183V21.0663C13.8485 21.2254 13.7196 21.3543 13.5605 21.3543L15.5764 21.3546C15.4173 21.3546 15.2884 21.2257 15.2884 21.0666V17.4186C15.2884 15.6455 13.8436 14.2026 12.0676 14.2026C10.2916 14.2026 8.84684 15.6455 8.84684 17.4186Z" fill="#2C3750"/>
</svg>
