<svg width="24" height="24" viewBox="0 0 24 24" fill="none" xmlns="http://www.w3.org/2000/svg">
<path opacity="0.4" fill-rule="evenodd" clip-rule="evenodd" d="M21.3033 9.40969L14.0764 3.68713C12.8937 2.75593 11.2415 2.75785 10.0569 3.68905L2.83191 9.40969C2.41623 9.73897 2.34519 10.3429 2.67447 10.7595C3.00375 11.1742 3.60759 11.2433 4.02327 10.916L4.14423 10.82V17.3537C4.14423 19.3697 5.78679 21.0104 7.80567 21.0104H16.3295C18.3484 21.0104 19.991 19.3697 19.991 17.3537V10.82L20.1119 10.916C20.2876 11.0552 20.4978 11.1233 20.7071 11.1233C20.9903 11.1233 21.2706 10.9985 21.4607 10.7595C21.789 10.3429 21.719 9.73897 21.3033 9.40969Z" fill="#2C3750"/>
<path fill-rule="evenodd" clip-rule="evenodd" d="M10.0569 3.68907C11.2353 2.75749 12.8993 2.75749 14.0777 3.68907L21.3032 9.40867C21.7189 9.73775 21.7891 10.3415 21.46 10.7572C21.131 11.173 20.5272 11.2431 20.1114 10.914L12.8871 5.19527C12.8871 5.19525 12.8871 5.19529 12.8871 5.19527C12.4066 4.8155 11.7281 4.81545 11.2477 5.19521C11.2477 5.19519 11.2477 5.19523 11.2477 5.19521L4.02317 10.914C3.60746 11.2431 3.00369 11.173 2.67462 10.7572C2.34554 10.3415 2.41577 9.73775 2.83148 9.40867L10.0569 3.68907Z" fill="#2C3750"/>
<path fill-rule="evenodd" clip-rule="evenodd" d="M14.1996 16.2924H9.93437C9.53692 16.2924 9.21436 15.9698 9.21436 15.5724C9.21436 15.1749 9.53692 14.8524 9.93437 14.8524H14.1996C14.5971 14.8524 14.9196 15.1749 14.9196 15.5724C14.9196 15.9698 14.5971 16.2924 14.1996 16.2924Z" fill="#2C3750"/>
</svg>
