<svg width="24" height="24" viewBox="0 0 24 24" fill="none" xmlns="http://www.w3.org/2000/svg">
<path opacity="0.4" fill-rule="evenodd" clip-rule="evenodd" d="M12.8222 4.27533C12.8108 3.68418 12.3655 3.15187 11.7742 3.15187H7.83187C4.79635 3.15187 2.75635 5.28115 2.75635 8.45203V14.4624C2.75635 14.6192 2.93418 14.7099 3.06111 14.6178L6.27955 12.2824C8.08435 10.9701 10.518 11.0824 12.198 12.558L14.9537 15.0311C15.0181 15.0888 15.1129 15.0965 15.1858 15.0501C15.6234 14.772 16.2205 14.4078 16.9125 14.0325C18.4578 13.1979 19.7348 13.645 20.6812 14.2796C20.8132 14.3681 20.9964 14.2766 20.9964 14.1177V11.6563C20.9964 11.0205 20.3861 10.5637 19.7524 10.6149C19.588 10.6282 19.4219 10.6351 19.254 10.6351C15.7072 10.6351 12.8878 7.67274 12.8222 4.27533Z" fill="#2C3750"/>
<path fill-rule="evenodd" clip-rule="evenodd" d="M20.5238 4.42668H19.0521V2.955C19.0521 2.55756 18.7295 2.235 18.3321 2.235C17.9346 2.235 17.6121 2.55756 17.6121 2.955V4.42573H16.1394C15.742 4.42573 15.4194 4.74829 15.4194 5.14573C15.4194 5.54317 15.741 5.86573 16.1394 5.86573H17.613V7.34028C17.613 7.73772 17.9356 8.06028 18.333 8.06028C18.7305 8.06028 19.053 7.73772 19.053 7.34028V5.86668H20.5238C20.9212 5.86668 21.2438 5.54413 21.2438 5.14668C21.2438 4.74924 20.9222 4.42668 20.5238 4.42668Z" fill="#2C3750"/>
<path fill-rule="evenodd" clip-rule="evenodd" d="M7.2196 13.3938L3.06664 16.4082L3.06351 16.4105C2.95435 16.4878 2.86291 16.599 2.87751 16.7319C3.17908 19.4769 5.10323 21.2821 7.88776 21.2821H15.9863C17.0082 21.2821 17.9144 21.0356 18.6696 20.5912C18.8294 20.4972 18.8428 20.2766 18.7047 20.1528L11.3821 13.5829C10.2042 12.549 8.49064 12.4703 7.2196 13.3938Z" fill="#2C3750"/>
<path fill-rule="evenodd" clip-rule="evenodd" d="M17.7889 15.2613C17.3813 15.4829 17.0021 15.704 16.6738 15.9027C16.5096 16.002 16.4897 16.2313 16.6324 16.3594L19.7624 19.1683C19.8884 19.2814 20.0849 19.2623 20.177 19.1203C20.6734 18.3552 20.9733 17.4177 21.029 16.343C21.0334 16.2591 20.9992 16.178 20.937 16.1217C19.9265 15.2053 19.0325 14.5935 17.7889 15.2613Z" fill="#2C3750"/>
</svg>
