<svg width="24" height="24" viewBox="0 0 24 24" fill="none" xmlns="http://www.w3.org/2000/svg">
<path opacity="0.4" d="M10.9537 2.88C13.0745 2.88 14.7937 4.59923 14.7937 6.72V16.8C14.7937 18.9207 13.0745 20.64 10.9537 20.64H6.60001C4.47924 20.64 2.76001 18.9207 2.76001 16.8V6.72C2.76001 4.59923 4.47924 2.88 6.60001 2.88H10.9537Z" fill="#2C3750"/>
<path fill-rule="evenodd" clip-rule="evenodd" d="M18.7728 12.4797L17.352 13.9005C17.0736 14.1789 17.0736 14.6301 17.352 14.9181C17.6304 15.1965 18.0912 15.1965 18.3696 14.9181L21.0288 12.2685C21.0768 12.2205 21.1152 12.1725 21.144 12.1149C21.1536 12.1149 21.1536 12.1149 21.1536 12.1053C21.1632 12.0765 21.1824 12.0573 21.192 12.0285C21.2208 11.9517 21.24 11.8653 21.24 11.7789V11.7405C21.24 11.6541 21.2208 11.5677 21.192 11.4909C21.1632 11.4333 21.1344 11.3853 21.1056 11.3373C21.0768 11.3085 21.0576 11.2797 21.0288 11.2509L18.3696 8.6013C18.0912 8.3229 17.6304 8.3229 17.352 8.6013C17.0736 8.8893 17.0736 9.3405 17.352 9.62851L18.7728 11.0397H9.7969C9.39925 11.0397 9.0769 11.3621 9.0769 11.7597C9.0769 12.1573 9.39926 12.4797 9.7969 12.4797H18.7728Z" fill="#2C3750"/>
</svg>
