<svg width="24" height="24" viewBox="0 0 24 24" fill="none" xmlns="http://www.w3.org/2000/svg">
<g opacity="0.4">
<path d="M2.27181 7.44629C2.25727 7.63714 2.25 7.83181 2.25 8.02978V15.9698C2.25 19.1498 4.13 21.3698 7 21.6998C7.00397 21.6998 7.00794 21.7002 7.01191 21.7008L9.41506 8.92499L2.27181 7.44629Z" fill="#2C3750"/>
<path d="M9.01978 21.7498H16.2199C19.5299 21.7498 21.7499 19.4298 21.7499 15.9698V11.4642L11.3537 9.32064L9.01978 21.7498Z" fill="#2C3750"/>
</g>
<path d="M7.77998 2.25H16.22C19.53 2.25 21.75 4.57 21.75 8.03V9.43468L10.7735 7.18431L2.71411 5.51686C3.5202 3.49551 5.35947 2.25 7.77998 2.25Z" fill="#2C3750"/>
</svg>
