<svg width="24" height="24" viewBox="0 0 24 24" fill="none" xmlns="http://www.w3.org/2000/svg">
<path opacity="0.4" fill-rule="evenodd" clip-rule="evenodd" d="M3.16788 10.635C3.00882 10.635 2.87988 10.7639 2.87988 10.923V15.1566C2.87988 17.8379 4.60212 19.6398 7.16532 19.6398H16.8325C19.3967 19.6398 21.1199 17.8379 21.1199 15.1566V10.923C21.1199 10.7639 20.991 10.635 20.8319 10.635H3.16788Z" fill="#2C3750"/>
<path fill-rule="evenodd" clip-rule="evenodd" d="M20.8319 9.19588C20.991 9.19588 21.1199 9.06695 21.1199 8.90788V8.84068C21.1199 6.1594 19.3976 4.35748 16.8335 4.35748H7.16532C4.60212 4.35748 2.87988 6.1594 2.87988 8.84068V8.90788C2.87988 9.06695 3.00882 9.19588 3.16788 9.19588H20.8319Z" fill="#2C3750"/>
<path fill-rule="evenodd" clip-rule="evenodd" d="M10.4648 17.174C10.0578 17.174 9.68053 17.0588 9.34836 16.8736C9.0114 17.0569 8.63412 17.1635 8.23668 17.1635C6.96084 17.1635 5.92212 16.1257 5.92212 14.8508C5.92212 13.575 6.96084 12.5372 8.23668 12.5372C8.6322 12.5372 9.01236 12.6457 9.35412 12.8339C9.68533 12.6505 10.0607 12.5372 10.4648 12.5372C11.7426 12.5372 12.7813 13.575 12.7813 14.8508C12.7813 16.1315 11.7426 17.174 10.4648 17.174ZM8.31818 13.9936C8.21162 14.2585 8.14922 14.5475 8.14922 14.8508C8.14922 15.1542 8.21162 15.4432 8.31722 15.7091C8.28938 15.711 8.26538 15.7235 8.23658 15.7235C7.75466 15.7235 7.36202 15.3318 7.36202 14.8508C7.36202 14.3689 7.75466 13.9772 8.23658 13.9772C8.26538 13.9772 8.29034 13.9907 8.31818 13.9936ZM9.5893 14.8508C9.5893 14.3689 9.98197 13.9772 10.4648 13.9772C10.9477 13.9772 11.3413 14.3689 11.3413 14.8508C11.3413 15.3376 10.9477 15.734 10.4648 15.734C10.2344 15.734 10.028 15.64 9.87157 15.4921C9.87157 15.4921 9.87061 15.4892 9.86869 15.4883C9.86197 15.4806 9.85141 15.4787 9.84373 15.471C9.68629 15.3116 9.5893 15.0928 9.5893 14.8508Z" fill="#2C3750"/>
</svg>
