<svg width="24" height="24" viewBox="0 0 24 24" fill="none" xmlns="http://www.w3.org/2000/svg">
<path opacity="0.4" d="M22.0002 11.9998C22.0002 17.5238 17.5232 21.9998 12.0002 21.9998C6.47724 21.9998 2.00024 17.5238 2.00024 11.9998C2.00024 6.4778 6.47724 1.9998 12.0002 1.9998C17.5232 1.9998 22.0002 6.4778 22.0002 11.9998Z" fill="#2C3750"/>
<path d="M7.52124 10.8035C8.18224 10.8035 8.71924 11.3405 8.71924 11.9995C8.71924 12.6595 8.18224 13.1975 7.52124 13.1975C6.86024 13.1975 6.32324 12.6595 6.32324 11.9995C6.32324 11.3405 6.86024 10.8035 7.52124 10.8035ZM12.0003 10.8035C12.6613 10.8035 13.1983 11.3405 13.1983 11.9995C13.1983 12.6595 12.6613 13.1975 12.0003 13.1975C11.3393 13.1975 10.8023 12.6595 10.8023 11.9995C10.8023 11.3405 11.3393 10.8035 12.0003 10.8035ZM16.4797 10.8035C17.1407 10.8035 17.6777 11.3405 17.6777 11.9995C17.6777 12.6595 17.1407 13.1975 16.4797 13.1975C15.8187 13.1975 15.2817 12.6595 15.2817 11.9995C15.2817 11.3405 15.8187 10.8035 16.4797 10.8035Z" fill="#2C3750"/>
</svg>
