<svg width="24" height="24" viewBox="0 0 24 24" fill="none" xmlns="http://www.w3.org/2000/svg">
<g opacity="0.4">
<path d="M16.1955 17.2589C16.3539 18.0336 17.0374 18.6173 17.8553 18.6173C18.7894 18.6173 19.5497 17.8551 19.5497 16.9171C19.5497 16.1914 19.0726 15.5511 18.4016 15.3216L19.4557 14.2407C20.3753 14.7936 20.9897 15.7978 20.9897 16.9171C20.9897 18.649 19.5833 20.0573 17.8553 20.0573C16.3193 20.0573 15.0435 18.9427 14.7776 17.4797L16.1955 17.2589Z" fill="#2C3750"/>
<path d="M17.309 17.4067L16.78 16.7904L17.8495 15.8265L18.4015 16.4678C18.6607 16.7693 18.6261 17.2243 18.3247 17.4835C18.1884 17.5997 18.0213 17.6573 17.8552 17.6573C17.6527 17.6573 17.452 17.5728 17.309 17.4067Z" fill="#2C3750"/>
<path d="M6.12592 17.4797C6.364 18.1469 6.9832 18.6173 7.71472 18.6173C8.45104 18.6173 9.07312 18.1402 9.3064 17.4797H10.7925C10.5256 18.9427 9.25072 20.0573 7.71472 20.0573C6.17872 20.0573 4.90288 18.9427 4.63696 17.4797H6.12592Z" fill="#2C3750"/>
<path fill-rule="evenodd" clip-rule="evenodd" d="M5.37604 9.73191H8.90884C9.93605 9.72231 10.5792 9.00231 10.5792 7.97511L10.5696 5.69992C10.5696 4.67272 9.92645 3.94312 8.89924 3.94312L5.36644 3.95272C4.33924 3.95272 3.69604 4.68232 3.69604 5.70952L3.70564 7.98471C3.70564 9.01191 4.34884 9.74151 5.37604 9.73191Z" fill="#2C3750"/>
</g>
<path fill-rule="evenodd" clip-rule="evenodd" d="M5 6.77037C5 5.53898 5.99824 4.54074 7.22962 4.54074C8.46101 4.54074 9.45925 5.53898 9.45925 6.77037C9.45925 8.00176 8.46101 9 7.22962 9C5.99824 9 5 8.00176 5 6.77037ZM8.03087 6.88783C8.02897 6.35623 7.62545 6.0235 7.23906 6.02541C6.76132 6.02733 6.47962 6.42124 6.47962 6.78074C6.47962 7.14024 6.67567 7.4003 7.10393 7.50548C7.10583 7.5093 7.10583 7.51886 7.10583 7.52842C7.10773 7.79996 6.90407 8.03899 6.64712 8.09253C6.66996 8.10018 6.70993 8.104 6.74799 8.104C7.04111 8.10209 7.36469 7.9778 7.60071 7.78084C7.84244 7.58005 8.03277 7.23968 8.03087 6.88783Z" fill="white"/>
<path fill-rule="evenodd" clip-rule="evenodd" d="M16.5121 17.0376C16.4161 17.124 16.3105 17.2008 16.1953 17.2584L14.7774 17.4792H3.69607C3.30247 17.4792 2.97607 17.1624 2.97607 16.7592V14.3592C2.97607 12.2472 4.69447 10.5192 6.81607 10.5192H8.58247C9.63847 10.5192 10.5889 11.1144 11.0593 12.0658L11.6929 13.3416C11.8273 13.62 12.0961 13.7832 12.4033 13.7832H13.3249C13.5649 13.7832 13.7665 13.6008 13.7761 13.3608L13.7185 9.2136C13.7089 8.6472 13.9201 8.1192 14.3041 7.72656C14.6679 7.35216 15.1556 7.13232 15.6826 7.10256L15.387 6.36912C15.3284 6.22512 15.0836 6.06 14.9271 6.06H12.961C12.5636 6.06 12.241 5.73744 12.241 5.34C12.241 4.94256 12.5636 4.62 12.961 4.62H14.9271C15.6721 4.62 16.443 5.14032 16.7214 5.83056L17.2743 7.19952L17.2769 7.20261C17.2782 7.20407 17.2801 7.2072 17.2801 7.2072L17.3857 7.48656C17.4145 7.524 17.4337 7.572 17.4529 7.6296L17.4625 7.6488C17.8369 7.1496 18.3937 6.7752 18.9697 6.6408C19.2001 6.5928 19.4593 6.66 19.6321 6.8328C20.7457 7.9176 21.0625 9.2712 20.5345 10.7496C20.4481 10.98 20.2561 11.1528 20.0161 11.2104C19.8241 11.2488 19.6225 11.268 19.4209 11.268C19.2481 11.268 19.0849 11.2488 18.9217 11.22L19.4286 12.4642C19.8692 12.5515 20.9406 12.8539 21.5751 13.813C21.795 14.1442 21.7038 14.5915 21.3726 14.8104C21.2506 14.892 21.1124 14.9304 20.9751 14.9304C20.7418 14.9304 20.5134 14.8171 20.3751 14.6078C20.1678 14.2949 19.8414 14.1086 19.5658 14.0002L19.5649 14.004C19.5457 14.0904 19.5073 14.1672 19.4593 14.2344L19.457 14.2381L19.4554 14.2402L18.4014 15.3211L17.8494 15.8261L16.7799 16.7899L16.5121 17.0376ZM18.9313 8.20656C19.2961 8.6952 19.4113 9.2232 19.2961 9.828C19.0945 9.8088 18.8833 9.7416 18.7105 9.636C18.5857 9.5592 18.4225 9.4152 18.3841 9.2232C18.3073 8.8872 18.5665 8.44656 18.9313 8.20656Z" fill="#2C3750"/>
</svg>
