<svg width="24" height="24" viewBox="0 0 24 24" fill="none" xmlns="http://www.w3.org/2000/svg">
<path opacity="0.4" d="M4.59208 5.73584C4.42647 5.73584 4.29218 5.87004 4.29208 6.03565L4.28369 19.2393C4.28369 19.8133 4.57369 20.3393 5.05869 20.6453C5.54969 20.9543 6.15369 20.9893 6.67469 20.7413L7.41369 20.3913C7.73269 20.2403 8.09569 20.2283 8.41469 20.3623L10.5027 21.2133C10.9857 21.4083 11.4937 21.5063 12.0027 21.5063C12.5117 21.5063 13.0207 21.4073 13.5057 21.2123L15.5987 20.3603C15.9147 20.2293 16.2757 20.2393 16.5947 20.3913L17.3287 20.7403C17.8497 20.9893 18.4547 20.9533 18.9427 20.6463C19.4297 20.3373 19.7207 19.8083 19.7197 19.2293L19.7054 6.03552C19.7053 5.86996 19.571 5.73584 19.4054 5.73584H4.59208Z" fill="#2C3750"/>
<path d="M3 4.49365H21C21.553 4.49365 22 4.04665 22 3.49365C22 2.94065 21.553 2.49365 21 2.49365H3C2.447 2.49365 2 2.94065 2 3.49365C2 4.04665 2.447 4.49365 3 4.49365Z" fill="#2C3750"/>
<path d="M9.25195 10.8598H12.921C13.335 10.8598 13.671 10.5238 13.671 10.1098C13.671 9.6958 13.335 9.3598 12.921 9.3598H9.25195C8.83795 9.3598 8.50195 9.6958 8.50195 10.1098C8.50195 10.5238 8.83795 10.8598 9.25195 10.8598Z" fill="#2C3750"/>
<path d="M9.25195 15.1388H14.756C15.17 15.1388 15.506 14.8028 15.506 14.3888C15.506 13.9748 15.17 13.6388 14.756 13.6388H9.25195C8.83795 13.6388 8.50195 13.9748 8.50195 14.3888C8.50195 14.8028 8.83795 15.1388 9.25195 15.1388Z" fill="#2C3750"/>
</svg>
