<svg width="24" height="24" viewBox="0 0 24 24" fill="none" xmlns="http://www.w3.org/2000/svg">
<path d="M10.5992 19.3065C15.3484 19.3065 19.1984 15.4323 19.1984 10.6532C19.1984 5.87419 15.3484 2 10.5992 2C5.85 2 2 5.87419 2 10.6532C2 15.4323 5.85 19.3065 10.5992 19.3065Z" fill="#2C3750"/>
<path opacity="0.4" d="M20.6745 21.9553C20.3405 21.9444 20.0228 21.807 19.7853 21.5705L17.7488 19.1902C17.3122 18.7909 17.2765 18.1123 17.6688 17.6689C17.8524 17.4831 18.102 17.3786 18.3624 17.3786C18.6228 17.3786 18.8725 17.4831 19.0561 17.6689L21.6172 19.7181C21.9861 20.0957 22.0999 20.6562 21.9078 21.1492C21.7157 21.6422 21.2535 21.9754 20.7279 22L20.6745 21.9553Z" fill="#2C3750"/>
</svg>
