<svg width="24" height="24" viewBox="0 0 24 24" fill="none" xmlns="http://www.w3.org/2000/svg">
<path opacity="0.4" d="M10.2172 20.841C10.9458 21.0263 11.7013 21.1194 12.4617 21.1194C13.221 21.1194 13.9775 21.0263 14.7052 20.841C15.1372 20.7325 15.4741 20.3601 15.5874 19.8705C15.7209 19.2945 16.077 18.8135 16.5897 18.5169C17.0572 18.2471 17.6025 18.1674 18.1285 18.2903C18.6191 18.4045 19.1001 18.2682 19.39 17.9313C20.133 17.0634 20.6994 16.0794 21.0748 15.0061C21.2399 14.5319 21.0623 13.9914 20.6236 13.6314C20.134 13.2273 19.8537 12.633 19.8537 11.9994C19.8537 11.3668 20.134 10.7725 20.6226 10.3693C21.0623 10.0083 21.2399 9.46786 21.0738 8.99362C20.6994 7.92034 20.133 6.93634 19.389 6.06754C19.1001 5.73058 18.6162 5.59234 18.1305 5.70946C17.6044 5.8333 17.0581 5.75362 16.5897 5.48194C16.077 5.18626 15.7209 4.7053 15.5874 4.1293C15.4741 3.63874 15.1372 3.26722 14.7061 3.15778C13.2469 2.78818 11.6735 2.78914 10.2181 3.15778C9.7871 3.26722 9.45019 3.63778 9.33499 4.1293C9.20155 4.70626 8.84635 5.18626 8.33371 5.48194C7.86619 5.7517 7.31899 5.8333 6.79387 5.70946C6.30619 5.5933 5.82235 5.73058 5.53339 6.0685C4.78843 6.93826 4.22107 7.92226 3.84859 8.99362C3.68347 9.46786 3.86011 10.0083 4.29979 10.3693C4.78939 10.7716 5.06971 11.3658 5.06971 11.9994C5.06971 12.634 4.78939 13.2282 4.29979 13.6305C3.86011 13.9914 3.68347 14.5319 3.84859 15.0061C4.22107 16.0765 4.78747 17.0605 5.53339 17.9322C5.82331 18.2692 6.30619 18.4074 6.79195 18.2903C7.31995 18.1665 7.86619 18.2471 8.33371 18.5169C8.84635 18.8135 9.20155 19.2935 9.33595 19.8724C9.45019 20.361 9.7871 20.7325 10.2172 20.841Z" fill="#2C3750"/>
<path fill-rule="evenodd" clip-rule="evenodd" d="M12.4624 9.40875C11.031 9.40875 9.87036 10.5694 9.87036 12.0008C9.87036 13.4321 11.031 14.5928 12.4624 14.5928C13.8937 14.5928 15.0544 13.4321 15.0544 12.0008C15.0544 10.5694 13.8937 9.40875 12.4624 9.40875Z" fill="#2C3750"/>
</svg>
