<svg width="24" height="24" viewBox="0 0 24 24" fill="none" xmlns="http://www.w3.org/2000/svg">
<path opacity="0.4" fill-rule="evenodd" clip-rule="evenodd" d="M15.0812 21.3606C14.6549 21.3606 14.2354 21.2252 13.886 20.9631L12.8319 20.173C12.7128 20.0828 12.5967 20.0761 12.4671 20.0655C12.3557 20.0377 12.2088 20.0838 12.0917 20.1721L11.0338 20.9631C10.716 21.2012 10.2648 21.1369 10.0258 20.8182C9.78771 20.5004 9.85299 20.0492 10.1717 19.8102L11.2268 19.0201C11.5695 18.7609 12.0101 18.662 12.4594 18.6255C12.9519 18.6131 13.3503 18.7609 13.6978 19.022L14.75 19.8111C14.8988 19.9225 15.0994 19.9503 15.2828 19.8851C15.541 19.7929 15.7935 19.6883 16.0402 19.5721C16.2178 19.4886 16.3388 19.3273 16.3656 19.142L16.5538 17.8297C16.6143 17.4044 16.8082 17.0156 17.1154 16.7065C17.461 16.357 17.8623 16.1535 18.2895 16.0931L19.6037 15.9039C19.7871 15.878 19.9474 15.7561 20.0319 15.5785C20.148 15.3327 20.2546 15.0803 20.3458 14.822C20.412 14.6396 20.3842 14.4399 20.2719 14.2911L19.476 13.2284C19.2207 12.8867 19.0805 12.4643 19.0786 12.038C19.0748 11.5475 19.2168 11.1183 19.4751 10.7718L20.2719 9.71098C20.3832 9.56122 20.412 9.36154 20.3458 9.17722C20.2536 8.9209 20.1471 8.66746 20.0309 8.41882C19.9484 8.24506 19.788 8.12218 19.6056 8.09722L18.2981 7.90906C17.8652 7.84666 17.4677 7.64218 17.1452 7.3177C16.8149 6.9865 16.6104 6.58714 16.5509 6.15898L16.3656 4.85914C16.3388 4.67386 16.2178 4.51258 16.0402 4.42906C15.7944 4.31482 15.542 4.20826 15.2847 4.1161C15.0956 4.04986 14.9007 4.07866 14.7509 4.18906L13.6949 4.9801C12.9989 5.50426 11.9036 5.49274 11.2239 4.97818L10.1708 4.19002C10.022 4.07674 9.82227 4.05082 9.63795 4.1161C9.38063 4.20826 9.12815 4.3129 8.88239 4.42906C8.70383 4.51354 8.58191 4.6729 8.55695 4.85722L8.36879 6.16282C8.30927 6.58906 8.10575 6.9865 7.78223 7.31194C7.78031 7.31386 7.77743 7.31674 7.77455 7.31962C7.45007 7.64314 7.05263 7.84858 6.62255 7.91002L5.31791 8.09722C5.13263 8.12218 4.97327 8.2441 4.88783 8.4217C4.77263 8.66746 4.66799 8.9209 4.57583 9.17722C4.50959 9.36154 4.53743 9.56122 4.64975 9.71194L5.44463 10.7718C5.69903 11.1097 5.84111 11.534 5.84207 11.9631C5.84591 12.4595 5.70863 12.8751 5.44751 13.2265L4.64879 14.2902C4.41071 14.6089 3.95951 14.6732 3.64079 14.4342C3.32207 14.1951 3.25871 13.7439 3.49775 13.4262L4.29455 12.3644C4.36559 12.2684 4.40399 12.1532 4.40303 12.0323C4.40111 11.847 4.36271 11.7299 4.29359 11.6367L3.49679 10.575C3.09455 10.0374 2.99087 9.3337 3.22031 8.69242C3.32783 8.39098 3.45071 8.0953 3.58703 7.80538C3.88079 7.1881 4.45199 6.76378 5.11631 6.67066L6.41807 6.48442C6.56687 6.4633 6.68303 6.37402 6.75503 6.30202C6.77711 6.2809 6.79919 6.25978 6.82223 6.24154C6.83279 6.22426 6.92303 6.10714 6.94319 5.96026L7.13135 4.65466C7.22447 3.99034 7.64879 3.41914 8.26703 3.1273C8.55599 2.99098 8.85167 2.8681 9.15311 2.76058C9.79635 2.53114 10.5 2.63482 11.0348 3.03802L12.0908 3.82714C12.3413 4.01818 12.6053 3.99898 12.83 3.82906L13.8879 3.03706C14.4236 2.63386 15.1282 2.52922 15.7695 2.76058C16.069 2.8681 16.3647 2.99098 16.6536 3.12634C17.27 3.41818 17.6952 3.98842 17.7903 4.6537L17.9775 5.95834C17.9976 6.10714 18.0879 6.2233 18.1589 6.2953C18.2376 6.37402 18.3519 6.46234 18.5026 6.48442L19.8082 6.67162C20.4687 6.76378 21.0399 7.1881 21.3336 7.80346C21.4709 8.09722 21.5938 8.39194 21.7013 8.69242C21.9308 9.33466 21.8261 10.0383 21.4239 10.575L20.6271 11.6358C20.5551 11.7327 20.5167 11.8479 20.5176 11.9699C20.5186 12.1532 20.558 12.2713 20.628 12.3654L21.4229 13.4262C21.8271 13.9619 21.9317 14.6655 21.7013 15.3078C21.5928 15.6102 21.47 15.9068 21.3336 16.1958C21.0408 16.8111 20.4706 17.2345 19.8082 17.3295L18.494 17.5187C18.3749 17.535 18.2655 17.5897 18.181 17.6761C18.0504 17.8086 17.9957 17.9161 17.9794 18.0323L17.7903 19.3465C17.6952 20.0127 17.27 20.583 16.6556 20.8739C16.3656 21.0102 16.069 21.1331 15.7676 21.2406C15.5429 21.3212 15.3106 21.3606 15.0812 21.3606Z" fill="#2C3750"/>
<path d="M5.17554 19.5734C5.53554 19.8911 5.99442 20.0466 6.46002 20.0466C7.00722 20.0466 7.56402 19.8306 7.97394 19.4082L11.0229 16.3276C12.5656 16.7894 14.2466 16.3622 15.3775 15.1948C16.5947 13.941 16.9384 12.0969 16.2559 10.4975C16.1935 10.3497 16.06 10.2431 15.9016 10.2134C15.7442 10.1865 15.582 10.2354 15.4706 10.3516L13.5803 12.2994C13.5227 12.3599 13.4373 12.3887 13.3538 12.3714L12.4466 12.2073C12.3448 12.1881 12.2652 12.1113 12.244 12.0114L12.0482 11.1033C12.0309 11.0217 12.0549 10.9362 12.1144 10.8748L14.0027 8.92891C14.1141 8.81275 14.1611 8.64859 14.1256 8.49211C14.0911 8.33371 13.9807 8.20508 13.8309 8.14652C12.2066 7.51868 10.3759 7.91804 9.16434 9.16796C8.03154 10.3353 7.65618 12.0258 8.16594 13.5542L5.06034 16.6934C4.68402 17.0831 4.47954 17.6178 4.50162 18.1593C4.5237 18.7074 4.76274 19.2105 5.17554 19.5734Z" fill="#2C3750"/>
</svg>
