<svg width="24" height="24" viewBox="0 0 24 24" fill="none" xmlns="http://www.w3.org/2000/svg">
<path fill-rule="evenodd" clip-rule="evenodd" d="M12.0003 12.9611C14.5808 12.9611 16.6803 10.8607 16.6803 8.28019C16.6803 5.69971 14.5808 3.60019 12.0003 3.60019C9.41983 3.60019 7.32031 5.69971 7.32031 8.28019C7.32031 10.8607 9.41983 12.9611 12.0003 12.9611Z" fill="#2C3750"/>
<path opacity="0.4" fill-rule="evenodd" clip-rule="evenodd" d="M12.0005 14.4152C7.22064 14.4152 5.07983 17.059 5.07983 19.6798C5.07983 19.8708 5.15567 20.0542 5.29103 20.1896C5.42544 20.324 5.60879 20.3998 5.79983 20.3998L18.2011 20.3825C18.5985 20.3816 18.9201 20.059 18.9201 19.6625C18.9201 17.0504 16.7803 14.4152 12.0005 14.4152Z" fill="#2C3750"/>
</svg>
