<svg width="24" height="24" viewBox="0 0 24 24" fill="none" xmlns="http://www.w3.org/2000/svg">
<path d="M11.9656 19.2345C11.8756 19.4745 11.6956 19.6645 11.4656 19.7745C11.2356 19.8745 10.9756 19.8845 10.7356 19.7945C10.4956 19.7045 10.3056 19.5345 10.1956 19.3045L8.86718 16.3828L7.35718 16.7028L8.83555 19.9245C9.10555 20.5145 9.58555 20.9745 10.2056 21.2045C10.4856 21.3045 10.7756 21.3645 11.0756 21.3645C11.4156 21.3645 11.7656 21.2845 12.0856 21.1445C12.6856 20.8645 13.1456 20.3745 13.3756 19.7645C13.6056 19.1445 13.5756 18.4845 13.3056 17.8845L12.3956 15.8945C12.3956 15.8945 11.382 16.0038 10.8369 16.0774L11.9456 18.5045C12.0456 18.7345 12.0556 18.9945 11.9656 19.2345Z" fill="#2C3750"/>
<path opacity="0.4" d="M10.8368 16.0781L10.8355 16.0752C10.3447 16.1384 9.87347 16.2113 9.42884 16.2906C8.62261 16.4262 7.82553 16.586 7.10737 16.7696L7.10692 16.771C6.94984 16.8073 6.79845 16.8463 6.65551 16.8853C6.40551 16.9452 6.15551 16.9752 5.90551 16.9752C4.70551 16.9752 3.61551 16.2152 3.01551 14.8952L2.62551 14.0352C1.89551 12.4452 2.24551 10.8552 3.51551 9.98525C3.82551 9.77525 4.16551 9.53525 4.52551 9.26525L6.15551 12.7153C6.28551 12.9952 6.55551 13.1552 6.83551 13.1552C6.94551 13.1552 7.04551 13.1353 7.14551 13.0852C7.52551 12.9152 7.69551 12.4753 7.52551 12.0953L5.73551 8.31525C6.98551 7.30525 8.41551 6.01525 9.84551 4.44525C10.4755 3.75525 11.3455 3.43525 12.2355 3.57525C13.3255 3.75525 14.2955 4.59525 14.8855 5.88525L17.5455 11.7352C17.9355 12.6052 17.8755 13.6052 17.3655 14.4052C16.8555 15.2252 15.9655 15.7252 14.9955 15.7452C14.3443 15.7596 13.7135 15.7892 13.1069 15.8343C13.0767 15.8315 13.0464 15.8314 13.0161 15.834C12.3641 15.8915 11.6157 15.973 10.8368 16.0781Z" fill="#2C3750"/>
<path d="M21.2168 5.98104C20.4458 4.28604 18.8968 3.04304 17.0718 2.65504C16.6698 2.56304 16.2688 2.82704 16.1828 3.23204C16.0958 3.63704 16.3548 4.03604 16.7598 4.12204C18.1408 4.41604 19.2678 5.32004 19.8518 6.60204C20.4198 7.85104 20.3778 9.26204 19.7378 10.475C19.5438 10.841 19.6838 11.295 20.0498 11.489C20.1618 11.548 20.2818 11.576 20.3998 11.576C20.6688 11.576 20.9288 11.43 21.0638 11.176C21.9228 9.54904 21.9788 7.65604 21.2168 5.98104Z" fill="#2C3750"/>
<path d="M15.7955 5.67306C15.9395 5.28506 16.3715 5.08405 16.7595 5.23006C17.6745 5.56805 18.4015 6.24505 18.8085 7.13506C19.2255 8.05606 19.2475 9.07705 18.8715 10.0111C18.7535 10.3031 18.4725 10.4811 18.1755 10.4811C18.0815 10.4811 17.9875 10.4631 17.8955 10.4261C17.5105 10.2721 17.3245 9.83405 17.4795 9.45106C17.7015 8.90005 17.6885 8.29806 17.4435 7.75606C17.2045 7.23406 16.7765 6.83505 16.2385 6.63605C15.8505 6.49305 15.6525 6.06106 15.7955 5.67306Z" fill="#2C3750"/>
</svg>
