<svg width="24" height="24" viewBox="0 0 24 24" fill="none" xmlns="http://www.w3.org/2000/svg">
<path opacity="0.4" fill-rule="evenodd" clip-rule="evenodd" d="M15.0166 11.7769C14.9109 11.7044 14.7708 11.7044 14.6651 11.7769C13.9039 12.299 12.9913 12.6145 12.0003 12.6145C11.0093 12.6145 10.0967 12.299 9.33533 11.7769C9.22965 11.7044 9.0896 11.7044 8.98391 11.7769C8.22257 12.299 7.31 12.6145 6.31899 12.6145C5.61056 12.6145 4.9436 12.4487 4.34093 12.1656C4.13851 12.0706 3.89307 12.2111 3.89307 12.4348V17.6852C3.89787 18.5579 4.24059 19.3758 4.86075 19.9883C5.47419 20.595 6.28347 20.9281 7.14171 20.9281H8.38779C8.54684 20.9281 8.67579 20.7992 8.67579 20.6401V17.9924C8.67579 16.1607 10.1667 14.6708 12.0003 14.6708C13.8348 14.6708 15.3267 16.1607 15.3267 17.9924V20.6401C15.3267 20.7992 15.4556 20.9281 15.6147 20.9281H16.8339C17.7152 20.9175 18.5216 20.5998 19.1408 19.9873C19.76 19.3767 20.1027 18.5617 20.1075 17.6823V12.4348C20.1075 12.2111 19.862 12.0706 19.6595 12.1656C19.057 12.4487 18.3899 12.6145 17.6816 12.6145C16.6906 12.6145 15.778 12.299 15.0166 11.7769Z" fill="#2C3750"/>
<path d="M5.69275 2.68875H18.3072C19.7933 2.68875 21.0029 3.89835 21.0029 5.38635V7.85355C21.0029 9.68525 19.5129 11.1752 17.6813 11.1752C16.6437 11.1752 15.7234 10.6913 15.116 9.94119C14.979 9.77194 14.7021 9.77194 14.5652 9.94119C13.958 10.6913 13.0383 11.1752 12 11.1752C10.9626 11.1752 10.0424 10.6914 9.43502 9.94147C9.29794 9.77222 9.02083 9.77232 8.88383 9.94167C8.27706 10.6915 7.35681 11.1752 6.31867 11.1752C4.48699 11.1752 2.99707 9.68525 2.99707 7.85355V5.38635C2.99707 3.89835 4.20667 2.68875 5.69275 2.68875Z" fill="#2C3750"/>
<path d="M10.1157 17.9925C10.1157 16.9547 10.9605 16.1109 12.0002 16.1109C13.0399 16.1109 13.8866 16.9547 13.8866 17.9925V20.6402C13.8866 20.7993 13.7577 20.9282 13.5986 20.9282H10.4037C10.2447 20.9282 10.1157 20.7993 10.1157 20.6402V17.9925Z" fill="#2C3750"/>
</svg>
