<svg width="24" height="24" viewBox="0 0 24 24" fill="none" xmlns="http://www.w3.org/2000/svg">
<path fill-rule="evenodd" clip-rule="evenodd" d="M12.0007 14.4152C7.22088 14.4152 5.08008 17.059 5.08008 19.6798C5.08008 19.8708 5.15592 20.0542 5.29128 20.1896C5.42568 20.324 5.60904 20.3998 5.80008 20.3998L18.2014 20.3825C18.5988 20.3816 18.9204 20.059 18.9204 19.6625C18.9204 17.0504 16.7806 14.4152 12.0007 14.4152Z" fill="#2C3750"/>
<path fill-rule="evenodd" clip-rule="evenodd" d="M12.0008 12.9611C14.5813 12.9611 16.6808 10.8607 16.6808 8.28019C16.6808 5.69971 14.5813 3.60019 12.0008 3.60019C9.42032 3.60019 7.3208 5.69971 7.3208 8.28019C7.3208 10.8607 9.42032 12.9611 12.0008 12.9611Z" fill="#2C3750"/>
<g opacity="0.4">
<path d="M6.94755 11.7603C6.80259 12.1452 6.43683 12.3833 6.04803 12.3833C5.93667 12.3833 5.82243 12.3632 5.71107 12.3219C4.32291 11.8016 3.38211 10.4537 3.36963 8.95995C3.36963 7.38651 4.37379 6.00603 5.86851 5.52411C6.37251 5.35995 6.91395 5.63931 7.07715 6.14331C7.23939 6.64827 6.96195 7.18875 6.45795 7.35195C5.75907 7.57755 5.28963 8.22363 5.28963 8.95131C5.29539 9.64827 5.73603 10.2809 6.38499 10.5238C6.88131 10.71 7.13283 11.263 6.94755 11.7603Z" fill="#2C3750"/>
<path d="M3.40779 17.7057C3.40779 18.2356 2.97867 18.6657 2.44779 18.6657C1.91691 18.6657 1.48779 18.2356 1.48779 17.7057C1.48779 16.1092 2.52555 14.0317 5.45259 13.4327C5.97003 13.3233 6.47883 13.6612 6.58539 14.1805C6.69195 14.6999 6.35595 15.2077 5.83659 15.3133C3.58347 15.7751 3.40779 17.2612 3.40779 17.7057Z" fill="#2C3750"/>
<path d="M17.0526 11.7603C17.1976 12.1452 17.5634 12.3833 17.9522 12.3833C18.0635 12.3833 18.1778 12.3632 18.2891 12.3219C19.6773 11.8016 20.6181 10.4537 20.6306 8.95995C20.6306 7.38651 19.6264 6.00603 18.1317 5.52411C17.6277 5.35995 17.0862 5.63931 16.923 6.14331C16.7608 6.64827 17.0382 7.18875 17.5422 7.35195C18.2411 7.57755 18.7106 8.22363 18.7106 8.95131C18.7048 9.64827 18.2642 10.2809 17.6152 10.5238C17.1189 10.71 16.8674 11.263 17.0526 11.7603Z" fill="#2C3750"/>
<path d="M20.5923 17.7057C20.5923 18.2356 21.0215 18.6657 21.5523 18.6657C22.0832 18.6657 22.5123 18.2356 22.5123 17.7057C22.5123 16.1092 21.4746 14.0317 18.5475 13.4327C18.0301 13.3233 17.5213 13.6612 17.4147 14.1805C17.3082 14.6999 17.6442 15.2077 18.1635 15.3133C20.4167 15.7751 20.5923 17.2612 20.5923 17.7057Z" fill="#2C3750"/>
</g>
</svg>
