<svg width="24" height="24" viewBox="0 0 24 24" fill="none" xmlns="http://www.w3.org/2000/svg">
<path fill-rule="evenodd" clip-rule="evenodd" d="M9.37629 3.33749C6.79581 3.33749 4.69629 5.43701 4.69629 8.01749C4.69629 10.599 6.79581 12.6985 9.37629 12.6985C11.9568 12.6985 14.0563 10.599 14.0563 8.01749C14.0563 5.43701 11.9568 3.33749 9.37629 3.33749Z" fill="#2C3750"/>
<path fill-rule="evenodd" clip-rule="evenodd" d="M14.2267 12.9565C13.6478 12.9575 13.1726 13.4308 13.1726 14.0154V14.4954C13.1726 14.7748 13.0594 15.0436 12.8626 15.2413L12.5314 15.5783L12.5218 15.5821V15.5841C12.108 15.9988 12.1186 16.6689 12.5314 17.0797L12.8626 17.4167C13.0594 17.6154 13.1726 17.8823 13.1726 18.1617V18.6465C13.1726 19.2301 13.6478 19.7044 14.2267 19.7044H14.7125C14.9918 19.7044 15.2606 19.8157 15.4574 20.0125L15.7982 20.3485V20.3543C16.212 20.7652 16.884 20.7623 17.2978 20.3476L17.628 20.0106C17.8354 19.8138 18.1032 19.7025 18.3826 19.7025H18.8587C19.4472 19.7034 19.9234 19.2301 19.9234 18.6465V18.1626C19.9234 17.8833 20.0261 17.6164 20.2334 17.4177L20.5637 17.0807L20.5742 17.0769C20.9774 16.6612 20.9774 15.9911 20.5637 15.5793L20.2334 15.2423C20.0261 15.0445 19.9234 14.7748 19.9234 14.4964V14.0154C19.9234 13.4308 19.4472 12.9565 18.8587 12.9565H18.3826C18.1032 12.9565 17.8354 12.8452 17.6386 12.6484L17.2978 12.3114V12.3085L17.2872 12.3076C16.8734 11.8957 16.2014 11.8967 15.7982 12.3114L15.4574 12.6493C15.2606 12.8461 14.9918 12.9565 14.7125 12.9565H14.2267ZM15.5835 17.778C15.7179 17.9133 15.9012 17.9892 16.0923 17.9892C16.2833 17.9892 16.4676 17.9124 16.602 17.777L18.4164 15.9559C18.6968 15.6736 18.6958 15.2176 18.4145 14.9373C18.1323 14.657 17.6763 14.658 17.396 14.9392L16.0913 16.2496L15.7169 15.8752C15.4366 15.594 14.9816 15.594 14.6993 15.8743C14.418 16.1556 14.418 16.6116 14.6993 16.8928L15.5835 17.778Z" fill="#2C3750"/>
<path opacity="0.4" fill-rule="evenodd" clip-rule="evenodd" d="M9.37497 14.1562C4.59417 14.1562 2.45337 16.7963 2.45337 19.417C2.45337 19.609 2.53017 19.7914 2.66457 19.9258C2.79897 20.0602 2.98137 20.1371 3.17337 20.1371C3.17337 20.1371 7.45497 20.1303 8.75097 20.1284C8.75097 20.1284 9.87517 20.1265 9.88093 20.1265C9.98173 20.1236 10.0787 20.1054 10.1737 20.0746C10.5817 19.9585 10.8457 19.6244 10.8457 19.1492V15.1335C10.8457 14.546 10.4195 14.1562 9.37497 14.1562Z" fill="#2C3750"/>
</svg>
