<svg width="24" height="24" viewBox="0 0 24 24" fill="none" xmlns="http://www.w3.org/2000/svg">
<path opacity="0.4" fill-rule="evenodd" clip-rule="evenodd" d="M15.3073 15.2046C13.8577 15.2046 12.6769 14.0238 12.6769 12.5646V11.4318C12.6769 9.97259 13.8577 8.79179 15.3073 8.79179C16.4406 8.79179 18.6591 8.79811 19.4572 8.8005C19.619 8.80098 19.7501 8.66779 19.7372 8.50649C19.5323 5.93768 17.387 3.91499 14.7697 3.91499H8.19366C5.43846 3.91499 3.20166 6.1614 3.20166 8.9166V15.0894C3.20166 17.8446 5.43846 20.0814 8.19366 20.0814H14.7697C17.3874 20.0814 19.5417 18.0582 19.7383 15.4889C19.7506 15.3279 19.6196 15.1955 19.4582 15.1959C18.661 15.1982 16.4411 15.2046 15.3073 15.2046Z" fill="#2C3750"/>
<path fill-rule="evenodd" clip-rule="evenodd" d="M16.0753 12.6818C15.6913 12.6818 15.3841 12.3746 15.3841 12.0002C15.3841 11.6258 15.6913 11.3186 16.0753 11.3186C16.4497 11.3186 16.7569 11.6258 16.7569 12.0002C16.7569 12.3746 16.4497 12.6818 16.0753 12.6818ZM19.5985 10.2338H15.3073C14.6449 10.2338 14.1169 10.7714 14.1169 11.4338V12.5666C14.1169 13.229 14.6449 13.7666 15.3073 13.7666H19.5985C20.2609 13.7666 20.7985 13.229 20.7985 12.5666V11.4338C20.7985 10.7714 20.2609 10.2338 19.5985 10.2338Z" fill="#2C3750"/>
</svg>
