<svg width="24" height="24" viewBox="0 0 24 24" fill="none" xmlns="http://www.w3.org/2000/svg">
<path opacity="0.4" fill-rule="evenodd" clip-rule="evenodd" d="M13.8335 11.7587C13.8335 10.021 15.2447 8.60024 16.9823 8.60024H20.8204C20.9802 8.60024 21.1102 8.46989 21.1004 8.31038C20.9318 5.58415 18.661 3.41624 15.8975 3.41624H8.09268C5.21268 3.41624 2.87988 5.75864 2.87988 8.63864V13.576C2.87988 13.7755 3.07906 13.9152 3.27584 13.8826C3.39877 13.8621 3.52598 13.8515 3.65748 13.8515C4.19029 13.8515 4.80686 14.0444 5.227 14.4151C5.35843 14.531 5.56356 14.547 5.68749 14.423L6.43188 13.6787C7.36308 12.7475 8.88948 12.7475 9.82068 13.6787C10.7615 14.6195 10.7615 16.1363 9.82068 17.0771L9.06035 17.8374C8.94211 17.9556 8.95058 18.1485 9.06124 18.2739C9.4295 18.6911 9.64942 19.2425 9.65748 19.8419C9.65748 19.8911 9.65595 19.9397 9.65297 19.9874C9.64203 20.1674 9.77614 20.3315 9.95652 20.3315H15.8975C18.7992 20.3315 20.972 17.9858 21.1127 15.1955C21.1207 15.0366 20.991 14.9075 20.8319 14.9075H16.9823C15.2447 14.9075 13.8335 13.4963 13.8335 11.7587Z" fill="#2C3750"/>
<path fill-rule="evenodd" clip-rule="evenodd" d="M17.0689 12.4233C16.6753 12.4233 16.3489 12.1065 16.3489 11.7033C16.3489 11.3097 16.6753 10.9833 17.0689 10.9833C17.4625 10.9833 17.7889 11.3097 17.7889 11.7033C17.7889 12.1065 17.4721 12.4233 17.0689 12.4233ZM16.9825 10.0425C16.0417 10.0425 15.2737 10.8105 15.2737 11.7609C15.2737 12.7017 16.0417 13.4697 16.9825 13.4697H20.8321C20.9912 13.4697 21.1201 13.3407 21.1201 13.1817V10.3305C21.1201 10.1715 20.9912 10.0425 20.8321 10.0425H16.9825Z" fill="#2C3750"/>
<path fill-rule="evenodd" clip-rule="evenodd" d="M8.63638 14.8716C8.3551 14.5903 7.8991 14.5903 7.61782 14.8716L4.3711 18.1202L4.3759 16.2549C4.37686 15.8565 4.05526 15.534 3.65686 15.533C3.25942 15.533 2.93686 15.8546 2.9359 16.2511L2.92822 19.8616C2.92822 19.9548 2.94646 20.0488 2.98198 20.1362C3.0175 20.2245 3.0703 20.3052 3.13846 20.3724C3.20662 20.4405 3.28726 20.4933 3.37462 20.5288C3.46198 20.5653 3.5551 20.5836 3.64822 20.5836H3.65014L7.25686 20.573C7.6543 20.572 7.9759 20.2495 7.97494 19.8511C7.97398 19.4536 7.65142 19.133 7.25494 19.133H7.25302L5.39062 19.1388L8.63638 15.8901C8.91766 15.6088 8.91766 15.1528 8.63638 14.8716Z" fill="#2C3750"/>
</svg>
