<svg width="24" height="24" viewBox="0 0 24 24" fill="none" xmlns="http://www.w3.org/2000/svg">
<path opacity="0.4" fill-rule="evenodd" clip-rule="evenodd" d="M13.8335 11.7587C13.8335 10.021 15.2447 8.60024 16.9823 8.60024H20.83C20.9898 8.60024 21.1198 8.46989 21.11 8.31038C20.9414 5.58415 18.6703 3.41624 15.8975 3.41624H8.10228C5.22228 3.41624 2.87988 5.75864 2.87988 8.63864V12.9657C2.87988 13.2207 3.20625 13.3683 3.43273 13.2511C3.75954 13.082 4.13142 12.9875 4.52148 12.9875L8.12148 12.9779H8.13108C8.60148 13.0067 9.06228 13.1315 9.45588 13.3715C9.59028 13.4675 9.71508 13.5635 9.83028 13.6787C10.1087 13.9571 10.3199 14.3027 10.4255 14.6867C10.4543 14.7539 10.4735 14.8307 10.4831 14.9171C10.5119 15.0707 10.5311 15.2243 10.5311 15.3875L10.5215 18.9971C10.5215 19.2976 10.4658 19.5843 10.3649 19.8466C10.2815 20.0634 10.4261 20.3315 10.6584 20.3315H15.8975C18.7992 20.3315 20.972 17.9858 21.1127 15.1955C21.1207 15.0366 20.991 14.9075 20.8319 14.9075H16.9823C15.2447 14.9075 13.8335 13.4963 13.8335 11.7587Z" fill="#2C3750"/>
<path fill-rule="evenodd" clip-rule="evenodd" d="M17.7982 11.7033C17.7982 12.1065 17.4718 12.4233 17.0782 12.4233C16.675 12.4233 16.3582 12.1065 16.3582 11.7033C16.3582 11.3097 16.675 10.9833 17.0782 10.9833C17.4718 10.9833 17.7982 11.3097 17.7982 11.7033ZM15.2734 11.7609C15.2734 12.7017 16.0414 13.4697 16.9822 13.4697H20.8318C20.9909 13.4697 21.1198 13.3407 21.1198 13.1817V10.3305C21.1198 10.1715 20.9909 10.0425 20.8318 10.0425H16.9822C16.0414 10.0425 15.2734 10.8105 15.2734 11.7609Z" fill="#2C3750"/>
<path fill-rule="evenodd" clip-rule="evenodd" d="M8.79798 15.1075C8.76246 15.0202 8.70966 14.9395 8.6415 14.8714C8.57334 14.8032 8.4927 14.7504 8.40534 14.7149C8.32086 14.6803 8.23158 14.664 8.1423 14.6621C8.13846 14.6621 8.13558 14.6602 8.13174 14.6602H8.12982L4.52406 14.6698C4.12566 14.6707 3.80502 14.9942 3.80502 15.3917C3.80598 15.7882 4.12854 16.1098 4.52502 16.1098H4.52694L6.3903 16.105L3.14358 19.3546C2.8623 19.6358 2.8623 20.0909 3.14358 20.3722C3.2847 20.5133 3.46806 20.5834 3.65238 20.5834C3.8367 20.5834 4.02198 20.5133 4.16214 20.3722L7.40886 17.1235L7.40502 18.9878C7.40406 19.3862 7.72566 19.7088 8.1231 19.7098H8.12502C8.5215 19.7098 8.84406 19.3882 8.84502 18.9917L8.85174 15.3821C8.85174 15.289 8.8335 15.1949 8.79798 15.1075Z" fill="#2C3750"/>
</svg>
