<svg width="24" height="24" viewBox="0 0 24 24" fill="none" xmlns="http://www.w3.org/2000/svg">
<path d="M18.83 13.17C18.54 12.88 18.06 12.88 17.77 13.17L13.03 17.93V4.75C13.03 4.34 12.69 4 12.28 4C11.87 4 11.53 4.34 11.53 4.75V17.93L6.78995 13.17C6.49995 12.88 6.01995 12.88 5.72995 13.17C5.43995 13.46 5.43995 13.94 5.72995 14.23L11.75 20.28C11.82 20.35 11.9 20.4 11.99 20.44C12.07 20.47 12.16 20.49 12.25 20.49C12.26 20.49 12.27 20.49 12.28 20.49C12.38 20.49 12.48 20.47 12.57 20.43C12.66 20.39 12.74 20.34 12.81 20.27L18.83 14.22C19.12 13.93 19.12 13.45 18.83 13.16V13.17Z" fill="black"/>
</svg>
