<svg width="24" height="24" viewBox="0 0 24 24" fill="none" xmlns="http://www.w3.org/2000/svg">
<path d="M18.2799 9.77L12.2599 3.72C12.1199 3.58 11.9399 3.5 11.7299 3.5C11.5199 3.5 11.3399 3.58 11.1999 3.72L5.1799 9.77C4.8899 10.06 4.8899 10.54 5.1799 10.83C5.4699 11.12 5.9499 11.12 6.2399 10.83L10.9799 6.07V19.25C10.9799 19.66 11.3199 20 11.7299 20C12.1399 20 12.4799 19.66 12.4799 19.25V6.07L17.2199 10.83C17.3699 10.98 17.5599 11.05 17.7499 11.05C17.9399 11.05 18.1299 10.98 18.2799 10.83C18.5699 10.54 18.5699 10.06 18.2799 9.77Z" fill="black"/>
</svg>
