<svg width="24" height="24" viewBox="0 0 24 24" fill="none" xmlns="http://www.w3.org/2000/svg">
<path d="M20.5 11.73C20.5 11.63 20.48 11.53 20.44 11.44C20.4 11.35 20.35 11.27 20.28 11.2L14.23 5.17999C13.94 4.88999 13.46 4.88999 13.17 5.17999C12.88 5.46999 12.88 5.94999 13.17 6.23999L17.93 10.98H4.75C4.34 10.98 4 11.32 4 11.73C4 12.14 4.34 12.48 4.75 12.48H17.93L13.17 17.22C12.88 17.51 12.88 17.99 13.17 18.28C13.32 18.43 13.51 18.5 13.7 18.5C13.89 18.5 14.08 18.43 14.23 18.28L20.28 12.26C20.35 12.19 20.4 12.11 20.44 12.02C20.47 11.94 20.49 11.85 20.49 11.76C20.49 11.75 20.49 11.74 20.49 11.73H20.5Z" fill="black"/>
</svg>
