<svg width="24" height="24" viewBox="0 0 24 24" fill="none" xmlns="http://www.w3.org/2000/svg">
<path d="M19.25 11.52H6.07001L10.83 6.78C11.12 6.49 11.12 6.01 10.83 5.72C10.54 5.43 10.06 5.43 9.77001 5.72L3.72001 11.74C3.65001 11.81 3.60001 11.89 3.56001 11.98C3.53001 12.06 3.52001 12.14 3.51001 12.23C3.51001 12.24 3.51001 12.26 3.51001 12.27C3.51001 12.37 3.53001 12.47 3.57001 12.56C3.61001 12.65 3.66001 12.73 3.73001 12.8L9.78001 18.82C9.93001 18.97 10.12 19.04 10.31 19.04C10.5 19.04 10.69 18.97 10.84 18.82C11.13 18.53 11.13 18.05 10.84 17.76L6.08001 13.02H19.26C19.67 13.02 20.01 12.68 20.01 12.27C20.01 11.86 19.67 11.52 19.26 11.52H19.25Z" fill="black"/>
</svg>
