<svg width="24" height="24" viewBox="0 0 24 24" fill="none" xmlns="http://www.w3.org/2000/svg">
<path fill-rule="evenodd" clip-rule="evenodd" d="M22.04 15.84L21.25 9.73C20.66 7.03 18.89 6.07 17.44 6.07H17.34C17.07 3.53 14.94 1.53 12.33 1.53H12.31C10.98 1.53 9.68002 2.07 8.73002 3.01C7.91002 3.83 7.41002 4.92 7.29002 6.07H7.26002C5.82002 6.07 3.95002 7.04 3.44002 9.8L2.66002 15.83C2.34002 17.95 2.66002 19.57 3.59002 20.65C4.52002 21.73 6.01002 22.25 8.16002 22.25H16.51C18.46 22.25 20.01 21.65 20.99 20.53C21.97 19.4 22.33 17.82 22.04 15.84ZM9.79002 4.07C10.46 3.4 11.36 3.03 12.31 3.03H12.33C14.12 3.03 15.59 4.35 15.85 6.07H8.80002C8.91002 5.32 9.25002 4.62 9.80002 4.07H9.79002ZM19.85 19.54C18.98 20.54 17.55 20.75 16.51 20.75H8.16002C6.48002 20.75 5.36002 20.4 4.73002 19.67C4.10002 18.93 3.90002 17.71 4.15002 16.03L4.92002 10.03C5.34002 7.75 6.82002 7.57 7.26002 7.57H17.44C18.56 7.57 19.44 8.5 19.77 9.99L20.55 16.04C20.77 17.57 20.53 18.75 19.85 19.54ZM15.25 10.35C14.84 10.35 14.5 10.69 14.5 11.1C14.5 11.51 14.84 11.85 15.25 11.85H15.29C15.7 11.85 16.02 11.51 16.02 11.1C16.02 10.69 15.66 10.35 15.25 10.35ZM8.67004 11.1C8.67004 10.69 9.01004 10.35 9.42004 10.35H9.43004C9.84004 10.35 10.2 10.69 10.2 11.1C10.2 11.51 9.88004 11.85 9.47004 11.85H9.42004C9.01004 11.85 8.67004 11.51 8.67004 11.1Z" fill="black"/>
</svg>
