<svg width="24" height="24" viewBox="0 0 24 24" fill="none" xmlns="http://www.w3.org/2000/svg">
<path fill-rule="evenodd" clip-rule="evenodd" d="M17.04 3.79H6.97001C4.19001 3.79 2.26001 5.81 2.26001 8.71V9.83V15.28C2.26001 18.22 4.15001 20.2 6.97001 20.2H17.04C19.86 20.2 21.76 18.22 21.76 15.28V8.69C21.76 5.75 19.87 3.77 17.05 3.77L17.04 3.79ZM6.97001 5.29H17.04C19.02 5.29 20.25 6.6 20.25 8.71V9.09H3.75001V8.71C3.75001 6.63 5.01001 5.29 6.96001 5.29H6.97001ZM17.04 18.71H6.97001C4.99001 18.71 3.76001 17.4 3.76001 15.29V10.58H20.26V15.29C20.26 17.4 19.03 18.71 17.04 18.71ZM8.33002 14.42H6.90002C6.49002 14.42 6.15002 14.76 6.15002 15.17C6.15002 15.58 6.49002 15.92 6.90002 15.92H8.33002C8.74002 15.92 9.08002 15.58 9.08002 15.17C9.08002 14.76 8.74002 14.42 8.33002 14.42ZM10.78 14.42H12.21C12.62 14.42 12.96 14.76 12.96 15.17C12.96 15.58 12.62 15.92 12.21 15.92H10.78C10.37 15.92 10.03 15.58 10.03 15.17C10.03 14.76 10.37 14.42 10.78 14.42Z" fill="black"/>
</svg>
