<svg width="24" height="24" viewBox="0 0 24 24" fill="none" xmlns="http://www.w3.org/2000/svg">
<path fill-rule="evenodd" clip-rule="evenodd" d="M19.1499 2.27002C17.9299 2.27002 16.9399 3.26002 16.9399 4.48002V18.78C16.9399 20 17.9299 20.99 19.1499 20.99C20.3699 20.99 21.3599 20 21.3599 18.78V4.48002C21.3599 3.26002 20.3699 2.27002 19.1499 2.27002ZM19.9199 18.78C19.9199 19.2 19.5699 19.55 19.1499 19.55C18.7299 19.55 18.3799 19.2 18.3799 18.78V4.48002C18.3799 4.06002 18.7299 3.71002 19.1499 3.71002C19.5699 3.71002 19.9199 4.06002 19.9199 4.48002V18.78ZM9.79004 12.82C9.79004 11.6 10.78 10.61 12 10.61C13.22 10.61 14.21 11.6 14.21 12.82V18.78C14.21 20 13.22 20.99 12 20.99C10.78 20.99 9.79004 20 9.79004 18.78V12.82ZM12 19.55C12.42 19.55 12.77 19.2 12.77 18.78V12.82C12.77 12.4 12.42 12.05 12 12.05C11.58 12.05 11.23 12.4 11.23 12.82V18.78C11.23 19.2 11.58 19.55 12 19.55ZM2.63989 16.4C2.63989 15.18 3.62989 14.19 4.84989 14.19C6.06989 14.19 7.05989 15.18 7.05989 16.4V18.78C7.05989 20 6.06989 20.99 4.84989 20.99C3.62989 20.99 2.63989 20 2.63989 18.78V16.4ZM4.84989 19.55C5.26989 19.55 5.61989 19.2 5.61989 18.78V16.4C5.61989 15.98 5.26989 15.63 4.84989 15.63C4.42989 15.63 4.07989 15.98 4.07989 16.4V18.78C4.07989 19.2 4.42989 19.55 4.84989 19.55ZM3.86992 11.25C3.72992 11.39 3.53992 11.46 3.35992 11.46L3.38992 11.47C3.20992 11.47 3.01992 11.4 2.87992 11.26C2.59992 10.98 2.59992 10.52 2.87992 10.24L9.39992 3.72003H6.96992C6.56992 3.72003 6.24992 3.40003 6.24992 3.00003C6.24992 2.60003 6.56992 2.28003 6.96992 2.28003H11.1399C11.2299 2.28003 11.3299 2.30003 11.4099 2.34003C11.4899 2.37003 11.5599 2.42003 11.6299 2.49003C11.6999 2.56003 11.7499 2.64003 11.7799 2.72003C11.8099 2.80003 11.8299 2.89003 11.8299 2.99003V7.16003C11.8299 7.56003 11.5099 7.88003 11.1099 7.88003C10.7099 7.88003 10.3899 7.56003 10.3899 7.16003V4.73003L3.86992 11.25Z" fill="black"/>
</svg>
