<svg width="24" height="24" viewBox="0 0 24 24" fill="none" xmlns="http://www.w3.org/2000/svg">
<path fill-rule="evenodd" clip-rule="evenodd" d="M20.2001 6.37L20.1827 6.36975C20.0639 6.36747 19.1557 6.35 5.81006 6.35L5.58006 3.55C5.55006 3.21 5.30006 2.93 4.96006 2.87L2.88006 2.51C2.47006 2.44 2.08006 2.71 2.01006 3.12C1.94006 3.53 2.21006 3.92 2.62006 3.99L4.13006 4.25L5.04006 15.14C5.15006 16.45 6.26006 17.48 7.58006 17.48H18.5001C19.7601 17.48 20.8401 16.54 21.0201 15.29L21.9701 8.73C22.1301 7.59 21.3401 6.53 20.1901 6.36L20.2001 6.37ZM19.5401 15.08C19.4701 15.6 19.0201 15.98 18.5001 15.98H7.59006C7.05006 15.98 6.59006 15.56 6.54006 15.01L5.94006 7.84H20.0001C20.3201 7.89 20.5501 8.19 20.5001 8.51L19.5501 15.07L19.5401 15.08ZM16.9 10.04H14.13C13.72 10.04 13.38 10.38 13.38 10.79C13.38 11.2 13.72 11.54 14.13 11.54H16.9C17.31 11.54 17.65 11.2 17.65 10.79C17.65 10.38 17.31 10.04 16.9 10.04ZM7.14999 19.45C6.43999 19.45 5.85999 20.03 5.85999 20.74C5.85999 21.45 6.43999 22.03 7.14999 22.03C7.85999 22.03 8.43998 21.45 8.43998 20.74C8.43998 20.03 7.85999 19.45 7.14999 19.45ZM18.43 19.45C17.72 19.45 17.14 20.03 17.14 20.74C17.14 21.45 17.72 22.03 18.43 22.03C19.14 22.03 19.72 21.45 19.72 20.74C19.72 20.03 19.14 19.45 18.43 19.45Z" fill="black"/>
</svg>
