<svg width="24" height="24" viewBox="0 0 24 24" fill="none" xmlns="http://www.w3.org/2000/svg">
<path fill-rule="evenodd" clip-rule="evenodd" d="M16.8 2.87C18.25 2.98 19.47 3.45 20.33 4.31C21.26 5.25 21.75 6.61 21.75 8.23V17.35C21.75 20.68 19.64 22.75 16.23 22.75H7.77C4.37 22.75 2.25 20.65 2.25 17.27V8.22C2.25 5.08 4.15 3.09 7.22 2.87V2C7.22 1.59 7.56 1.25 7.97 1.25C8.38 1.25 8.72 1.59 8.72 2V2.83H15.3V2C15.3 1.59 15.64 1.25 16.05 1.25C16.46 1.25 16.8 1.59 16.8 2V2.87ZM7.22 5.29V4.37C4.98 4.56 3.75 5.9 3.75 8.22V8.65H20.26V8.22C20.26 6.99 19.93 6.03 19.27 5.37C18.69 4.79 17.84 4.46 16.8 4.37V5.29C16.8 5.7 16.46 6.04 16.05 6.04C15.64 6.04 15.3 5.7 15.3 5.29V4.33H8.72V5.29C8.72 5.7 8.38 6.04 7.97 6.04C7.56 6.04 7.22 5.7 7.22 5.29ZM7.77 21.25H16.23V21.24C18.82 21.24 20.25 19.86 20.25 17.34V10.15H3.75V17.27C3.75 19.84 5.18 21.25 7.77 21.25ZM6.82007 13.31C6.82007 12.9 7.16007 12.56 7.57007 12.56C7.98007 12.56 8.32007 12.9 8.32007 13.31C8.32007 13.72 7.98007 14.06 7.57007 14.06C7.16007 14.06 6.82007 13.72 6.82007 13.31ZM12.01 12.56C11.6 12.56 11.26 12.9 11.26 13.31C11.26 13.72 11.6 14.06 12.01 14.06C12.42 14.06 12.76 13.72 12.76 13.31C12.76 12.9 12.42 12.56 12.01 12.56ZM16.45 12.56C16.04 12.56 15.7 12.9 15.7 13.31C15.7 13.72 16.04 14.06 16.45 14.06C16.86 14.06 17.2 13.72 17.2 13.31C17.2 12.9 16.86 12.56 16.45 12.56ZM16.45 16.45C16.04 16.45 15.7 16.79 15.7 17.2C15.7 17.61 16.04 17.95 16.45 17.95C16.86 17.95 17.2 17.61 17.2 17.2C17.2 16.79 16.86 16.45 16.45 16.45ZM11.26 17.2C11.26 16.79 11.6 16.45 12.01 16.45C12.42 16.45 12.76 16.79 12.76 17.2C12.76 17.61 12.42 17.95 12.01 17.95C11.6 17.95 11.26 17.61 11.26 17.2ZM7.57007 16.45C7.16007 16.45 6.82007 16.79 6.82007 17.2C6.82007 17.61 7.16007 17.95 7.57007 17.95C7.98007 17.95 8.32007 17.61 8.32007 17.2C8.32007 16.79 7.98007 16.45 7.57007 16.45Z" fill="black"/>
</svg>
