<svg width="24" height="24" viewBox="0 0 24 24" fill="none" xmlns="http://www.w3.org/2000/svg">
<path fill-rule="evenodd" clip-rule="evenodd" d="M17.97 6.3C17.67 6.29 17.4 6.16 17.2 5.96C17.18 5.94 17.02 5.75 16.6 4.96C16.08 3.99 15.07 3.38 13.97 3.38H10.06C8.98001 3.38 7.97001 3.97 7.45001 4.92C7.01001 5.71 6.85001 5.92 6.82001 5.95C6.61001 6.17 6.34001 6.29 6.07001 6.3C3.97001 6.3 2.26001 8.01 2.26001 10.11V15.75C2.26001 18.43 4.44001 20.61 7.12001 20.61H16.91C19.59 20.61 21.77 18.43 21.77 15.75V10.11C21.77 8.01 20.06 6.3 17.99 6.3H17.97ZM20.25 15.76C20.25 17.61 18.75 19.12 16.89 19.12H7.11001C5.26001 19.12 3.75001 17.61 3.75001 15.76V10.12C3.75001 8.85 4.79001 7.81 6.09001 7.81C6.78001 7.78 7.42001 7.49 7.91001 6.98C8.04001 6.83 8.26001 6.55 8.75001 5.66C9.01001 5.19 9.51001 4.89 10.05 4.89H13.96C14.51 4.89 15.01 5.19 15.27 5.68C15.74 6.56 15.96 6.84 16.1 6.99C16.58 7.49 17.22 7.78 17.94 7.81C19.21 7.81 20.25 8.85 20.25 10.12V15.76ZM17.17 9.11001C16.76 9.11001 16.42 9.48001 16.42 9.89001C16.42 10.3 16.76 10.64 17.17 10.64C17.58 10.64 17.92 10.3 17.92 9.89001V9.83001C17.92 9.42001 17.58 9.11001 17.17 9.11001ZM8.16003 13.1C8.16003 10.98 9.88003 9.26001 12 9.26001C14.12 9.26001 15.84 10.98 15.84 13.1C15.84 15.22 14.12 16.94 12 16.94C9.88003 16.94 8.16003 15.22 8.16003 13.1ZM9.66003 13.11C9.66003 14.4 10.71 15.45 12 15.45C13.29 15.45 14.34 14.4 14.34 13.11C14.34 11.82 13.29 10.77 12 10.77C10.71 10.77 9.66003 11.82 9.66003 13.11Z" fill="black"/>
</svg>
