<svg width="24" height="24" viewBox="0 0 24 24" fill="none" xmlns="http://www.w3.org/2000/svg">
<path fill-rule="evenodd" clip-rule="evenodd" d="M17.2 5.96C17.4 6.16 17.67 6.29 17.97 6.3H17.99C20.06 6.3 21.77 8.01 21.77 10.11V15.75C21.77 18.43 19.59 20.61 16.91 20.61H7.12001C4.44001 20.61 2.26001 18.43 2.26001 15.75V10.11C2.26001 8.01 3.97001 6.3 6.07001 6.3C6.34001 6.29 6.61001 6.17 6.82001 5.95C6.85001 5.92 7.01001 5.71 7.45001 4.92C7.97001 3.97 8.98001 3.38 10.06 3.38H13.97C15.07 3.38 16.08 3.99 16.6 4.96C17.02 5.75 17.18 5.94 17.2 5.96ZM16.89 19.12C18.75 19.12 20.25 17.61 20.25 15.76V10.12C20.25 8.85 19.21 7.81 17.94 7.81C17.22 7.78 16.58 7.49 16.1 6.99C15.96 6.84 15.74 6.56 15.27 5.68C15.01 5.19 14.51 4.89 13.96 4.89H10.05C9.51001 4.89 9.01001 5.19 8.75001 5.66C8.26001 6.55 8.04001 6.83 7.91001 6.98C7.42001 7.49 6.78001 7.78 6.09001 7.81C4.79001 7.81 3.75001 8.85 3.75001 10.12V15.76C3.75001 17.61 5.26001 19.12 7.11001 19.12H16.89ZM12.75 12.26H14.52C14.93 12.26 15.27 12.6 15.27 13.01C15.27 13.42 14.93 13.76 14.52 13.76H12.75V15.54C12.75 15.95 12.41 16.29 12 16.29C11.59 16.29 11.25 15.95 11.25 15.54V13.76H9.46997C9.05997 13.76 8.71997 13.42 8.71997 13.01C8.71997 12.6 9.05997 12.26 9.46997 12.26H11.25V10.49C11.25 10.08 11.59 9.74001 12 9.74001C12.41 9.74001 12.75 10.08 12.75 10.49V12.26Z" fill="black"/>
</svg>
