<svg width="24" height="24" viewBox="0 0 24 24" fill="none" xmlns="http://www.w3.org/2000/svg">
<path fill-rule="evenodd" clip-rule="evenodd" d="M2.25 6.5C2.25 3.63 2.43 2.25 6.5 2.25C10.57 2.25 10.75 3.63 10.75 6.5C10.75 7.94 10.75 8.96 10.15 9.71C9.45 10.57 8.19 10.75 6.5 10.75C4.81 10.75 3.55 10.57 2.85 9.71C2.25 8.96 2.25 7.93 2.25 6.52L3 6.5H2.25ZM6.5 9.25C7.93 9.25 8.72 9.1 8.98 8.77C9.25 8.44 9.25 7.64 9.25 6.53C9.25 3.97 9.25 3.76 6.5 3.76C3.75 3.76 3.75 3.97 3.75 6.51V6.53C3.75 7.63 3.75 8.43 4.02 8.77C4.29 9.1 5.07 9.25 6.5 9.25ZM17.5 10.75C15.81 10.75 14.55 10.57 13.85 9.71C13.25 8.96 13.25 7.93 13.25 6.52L14 6.5H13.25C13.25 3.63 13.43 2.25 17.5 2.25C21.57 2.25 21.75 3.63 21.75 6.5C21.75 7.94 21.75 8.96 21.15 9.71C20.45 10.57 19.19 10.75 17.5 10.75ZM17.5 3.75C14.75 3.75 14.75 3.96 14.75 6.5V6.52C14.75 7.63 14.75 8.43 15.02 8.77C15.29 9.1 16.07 9.25 17.5 9.25C18.93 9.25 19.72 9.1 19.98 8.77C20.25 8.43 20.25 7.63 20.25 6.52C20.25 3.96 20.25 3.75 17.5 3.75ZM6.5 13.25C2.43 13.25 2.25 14.63 2.25 17.5H3L2.25 17.53C2.25 18.94 2.25 19.97 2.85 20.71C3.55 21.57 4.81 21.75 6.5 21.75C8.19 21.75 9.45 21.57 10.15 20.71C10.75 19.96 10.75 18.94 10.75 17.5C10.75 14.63 10.57 13.25 6.5 13.25ZM8.98 19.77C8.72 20.1 7.93 20.25 6.5 20.25C5.07 20.25 4.29 20.1 4.02 19.77C3.75 19.43 3.75 18.63 3.75 17.53V17.5C3.75 14.96 3.75 14.75 6.5 14.75C9.25 14.75 9.25 14.96 9.25 17.53C9.25 18.64 9.25 19.44 8.98 19.77ZM13.25 17.5C13.25 14.63 13.43 13.25 17.5 13.25C21.57 13.25 21.75 14.63 21.75 17.5C21.75 18.94 21.75 19.96 21.15 20.71C20.45 21.57 19.19 21.75 17.5 21.75C15.81 21.75 14.55 21.57 13.85 20.71C13.25 19.96 13.25 18.93 13.25 17.52L14 17.5H13.25ZM17.5 20.25C18.93 20.25 19.72 20.1 19.98 19.77C20.25 19.44 20.25 18.64 20.25 17.53C20.25 14.97 20.25 14.76 17.5 14.76C14.75 14.76 14.75 14.97 14.75 17.51V17.53C14.75 18.63 14.75 19.43 15.02 19.77C15.29 20.1 16.07 20.25 17.5 20.25Z" fill="black"/>
</svg>
