<svg width="24" height="24" viewBox="0 0 24 24" fill="none" xmlns="http://www.w3.org/2000/svg">
<path fill-rule="evenodd" clip-rule="evenodd" d="M7.31 1.25H16.68C20.3 1.25 22.74 3.79 22.74 7.58V16.41C22.74 20.19 20.31 22.74 16.68 22.74H7.31C3.69 22.74 1.25 20.2 1.25 16.41V7.58C1.25 3.8 3.69 1.25 7.31 1.25ZM16.69 21.25C19.46 21.25 21.25 19.36 21.25 16.42L21.24 16.41V7.58C21.24 4.65 19.45 2.75 16.68 2.75H7.31C4.54 2.75 2.75 4.64 2.75 7.58V16.42C2.75 19.35 4.54 21.25 7.31 21.25H16.69ZM11.29 6.92001C11.29 6.51001 11.63 6.17001 12.04 6.17001C12.45 6.17001 12.79 6.51001 12.79 6.92001V17.06C12.79 17.47 12.45 17.81 12.04 17.81C11.63 17.81 11.29 17.47 11.29 17.06V6.92001ZM6.62 10.2C6.62 9.79001 6.96 9.45001 7.37 9.45001C7.77999 9.45001 8.12 9.79001 8.12 10.2V17.06C8.12 17.47 7.77999 17.81 7.37 17.81C6.96 17.81 6.62 17.47 6.62 17.06V10.2ZM16.63 13.08C16.22 13.08 15.88 13.42 15.88 13.83V17.06C15.88 17.47 16.22 17.81 16.63 17.81C17.04 17.81 17.38 17.47 17.38 17.06V13.83C17.38 13.42 17.04 13.08 16.63 13.08Z" fill="black"/>
</svg>
