<svg width="24" height="24" viewBox="0 0 24 24" fill="none" xmlns="http://www.w3.org/2000/svg">
<path fill-rule="evenodd" clip-rule="evenodd" d="M6.94995 2.55001H16.67L16.68 2.54001C19.16 2.54001 21.18 4.56001 21.18 7.04001V13.68C21.18 16.16 19.16 18.18 16.68 18.18H15.65C15.28 18.18 14.95 18.33 14.69 18.58L13.32 19.95C12.92 20.36 12.38 20.58 11.81 20.58C11.24 20.58 10.7 20.35 10.3 19.95L8.93995 18.59C8.67995 18.33 8.33995 18.19 7.97995 18.19H6.94995C4.46995 18.19 2.44995 16.17 2.44995 13.69V7.05001C2.44995 4.57001 4.46995 2.55001 6.94995 2.55001ZM16.67 16.75C18.36 16.75 19.7299 15.38 19.7299 13.69V7.06001C19.7299 5.37001 18.36 4.00001 16.67 4.00001H6.94995C5.25995 4.00001 3.88995 5.37001 3.88995 7.06001V13.7C3.88995 15.39 5.25995 16.76 6.94995 16.76H7.97995C8.71995 16.76 9.41995 17.05 9.94995 17.58L11.31 18.94C11.58 19.2 12.04 19.2 12.3 18.94L13.67 17.57C14.19 17.04 14.89 16.75 15.64 16.75H16.67ZM14.6599 10.39C14.6599 9.84999 15.0999 9.39999 15.6499 9.39999C16.1899 9.39999 16.6399 9.84999 16.6399 10.39C16.6399 10.93 16.1899 11.38 15.6499 11.38C15.1099 11.38 14.6599 10.93 14.6599 10.39ZM11.8101 11.38C12.3568 11.38 12.8001 10.9368 12.8001 10.39C12.8001 9.84323 12.3568 9.39999 11.8101 9.39999C11.2633 9.39999 10.8201 9.84323 10.8201 10.39C10.8201 10.9368 11.2633 11.38 11.8101 11.38ZM6.96997 10.39C6.96997 9.84999 7.40997 9.39999 7.95997 9.39999C8.49997 9.39999 8.94997 9.84999 8.94997 10.39C8.94997 10.93 8.49997 11.38 7.95997 11.38C7.41997 11.38 6.96997 10.93 6.96997 10.39Z" fill="black"/>
</svg>
