<svg width="24" height="24" viewBox="0 0 24 24" fill="none" xmlns="http://www.w3.org/2000/svg">
<path fill-rule="evenodd" clip-rule="evenodd" d="M17.5299 2.58996H10.0099C7.99994 2.58996 6.35994 4.21996 6.35994 6.22996V6.25996H6.08994C4.07994 6.25996 2.43994 7.89996 2.43994 9.89996V15.04C2.43994 17.05 4.07994 18.68 6.08994 18.68H6.87994C7.11994 18.68 7.33994 18.77 7.49994 18.94L8.54994 19.99C8.89994 20.34 9.36994 20.52 9.83994 20.52C10.3099 20.52 10.7699 20.34 11.1199 19.99L12.1799 18.93C12.3499 18.76 12.5699 18.67 12.7999 18.67H13.5899C15.5999 18.67 17.2299 17.04 17.2299 15.03V15.01H17.4999C19.5099 15.01 21.1399 13.37 21.1399 11.36V6.21996C21.1399 4.20996 19.5099 2.57996 17.4999 2.57996L17.5299 2.58996ZM15.8199 15.04C15.8199 16.26 14.8299 17.25 13.6099 17.25H12.8199C12.1999 17.25 11.6199 17.49 11.1799 17.93L10.1199 18.99C9.97994 19.13 9.72994 19.13 9.58994 18.99L8.52994 17.94C8.08994 17.5 7.50994 17.26 6.88994 17.26H6.09994C4.87994 17.26 3.89994 16.27 3.89994 15.05V9.90996C3.89994 8.68996 4.88994 7.70996 6.09994 7.70996H7.08994H13.6099C14.8299 7.70996 15.8199 8.69996 15.8199 9.90996V15.04ZM19.7399 11.37C19.7399 12.59 18.7499 13.58 17.5399 13.58H17.2699V9.90996C17.2699 7.89996 15.6399 6.26996 13.6299 6.26996H7.81994V6.23996C7.81994 5.02996 8.80994 4.03996 10.0299 4.03996H17.5499C18.7599 4.03996 19.7499 5.02996 19.7499 6.23996V11.38L19.7399 11.37ZM11.95 11.62C11.4 11.62 10.96 12.07 10.96 12.61C10.96 13.15 11.41 13.6 11.95 13.6C12.49 13.6 12.94 13.15 12.94 12.61C12.94 12.07 12.49 11.62 11.95 11.62ZM6.46997 12.61C6.46997 12.07 6.90997 11.62 7.45997 11.62C7.99997 11.62 8.44997 12.07 8.44997 12.61C8.44997 13.15 7.99997 13.6 7.45997 13.6C6.91997 13.6 6.46997 13.15 6.46997 12.61Z" fill="black"/>
</svg>
