<svg width="24" height="24" viewBox="0 0 24 24" fill="none" xmlns="http://www.w3.org/2000/svg">
<path d="M12 2.25C6.62 2.25 2.25 6.62 2.25 12C2.25 17.38 6.62 21.75 12 21.75C17.38 21.75 21.75 17.38 21.75 12C21.75 6.62 17.38 2.25 12 2.25ZM12 20.25C7.45 20.25 3.75 16.55 3.75 12C3.75 7.45 7.45 3.75 12 3.75C16.55 3.75 20.25 7.45 20.25 12C20.25 16.55 16.55 20.25 12 20.25Z" fill="black"/>
<path d="M14.93 9.16L10.84 13.25L9.06 11.47C8.77 11.18 8.29 11.18 8 11.47C7.71 11.76 7.71 12.24 8 12.53L10.31 14.84C10.46 14.99 10.65 15.06 10.84 15.06C11.03 15.06 11.22 14.99 11.37 14.84L15.99 10.22C16.28 9.93 16.28 9.45 15.99 9.16C15.7 8.87 15.22 8.87 14.93 9.16Z" fill="black"/>
</svg>
