<svg width="24" height="24" viewBox="0 0 24 24" fill="none" xmlns="http://www.w3.org/2000/svg">
<path fill-rule="evenodd" clip-rule="evenodd" d="M2.25 12C2.25 6.62 6.62 2.25 12 2.25C17.38 2.25 21.75 6.62 21.75 12C21.75 17.38 17.38 21.75 12 21.75C6.62 21.75 2.25 17.38 2.25 12ZM3.75 12C3.75 16.55 7.45 20.25 12 20.25C16.55 20.25 20.25 16.55 20.25 12C20.25 7.45 16.55 3.75 12 3.75C7.45 3.75 3.75 7.45 3.75 12ZM10.84 13.25L14.93 9.16001C15.22 8.87 15.7 8.87 15.99 9.16001C16.28 9.45001 16.28 9.93001 15.99 10.22L11.37 14.84C11.22 14.99 11.03 15.06 10.84 15.06C10.65 15.06 10.46 14.99 10.31 14.84L7.99997 12.53C7.70997 12.24 7.70997 11.76 7.99997 11.47C8.28997 11.18 8.76997 11.18 9.05997 11.47L10.84 13.25Z" fill="black"/>
</svg>
