<svg width="24" height="24" viewBox="0 0 24 24" fill="none" xmlns="http://www.w3.org/2000/svg">
<path fill-rule="evenodd" clip-rule="evenodd" d="M20.5799 8.98C20.7299 9.44 20.8499 9.91001 20.9199 10.39L20.8899 10.37C20.9599 10.85 20.9999 11.34 20.9999 11.82C21.0099 12.49 20.9399 13.14 20.7799 13.8V13.85C20.5699 14.79 20.1999 15.69 19.6799 16.54C19.4199 17.01 19.0699 17.48 18.6699 17.92C18.0499 18.61 17.3399 19.18 16.5599 19.65L16.6699 19.68C17.0499 19.79 17.2799 20.19 17.1699 20.57C17.0899 20.89 16.7999 21.1 16.4799 21.1C16.4199 21.1 16.3499 21.09 16.2899 21.07L14.4199 20.55C14.1299 20.54 13.8599 20.35 13.7699 20.06C13.7199 19.91 13.7399 19.77 13.7799 19.63L14.3499 17.63C14.4599 17.24 14.8499 17.02 15.2399 17.13C15.6299 17.24 15.8499 17.64 15.7399 18.02L15.5899 18.57L15.7099 18.51C16.4199 18.11 17.0499 17.59 17.6099 16.97C17.9499 16.61 18.2299 16.22 18.4599 15.82C18.8999 15.1 19.2099 14.36 19.3799 13.6C19.3899 13.58 19.3899 13.55 19.3899 13.53C19.5299 12.96 19.5899 12.41 19.5899 11.83C19.5999 11.42 19.5599 11.01 19.4999 10.6C19.4299 10.2 19.3399 9.8 19.2099 9.41C19.0499 8.89001 18.8299 8.4 18.5599 7.94C18.1499 7.22001 17.6299 6.59 17.0199 6.04C16.6699 5.73 16.2799 5.44 15.8599 5.19C15.1399 4.75 14.3799 4.45 13.5899 4.27C13.0299 4.13 12.4899 4.07 11.8599 4.07C11.4599 4.07 11.1399 3.75 11.1399 3.35C11.1399 2.95 11.4399 2.64 11.8799 2.63C12.5799 2.63 13.2599 2.71 13.9099 2.87C14.8499 3.08 15.7599 3.44 16.5999 3.96C17.0899 4.26 17.5599 4.6 17.9799 4.98C18.6999 5.63 19.3199 6.39 19.7999 7.23C20.1199 7.77 20.3799 8.36 20.5799 8.98ZM7.62012 5.20997C7.74012 5.20997 7.87012 5.17997 7.98012 5.10997C8.43012 4.83997 8.92012 4.62997 9.44012 4.45997C9.82012 4.33997 10.0301 3.92997 9.91012 3.54997C9.79012 3.16997 9.39012 2.96997 9.00012 3.07997C8.39012 3.27997 7.80012 3.53997 7.25012 3.85997C6.91012 4.05997 6.79012 4.49997 6.99012 4.84997C7.12012 5.07997 7.36012 5.20997 7.61012 5.20997H7.62012ZM4.60008 8.15001C4.48008 8.15001 4.35008 8.12001 4.23008 8.05001V8.04001C3.89008 7.83001 3.78008 7.39001 3.99008 7.05001C4.28008 6.57001 4.61008 6.12001 5.00008 5.68001C5.27008 5.39001 5.72008 5.36001 6.02008 5.62001C6.31008 5.89001 6.34008 6.34001 6.08008 6.64001C5.75008 7.01001 5.47008 7.40001 5.22008 7.80001C5.08008 8.03001 4.84008 8.15001 4.60008 8.15001ZM12.3699 12.44C12.3699 12.71 12.2099 12.96 11.9699 13.08L11.9599 13.09L9.38989 14.38C9.28989 14.44 9.17988 14.46 9.06989 14.46C8.80989 14.46 8.55989 14.31 8.42989 14.06C8.24989 13.7 8.38989 13.27 8.74989 13.09L10.9299 12V8.59C10.9299 8.19 11.2499 7.87 11.6499 7.87C12.0499 7.87 12.3699 8.19 12.3699 8.59V12.44ZM4.48994 14.23C4.36994 13.85 3.96994 13.64 3.58994 13.76C3.20994 13.88 2.99994 14.29 3.11994 14.66C3.30994 15.24 3.56994 15.83 3.89994 16.4C4.02994 16.63 4.27994 16.76 4.51994 16.76C4.63994 16.76 4.76994 16.73 4.87994 16.66C5.21994 16.46 5.33994 16.02 5.13994 15.68C4.85994 15.2 4.63994 14.71 4.48994 14.22V14.23ZM10.1199 19.37C10.6699 19.51 11.2899 19.57 11.8299 19.57L11.8399 19.56C12.2399 19.56 12.5599 19.88 12.5599 20.28C12.5599 20.68 12.2199 21.01 11.8099 21C11.1299 21 10.4499 20.92 9.80989 20.77C9.50988 20.71 9.26988 20.46 9.23988 20.14C9.19988 19.75 9.47989 19.39 9.87988 19.35C9.95988 19.35 10.0399 19.35 10.1199 19.37ZM7.83996 18.43C7.42996 18.19 7.03996 17.9 6.68996 17.59C6.38996 17.33 5.93996 17.35 5.66996 17.64C5.39996 17.93 5.42996 18.39 5.71996 18.66C6.13996 19.04 6.59996 19.38 7.09996 19.67C7.20996 19.74 7.33996 19.77 7.45996 19.77C7.70996 19.77 7.94996 19.64 8.07996 19.42C8.27996 19.08 8.16996 18.64 7.81996 18.43H7.83996ZM4.10991 11.81C4.10991 12.2 3.78991 12.53 3.38991 12.53L3.37991 12.54C2.97991 12.54 2.65991 12.22 2.65991 11.82C2.65991 11.11 2.73991 10.41 2.89991 9.75002C2.98991 9.36002 3.37991 9.13002 3.76991 9.22002C4.15991 9.31002 4.38991 9.70002 4.29991 10.09C4.16991 10.64 4.10991 11.22 4.10991 11.81Z" fill="black"/>
</svg>
