<svg width="24" height="24" viewBox="0 0 24 24" fill="none" xmlns="http://www.w3.org/2000/svg">
<path fill-rule="evenodd" clip-rule="evenodd" d="M11.8501 2.64001C14.3501 2.64001 16.6901 3.62001 18.4601 5.39001H18.4701C20.2301 7.16001 21.2001 9.51001 21.2001 12.01C21.2001 14.51 20.2201 16.85 18.4501 18.62C16.6801 20.38 14.3301 21.35 11.8401 21.35H11.8301C10.6701 21.35 9.5501 21.14 8.4801 20.73C8.1101 20.59 7.9301 20.17 8.0701 19.8C8.2101 19.43 8.6301 19.25 9.0001 19.39C9.9001 19.74 10.8501 19.92 11.8301 19.92H11.8401C13.9501 19.92 15.9301 19.1 17.4301 17.61C18.9301 16.11 19.7601 14.13 19.7601 12.01C19.7601 7.64001 16.2201 4.08001 11.8501 4.08001C11.4501 4.08001 11.1301 3.76001 11.1301 3.36001C11.1301 2.96001 11.4501 2.64001 11.8501 2.64001ZM8.59995 4.45003C8.70995 4.52003 8.83995 4.55003 8.95995 4.55003C9.20995 4.55003 9.44995 4.42003 9.57995 4.19003C9.77995 3.84003 9.65995 3.40003 9.30995 3.20003C8.96995 3.00003 8.51995 3.12003 8.31995 3.47003C8.11995 3.81003 8.23995 4.25003 8.57995 4.45003H8.59995ZM14.2701 15.09C14.3901 15.16 14.5101 15.19 14.6401 15.19C14.8901 15.19 15.1201 15.07 15.2601 14.84C15.4601 14.5 15.3501 14.06 15.0101 13.85L12.3001 12.23V8.68002C12.3001 8.28002 11.9801 7.96002 11.5801 7.96002C11.1801 7.96002 10.8601 8.28002 10.8601 8.68002V12.64C10.8601 12.89 10.9901 13.13 11.2101 13.26L14.2701 15.09ZM5.68009 5.70999C6.02009 5.91999 6.12009 6.35999 5.91009 6.70999L5.89009 6.69999C5.75009 6.91999 5.52009 7.03999 5.28009 7.03999C5.15009 7.03999 5.02009 7.00999 4.90009 6.92999C4.57009 6.71999 4.47009 6.27999 4.68009 5.93999C4.90009 5.59999 5.34009 5.49999 5.68009 5.70999ZM3.33007 11.03C3.58007 11.03 3.82007 10.9 3.95007 10.67C4.15007 10.32 4.03007 9.88001 3.68007 9.68001C3.34007 9.48001 2.89007 9.60001 2.69007 9.95001C2.49007 10.29 2.61007 10.73 2.95007 10.93C3.06007 11 3.19007 11.03 3.31007 11.03H3.33007ZM2.95004 14.31C3.15004 13.97 3.60004 13.86 3.94004 14.07V14.08C4.28004 14.28 4.39004 14.72 4.18004 15.07C4.05004 15.29 3.81004 15.41 3.57004 15.41C3.44004 15.41 3.31004 15.37 3.19004 15.3C2.85004 15.09 2.74004 14.65 2.95004 14.31ZM5.38004 17.9C5.14004 18.22 5.21004 18.67 5.52004 18.91C5.65004 19.01 5.80003 19.05 5.95004 19.05C6.17003 19.05 6.39004 18.95 6.53004 18.76C6.77004 18.43 6.70004 17.99 6.38004 17.75C6.06004 17.51 5.61003 17.58 5.37004 17.9H5.38004Z" fill="black"/>
</svg>
