<svg width="24" height="24" viewBox="0 0 24 24" fill="none" xmlns="http://www.w3.org/2000/svg">
<path d="M13.0599 12L18.5299 6.53C18.8199 6.24 18.8199 5.76 18.5299 5.47C18.2399 5.18 17.7599 5.18 17.4699 5.47L11.9999 10.94L6.52994 5.47C6.23994 5.18 5.75994 5.18 5.46994 5.47C5.17994 5.76 5.17994 6.24 5.46994 6.53L10.9399 12L5.46994 17.47C5.17994 17.76 5.17994 18.24 5.46994 18.53C5.61994 18.68 5.80994 18.75 5.99994 18.75C6.18994 18.75 6.37994 18.68 6.52994 18.53L11.9999 13.06L17.4699 18.53C17.6199 18.68 17.8099 18.75 17.9999 18.75C18.1899 18.75 18.3799 18.68 18.5299 18.53C18.8199 18.24 18.8199 17.76 18.5299 17.47L13.0599 12Z" fill="black"/>
</svg>
