<svg width="24" height="24" viewBox="0 0 24 24" fill="none" xmlns="http://www.w3.org/2000/svg">
<path fill-rule="evenodd" clip-rule="evenodd" d="M16.4498 6.16002H20.1698L20.1798 6.17002C20.5798 6.17002 20.8998 6.49002 20.8998 6.89002C20.8998 7.29002 20.5798 7.61002 20.1798 7.61002H4.30984C3.90984 7.61002 3.58984 7.29002 3.58984 6.89002C3.58984 6.49002 3.90984 6.17002 4.30984 6.17002H8.03984L8.39984 4.37002C8.62984 3.48002 9.38984 2.90002 10.2598 2.90002H14.2198C15.0798 2.90002 15.8498 3.48002 16.0698 4.32002L16.4498 6.16002ZM10.2498 4.34002C10.0398 4.34002 9.84984 4.48002 9.78984 4.69002L9.48984 6.16002H14.9698L14.6598 4.65002C14.6198 4.49002 14.4298 4.34002 14.2098 4.34002H10.2498ZM18.1599 9.84999C18.1899 9.44999 18.5099 9.15999 18.9299 9.17999H18.9099C19.3099 9.20999 19.6099 9.54999 19.5799 9.94999L18.9899 17.99C18.8499 20.02 17.1299 21.61 15.0999 21.61H9.34987C7.31987 21.61 5.60987 20.02 5.45987 17.99L4.86987 9.94999C4.84987 9.54999 5.13987 9.20999 5.53987 9.17999C5.91987 9.15999 6.27987 9.44999 6.30987 9.84999L6.89987 17.89C6.99987 19.18 8.07987 20.18 9.35987 20.18H15.1099C16.3999 20.18 17.4799 19.17 17.5699 17.89L18.1599 9.84999ZM14.3798 16.37V12.04C14.3798 11.64 14.0598 11.32 13.6598 11.32C13.2598 11.32 12.9398 11.64 12.9398 12.04V16.37C12.9398 16.77 13.2598 17.09 13.6598 17.09C14.0598 17.09 14.3798 16.77 14.3798 16.37ZM11.1398 12.04V16.37C11.1398 16.77 10.8198 17.09 10.4198 17.09C10.0198 17.09 9.69983 16.77 9.69983 16.37V12.04C9.69983 11.64 10.0198 11.32 10.4198 11.32C10.8198 11.32 11.1398 11.64 11.1398 12.04Z" fill="black"/>
</svg>
