<svg width="24" height="24" viewBox="0 0 24 24" fill="none" xmlns="http://www.w3.org/2000/svg">
<path fill-rule="evenodd" clip-rule="evenodd" d="M18.6901 11.28C19.5801 11.28 20.3401 11.6 20.8901 12.19V12.18C21.4201 12.75 21.7001 13.52 21.6901 14.41V18.22C21.6901 20.06 20.4501 21.34 18.6801 21.34H14.6301C13.6801 21.33 12.8801 20.95 12.3501 20.31C11.8101 20.96 11.0101 21.35 10.0501 21.35H10.0401H5.99005C4.21005 21.34 2.98005 20.05 2.99005 18.21V14.4C2.99005 12.56 4.23005 11.28 6.00005 11.28H7.24005C6.97005 10.8 6.81005 10.23 6.82005 9.58002V5.77002C6.83005 3.93002 8.07005 2.65002 9.84005 2.65002H13.8901C14.7801 2.65002 15.5401 2.97002 16.0901 3.56002C16.6201 4.13002 16.9001 4.90002 16.89 5.79002V9.60002C16.89 10.23 16.7301 10.8 16.46 11.28H18.6901ZM9.83005 4.07002C8.85005 4.07002 8.26005 4.70002 8.26005 5.76002L8.25005 5.78002V9.59002C8.25005 10.63 8.85005 11.28 9.82005 11.28H13.8701C14.85 11.28 15.4401 10.65 15.4501 9.59002V5.78002C15.4501 5.26002 15.3101 4.83002 15.0301 4.53002C14.76 4.24002 14.3601 4.08002 13.8801 4.07002H9.83005ZM5.99005 19.91H10.0401V19.92C11.0201 19.92 11.6101 19.29 11.6201 18.23V14.42C11.6201 13.9 11.4801 13.47 11.2001 13.17C10.9301 12.88 10.5301 12.72 10.0501 12.71H6.00005C5.02005 12.71 4.43005 13.34 4.42005 14.4V18.21C4.42005 19.25 5.02005 19.9 5.99005 19.91ZM18.6801 19.91C19.6601 19.91 20.2501 19.28 20.2501 18.22V14.42C20.2501 13.9 20.1101 13.47 19.8301 13.17C19.5601 12.88 19.1601 12.72 18.6801 12.71H14.6301C13.6501 12.71 13.0601 13.34 13.0601 14.4V18.13V18.21C13.0601 19.25 13.6601 19.9 14.6301 19.91H18.6801ZM15.69 14.16H17.61C18.01 14.16 18.33 14.48 18.33 14.88C18.33 15.28 18.01 15.6 17.61 15.6H15.69C15.29 15.6 14.97 15.28 14.97 14.88C14.97 14.48 15.29 14.16 15.69 14.16ZM8.97997 14.16H7.05997C6.65997 14.16 6.33997 14.48 6.33997 14.88C6.33997 15.28 6.65997 15.6 7.05997 15.6H8.97997C9.37997 15.6 9.69997 15.28 9.69997 14.88C9.69997 14.48 9.37997 14.16 8.97997 14.16ZM12.81 6.96002H10.89C10.49 6.96002 10.17 6.64002 10.17 6.24002C10.17 5.84002 10.49 5.52002 10.89 5.52002H12.81C13.21 5.52002 13.53 5.84002 13.53 6.24002C13.53 6.64002 13.21 6.96002 12.81 6.96002Z" fill="black"/>
</svg>
