<svg width="24" height="24" viewBox="0 0 24 24" fill="none" xmlns="http://www.w3.org/2000/svg">
<path fill-rule="evenodd" clip-rule="evenodd" d="M20 7.47C20.72 8.17999 21.07 8.53 21.31 8.97V8.96C21.89 10.02 21.89 11.29 21.31 12.35C21.07 12.79 20.71 13.15 20.01 13.85L13.86 20.01C13.16 20.71 12.81 21.06 12.37 21.3C11.84 21.59 11.25 21.74 10.67 21.74C10.09 21.74 9.49996 21.59 8.96996 21.3C8.52996 21.06 8.17996 20.71 7.47996 20.01L7.4066 19.9333L7.40657 19.9332C7.2482 19.7678 7.17495 19.6912 7.13996 19.63C6.91996 19.31 6.86996 19.12 6.90996 18.74C6.91892 18.6235 6.95197 18.507 7.06665 18.1028L7.10996 17.95C7.20996 17.62 7.12996 17.31 6.91996 17.08C6.66996 16.83 6.33996 16.75 6.01996 16.85C5.50996 17.01 5.36996 17.05 5.23996 17.06C4.85996 17.1 4.65996 17.05 4.33996 16.84C4.26996 16.8 4.16996 16.71 3.96996 16.51L3.87455 16.4146C3.23676 15.7773 2.89881 15.4395 2.66996 15.02C2.08996 13.95 2.07996 12.68 2.66996 11.62C2.90996 11.19 3.26996 10.83 3.96996 10.13L10.12 3.98L10.2619 3.83996C10.8787 3.23092 11.2103 2.90345 11.62 2.68C12.68 2.1 13.95 2.1 15.01 2.68C15.45 2.92 15.81 3.27999 16.51 3.98C16.69 4.16 16.77 4.25 16.85 4.35999C17.07 4.68 17.11 4.88 17.07 5.26C17.06 5.38 17.02 5.51 16.86 6.02999C16.76 6.35 16.84 6.68 17.07 6.91C17.3 7.14999 17.63 7.23 17.95 7.13C18.0978 7.08736 18.2141 7.0528 18.3078 7.02494C18.5439 6.9548 18.6369 6.92715 18.73 6.92C19.12 6.88 19.31 6.93 19.63 7.14C19.71 7.19 19.81 7.27999 20 7.47ZM18.95 12.8C19.54 12.22 19.86 11.89 20 11.64L20.01 11.63C20.34 11.03 20.34 10.3 20.01 9.68999C19.87 9.44 19.54 9.11001 18.96 8.53003L18.96 8.52999L18.85 8.42L18.7647 8.44531L18.7646 8.44533C18.6746 8.47192 18.561 8.50544 18.42 8.55C17.56 8.81 16.64 8.59 16.02 7.96C15.4 7.34 15.18 6.43 15.44 5.58C15.4588 5.51722 15.4757 5.46035 15.4909 5.40908L15.4909 5.40894L15.491 5.40863C15.5242 5.2968 15.5494 5.21166 15.57 5.14999L15.46 5.04C14.88 4.45 14.55 4.12999 14.3 3.99C13.7 3.66 12.97 3.66 12.36 3.99C12.1397 4.11336 11.865 4.38425 11.3992 4.84373C11.3364 4.90569 11.2701 4.97108 11.2 5.04L5.04996 11.19L4.96906 11.2723L4.96905 11.2723C4.43996 11.8102 4.14331 12.1119 4.00996 12.35C3.66996 12.96 3.66996 13.69 4.00996 14.3C4.13103 14.5421 4.42558 14.8363 4.93399 15.3441L5.04996 15.46L5.15996 15.57L5.24526 15.5447C5.33531 15.5181 5.44885 15.4846 5.58996 15.44C6.43996 15.18 7.35996 15.4 7.97996 16.03C8.59996 16.69 8.79996 17.56 8.56996 18.36C8.52576 18.5052 8.49353 18.6185 8.46822 18.7075L8.46817 18.7077C8.45341 18.7596 8.44101 18.8032 8.42996 18.84L8.50996 18.92C9.11996 19.53 9.43996 19.85 9.68996 19.99C10.3 20.33 11.03 20.33 11.64 19.99C11.89 19.85 12.21 19.54 12.79 18.96L18.95 12.8ZM11.3201 8.5C11.3201 8.09 11.6601 7.75 12.0701 7.75C12.4801 7.75 12.8201 8.09 12.8201 8.5V15.43C12.8201 15.84 12.4801 16.18 12.0701 16.18C11.6601 16.18 11.3201 15.84 11.3201 15.43V8.5ZM16.0599 11.33C15.6999 10.97 15.0799 10.98 14.7199 11.33C14.3499 11.7 14.3499 12.3 14.7199 12.66C14.8999 12.84 15.1399 12.94 15.3899 12.94C15.6399 12.94 15.8799 12.84 16.0599 12.66C16.4299 12.29 16.4299 11.69 16.0599 11.33ZM7.9899 12.67C7.6199 12.3 7.6199 11.7 7.9899 11.33C8.3599 10.96 8.9599 10.96 9.3299 11.33C9.6999 11.7 9.6999 12.3 9.3299 12.67C9.1499 12.86 8.8999 12.95 8.6599 12.95C8.4199 12.95 8.1699 12.85 7.9899 12.67Z" fill="black"/>
</svg>
