<svg width="24" height="24" viewBox="0 0 24 24" fill="none" xmlns="http://www.w3.org/2000/svg">
<path fill-rule="evenodd" clip-rule="evenodd" d="M20.41 13.0099C20.95 13.2999 21.09 13.3799 21.2 13.4599H21.22C21.55 13.7299 21.66 13.9099 21.74 14.3199C21.77 14.4199 21.77 14.5699 21.77 14.8799C21.77 16.0299 21.77 16.6099 21.61 17.1599C21.23 18.4799 20.21 19.4999 18.89 19.8799C18.34 20.0399 17.76 20.0399 16.61 20.0399H7.42001C6.27001 20.0399 5.69001 20.0399 5.15001 19.8799C3.82001 19.4899 2.80001 18.4699 2.42001 17.1499C2.26001 16.5999 2.26001 16.0299 2.26001 14.8799C2.26001 14.5699 2.27001 14.4099 2.29001 14.3199C2.37001 13.8999 2.46001 13.7399 2.79001 13.4699C2.90001 13.3799 3.04001 13.2999 3.57001 13.0099C3.98001 12.7899 4.21001 12.4199 4.22001 12.0199C4.22001 11.5499 3.99001 11.1699 3.60001 10.9699C3.05001 10.6799 2.92001 10.6099 2.81001 10.5199C2.48001 10.2499 2.37001 10.0799 2.29001 9.65994C2.27001 9.56994 2.26001 9.41994 2.26001 9.12994C2.26001 7.94994 2.26001 7.37994 2.42001 6.82994C2.80001 5.49994 3.82001 4.47994 5.14001 4.09994C5.68001 3.93994 6.26001 3.93994 7.41 3.93994H7.41001H16.59C17.75 3.93994 18.32 3.93994 18.87 4.09994C20.19 4.48994 21.21 5.49994 21.59 6.81994C21.75 7.36994 21.75 7.94994 21.75 9.09994C21.75 9.40994 21.74 9.56994 21.72 9.65994C21.64 10.0799 21.53 10.2499 21.2 10.5199C21.09 10.6099 20.96 10.6799 20.46 10.9399C20.02 11.1799 19.79 11.5499 19.79 11.9899C19.79 12.4299 20.02 12.8099 20.41 13.0099ZM18.45 18.4499C19.28 18.2099 19.91 17.5699 20.15 16.7499V16.7399C20.25 16.3999 20.25 15.8599 20.25 14.8799V14.6299C20.1826 14.587 20.0926 14.5403 19.9731 14.4784C19.8977 14.4393 19.8106 14.3941 19.71 14.3399C18.83 13.8799 18.29 12.9699 18.29 11.9899C18.29 11.0099 18.83 10.1099 19.71 9.64994C19.99 9.50994 20.16 9.41994 20.25 9.36994V9.10994C20.25 8.09994 20.25 7.58994 20.15 7.24994C19.91 6.41994 19.27 5.78994 18.45 5.54994C18.11 5.44994 17.6 5.44994 16.59 5.44994H7.40001C6.39001 5.44994 5.88001 5.44994 5.54001 5.54994C4.72001 5.78994 4.08001 6.41994 3.84001 7.24994C3.74001 7.58994 3.74001 8.12994 3.74001 9.10994V9.35994C3.81256 9.40226 3.89973 9.44824 4.01479 9.50892C4.09003 9.54861 4.17721 9.59458 4.28001 9.64994C5.16001 10.1099 5.70001 11.0099 5.70001 11.9999C5.67001 13.0099 5.15001 13.8599 4.33001 14.3099C4.23179 14.3638 4.14763 14.4096 4.07529 14.449C3.91931 14.534 3.81833 14.589 3.75001 14.6299V14.8999C3.75001 15.9099 3.75001 16.4099 3.85001 16.7499C4.09001 17.5699 4.72001 18.2099 5.55001 18.4499C5.89 18.5499 6.38999 18.5499 7.39995 18.5499H7.40001H16.59H16.5901C17.6 18.5499 18.11 18.5499 18.45 18.4499ZM9.62993 10.5599C10.1499 10.5599 10.5799 10.1399 10.5799 9.60991C10.5799 9.07991 10.1599 8.65991 9.62993 8.65991C9.09993 8.65991 8.67993 9.07991 8.67993 9.60991C8.67993 10.1399 9.09993 10.5599 9.62993 10.5599ZM13.9901 9.01993C14.2801 8.72993 14.7601 8.72993 15.0501 9.01993C15.3401 9.30993 15.3401 9.78993 15.0501 10.0799L10.1501 14.9799C10.0001 15.1299 9.81006 15.1999 9.62006 15.1999C9.43006 15.1999 9.24006 15.1299 9.09006 14.9799C8.80006 14.6899 8.80006 14.2099 9.09006 13.9199L13.9901 9.01993ZM15.35 14.3799C15.35 14.9046 14.9246 15.3299 14.4 15.3299C13.8753 15.3299 13.45 14.9046 13.45 14.3799C13.45 13.8553 13.8753 13.4299 14.4 13.4299C14.9246 13.4299 15.35 13.8553 15.35 14.3799Z" fill="black"/>
</svg>
