<svg width="24" height="24" viewBox="0 0 24 24" fill="none" xmlns="http://www.w3.org/2000/svg">
<path fill-rule="evenodd" clip-rule="evenodd" d="M8.22001 2H15.91H15.92C19.07 2 21.18 4.16 21.18 7.36V16.56C21.18 19.8 19.13 21.9 15.96 21.92H8.27001C5.12001 21.92 3.01001 19.76 3.01001 16.56V7.36C3.01001 4.12 5.05001 2.02 8.22001 2ZM15.95 20.4C18.28 20.39 19.67 18.95 19.67 16.55V7.36C19.67 4.95 18.26 3.51 15.91 3.51H8.22001C5.89001 3.52 4.50001 4.96 4.50001 7.36V16.55C4.50001 18.96 5.91001 20.4 8.26001 20.4H15.95ZM8.5 8.60999H11.26C11.67 8.60999 12.01 8.26999 12.01 7.85999C12.01 7.44999 11.67 7.10999 11.26 7.10999H8.5C8.09 7.10999 7.75 7.44999 7.75 7.85999C7.75 8.26999 8.09 8.60999 8.5 8.60999ZM8.5 11.29H15.72C16.13 11.29 16.47 11.63 16.47 12.04C16.47 12.45 16.13 12.79 15.72 12.79H8.5C8.09 12.79 7.75 12.45 7.75 12.04C7.75 11.63 8.09 11.29 8.5 11.29ZM8.5 15.47H15.72C16.13 15.47 16.47 15.81 16.47 16.22C16.47 16.63 16.13 16.97 15.72 16.97H8.5C8.09 16.97 7.75 16.63 7.75 16.22C7.75 15.81 8.09 15.47 8.5 15.47Z" fill="black"/>
</svg>
