<svg width="24" height="24" viewBox="0 0 24 24" fill="none" xmlns="http://www.w3.org/2000/svg">
<path fill-rule="evenodd" clip-rule="evenodd" d="M10.6898 19.28H8.23984C6.49984 19.28 5.08984 17.87 5.08984 16.13V6.9C5.08984 5.16 6.49984 3.75 8.23984 3.75H14.9498C16.6898 3.75 18.0998 5.16 18.0998 6.9V10.08C18.0998 10.49 18.4398 10.83 18.8498 10.83C19.2598 10.83 19.5998 10.49 19.5998 10.08V6.9C19.5998 4.34 17.5198 2.25 14.9498 2.25H8.23984C5.67984 2.25 3.58984 4.33 3.58984 6.9V16.13C3.58984 18.69 5.66984 20.78 8.23984 20.78H10.6898C11.0998 20.78 11.4398 20.44 11.4398 20.03C11.4398 19.62 11.0998 19.28 10.6898 19.28ZM17.3198 15.22L15.9498 16.59L15.5598 16.2C15.2698 15.91 14.7898 15.91 14.4998 16.2C14.2098 16.49 14.2098 16.97 14.4998 17.26L15.4198 18.18C15.5598 18.32 15.7498 18.4 15.9498 18.4C16.1498 18.4 16.3398 18.32 16.4798 18.18L18.3798 16.28C18.6698 15.99 18.6698 15.51 18.3798 15.22C18.0898 14.93 17.6098 14.93 17.3198 15.22ZM20.5199 15.08L20.8499 15.41V15.39C21.1799 15.72 21.3699 16.17 21.3699 16.64C21.3699 17.12 21.1799 17.56 20.8499 17.9L20.5199 18.23C20.4699 18.28 20.4399 18.35 20.4399 18.42V18.89C20.4399 19.87 19.6499 20.66 18.6699 20.66H18.1999C18.1299 20.66 18.0599 20.69 18.0099 20.74L17.6799 21.07C17.3299 21.42 16.8799 21.59 16.4199 21.59C15.9699 21.59 15.5199 21.42 15.1699 21.08C15.1699 21.07 15.1499 21.05 15.1499 21.05L14.8399 20.74C14.7899 20.69 14.7199 20.66 14.6499 20.66H14.1899C13.2199 20.66 12.4199 19.87 12.4199 18.89V18.42C12.4199 18.35 12.3899 18.28 12.3399 18.23L12.0199 17.91C11.6899 17.58 11.5099 17.14 11.4999 16.66C11.4899 16.18 11.6799 15.74 12.0099 15.4L12.3399 15.07C12.3899 15.02 12.4199 14.95 12.4199 14.88V14.42C12.4199 13.44 13.2099 12.64 14.1899 12.64H14.6599C14.7299 12.64 14.7999 12.61 14.8499 12.56L15.1699 12.24C15.8599 11.56 16.9799 11.55 17.6799 12.24L18.0099 12.57C18.0599 12.62 18.1299 12.65 18.1999 12.65H18.6699C19.6399 12.65 20.4399 13.45 20.4399 14.43V14.89C20.4399 14.96 20.4699 15.03 20.5199 15.08ZM19.4599 17.19L19.7899 16.86L19.7999 16.85C19.8799 16.77 19.8799 16.69 19.8799 16.65C19.8799 16.61 19.8699 16.53 19.7999 16.46L19.4699 16.13C19.1399 15.8 18.9499 15.34 18.9499 14.88V14.42C18.9499 14.26 18.8299 14.14 18.6799 14.14H18.2099C17.7399 14.14 17.2899 13.95 16.9599 13.62L16.6299 13.3L16.6199 13.29C16.5599 13.22 16.4399 13.22 16.4399 13.22C16.3999 13.22 16.3199 13.23 16.2499 13.3L15.9199 13.63C15.5799 13.97 15.1399 14.15 14.6699 14.15H14.1999C14.0499 14.15 13.9299 14.28 13.9299 14.43V14.89C13.9299 15.35 13.7399 15.81 13.4099 16.14L13.0799 16.47C12.9999 16.55 12.9999 16.63 12.9999 16.67C12.9999 16.71 13.0099 16.79 13.0799 16.86L13.4099 17.19C13.7499 17.53 13.9299 17.97 13.9299 18.44V18.91C13.9299 19.06 14.0499 19.18 14.1999 19.18H14.6599C15.1299 19.18 15.5799 19.37 15.9099 19.7L16.2399 20.04H16.2499C16.3599 20.14 16.5299 20.13 16.6299 20.03L16.9599 19.7C17.2899 19.37 17.7499 19.18 18.2099 19.18H18.6799C18.8299 19.18 18.9499 19.06 18.9499 18.91V18.44C18.9499 17.97 19.1299 17.52 19.4599 17.19ZM12.9899 8.66C12.9899 8.25 12.6499 7.91 12.2399 7.91H8.35986C7.94986 7.91 7.60986 8.25 7.60986 8.66C7.60986 9.07 7.94986 9.41 8.35986 9.41H12.2399C12.6499 9.41 12.9899 9.07 12.9899 8.66ZM7.61011 12.85C7.61011 12.44 7.95011 12.1 8.36011 12.1H9.95011C10.3601 12.1 10.7001 12.44 10.7001 12.85C10.7001 13.26 10.3601 13.6 9.95011 13.6H8.36011C7.95011 13.6 7.61011 13.26 7.61011 12.85Z" fill="black"/>
</svg>
