<svg width="24" height="24" viewBox="0 0 24 24" fill="none" xmlns="http://www.w3.org/2000/svg">
<path fill-rule="evenodd" clip-rule="evenodd" d="M5.46994 6.47C5.75994 6.18 6.23994 6.18 6.52994 6.47L11.5299 11.47C11.8199 11.76 11.8199 12.24 11.5299 12.53L6.52994 17.53C6.37994 17.68 6.18994 17.75 5.99994 17.75C5.80994 17.75 5.61994 17.68 5.46994 17.53C5.17994 17.24 5.17994 16.76 5.46994 16.47L9.93994 12L5.46994 7.53C5.17994 7.24 5.17994 6.76 5.46994 6.47ZM13.5299 6.47L18.5299 11.47C18.8199 11.76 18.8199 12.24 18.5299 12.53L13.5299 17.53C13.3799 17.68 13.1899 17.75 12.9999 17.75C12.8099 17.75 12.6199 17.68 12.4699 17.53C12.1799 17.24 12.1799 16.76 12.4699 16.47L16.9399 12L12.4699 7.53C12.1799 7.24 12.1799 6.76 12.4699 6.47C12.7599 6.18 13.2399 6.18 13.5299 6.47Z" fill="black"/>
</svg>
