<svg width="24" height="24" viewBox="0 0 24 24" fill="none" xmlns="http://www.w3.org/2000/svg">
<path fill-rule="evenodd" clip-rule="evenodd" d="M10.4699 6.47C10.7599 6.18 11.2399 6.18 11.5299 6.47C11.8199 6.76 11.8199 7.24 11.5299 7.53L7.05994 12L11.5299 16.47C11.8199 16.76 11.8199 17.24 11.5299 17.53C11.3799 17.68 11.1899 17.75 10.9999 17.75C10.8099 17.75 10.6199 17.68 10.4699 17.53L5.46994 12.53C5.17994 12.24 5.17994 11.76 5.46994 11.47L10.4699 6.47ZM18.5299 7.53L14.0599 12L18.5299 16.47C18.8199 16.76 18.8199 17.24 18.5299 17.53C18.3799 17.68 18.1899 17.75 17.9999 17.75C17.8099 17.75 17.6199 17.68 17.4699 17.53L12.4699 12.53C12.1799 12.24 12.1799 11.76 12.4699 11.47L17.4699 6.47C17.7599 6.18 18.2399 6.18 18.5299 6.47C18.8199 6.76 18.8199 7.24 18.5299 7.53Z" fill="black"/>
</svg>
