<svg width="24" height="24" viewBox="0 0 24 24" fill="none" xmlns="http://www.w3.org/2000/svg">
<path fill-rule="evenodd" clip-rule="evenodd" d="M11.4902 14.65L11.4702 14.63H11.4502L8.01018 10.93C7.74018 10.64 7.76018 10.18 8.05018 9.91C8.34018 9.64 8.80018 9.66 9.07018 9.95L11.2602 12.31V4.08C11.2602 3.68 11.5802 3.36 11.9802 3.36C12.3802 3.36 12.7002 3.68 12.7002 4.08V12.3L14.9002 9.94C15.1702 9.65 15.6302 9.63 15.9202 9.9C16.2102 10.17 16.2302 10.63 15.9602 10.92L12.5202 14.62L12.5002 14.64C12.4502 14.69 12.3902 14.74 12.3202 14.77C12.3135 14.7733 12.3068 14.7778 12.3002 14.7822C12.2868 14.7911 12.2735 14.8 12.2602 14.8C12.1902 14.83 12.1102 14.85 12.0302 14.85H11.9702C11.8902 14.85 11.8202 14.84 11.7502 14.81C11.7302 14.8 11.6802 14.78 11.6802 14.78C11.6102 14.75 11.5502 14.71 11.4902 14.65ZM18.9601 14.67C18.9601 14.27 19.2801 13.95 19.6801 13.95C20.0801 13.95 20.4001 14.27 20.4001 14.67V16.26C20.4001 18.41 18.6501 20.16 16.5001 20.16H7.5001C5.3501 20.16 3.6001 18.41 3.6001 16.26V14.67C3.6001 14.27 3.9201 13.95 4.3201 13.95C4.7201 13.95 5.0401 14.27 5.0401 14.67V16.26C5.0401 17.62 6.1501 18.72 7.5001 18.72H16.5001C17.8601 18.72 18.9601 17.62 18.9601 16.26V14.67Z" fill="black"/>
</svg>
