<svg width="24" height="24" viewBox="0 0 24 24" fill="none" xmlns="http://www.w3.org/2000/svg">
<path fill-rule="evenodd" clip-rule="evenodd" d="M7.3501 16.16L7.4401 12.38L7.4601 12.36C7.4801 11.61 7.7801 10.9 8.3101 10.37L15.7801 2.89999C17.0001 1.67999 18.9901 1.67999 20.2101 2.89999L21.4301 4.11999C22.0201 4.71999 22.3501 5.49999 22.3501 6.33999C22.3501 7.17999 22.0201 7.96999 21.4301 8.55999L13.9201 16.07C13.3601 16.63 12.6301 16.93 11.8501 16.93H8.1001C7.8901 16.93 7.7001 16.84 7.5601 16.7C7.4201 16.56 7.3501 16.36 7.3501 16.16ZM20.3601 5.19999L19.1401 3.97999V3.98999C18.5001 3.34999 17.4701 3.34999 16.8301 3.98999L16.2201 4.59999L19.7501 8.12999L20.3601 7.51999C20.6701 7.20999 20.8401 6.79999 20.8401 6.35999C20.8401 5.91999 20.6701 5.50998 20.3601 5.19999ZM9.3601 11.45C9.1001 11.71 8.9401 12.05 8.9401 12.42H8.9501L8.8801 15.43H11.8601C12.2401 15.43 12.5901 15.28 12.8601 15.01L18.6901 9.17999L15.1601 5.64999L9.3601 11.45ZM20.83 12.33C20.83 11.9217 21.1672 11.5828 21.575 11.5801C21.9828 11.5828 22.32 11.9217 22.32 12.33V16.36C22.32 19.95 20.01 22.37 16.57 22.37H7.75C4.31 22.37 2 19.95 2 16.36V8.05004C2 4.45004 4.31 2.04004 7.75 2.04004H11.49C11.9 2.04004 12.24 2.38004 12.24 2.79004C12.24 3.20004 11.9 3.54004 11.49 3.54004H7.75C5.17 3.54004 3.5 5.31004 3.5 8.05004V16.36C3.5 19.1 5.17 20.87 7.75 20.87H16.58C19.16 20.87 20.83 19.1 20.83 16.36V12.33ZM21.575 11.5801C21.5767 11.58 21.5783 11.58 21.58 11.58H21.57C21.5717 11.58 21.5733 11.58 21.575 11.5801Z" fill="black"/>
</svg>
