<svg width="24" height="24" viewBox="0 0 24 24" fill="none" xmlns="http://www.w3.org/2000/svg">
<path fill-rule="evenodd" clip-rule="evenodd" d="M17.0799 10.63C17.0699 10.63 17.0699 10.65 17.0699 10.65H17.0599C17.0599 10.67 17.0399 10.67 17.0399 10.67L17.039 10.6711C15.6789 12.3712 13.3591 15.2711 9.38992 20.24C8.92992 20.81 8.23991 21.15 7.49992 21.15L3.85991 21.2C3.50991 21.2 3.20992 20.96 3.12992 20.62L2.30991 17.15C2.13991 16.43 2.30991 15.69 2.76991 15.11L12.2099 3.34L12.2199 3.33C13.2499 2.09 15.1199 1.91 16.3799 2.92C16.4399 2.97 18.0999 4.26 18.0999 4.26C18.6999 4.62 19.1799 5.26 19.3599 6.03C19.5399 6.79 19.4099 7.57 18.9899 8.23C18.9699 8.26 18.9499 8.29 17.0799 10.63ZM15.4299 4.09C14.7999 3.58 13.8799 3.67 13.3599 4.28L12.0799 5.88L16.3399 9.15C16.7449 8.63998 17.0849 8.21497 17.3299 7.90872C17.5749 7.60249 17.7249 7.415 17.7499 7.38C17.9099 7.12 17.9799 6.74 17.8899 6.38C17.7999 6.01 17.5699 5.69 17.2399 5.49C17.1699 5.44 15.4799 4.13 15.4299 4.09ZM7.49992 19.66C7.78992 19.66 8.04991 19.53 8.22991 19.31V19.32C9.43734 17.8138 11.0538 15.7906 12.6122 13.8402C13.6093 12.5922 14.5827 11.374 15.4099 10.34L11.1499 7.07L3.94992 16.07C3.77992 16.28 3.71992 16.55 3.77991 16.82L4.45991 19.7L7.49992 19.66ZM13.75 19.69H21C21.41 19.69 21.75 20.03 21.75 20.44C21.75 20.85 21.41 21.19 21 21.19H13.75C13.34 21.19 13 20.85 13 20.44C13 20.03 13.34 19.69 13.75 19.69Z" fill="black"/>
</svg>
