<svg width="24" height="24" viewBox="0 0 24 24" fill="none" xmlns="http://www.w3.org/2000/svg">
<path fill-rule="evenodd" clip-rule="evenodd" d="M16.42 3.15001H7.58C4.54 3.15001 2.25 5.63001 2.25 8.91001V10.59C2.25 11 2.59 11.34 3 11.34C3.41 11.34 3.75 11 3.75 10.59V8.91001C3.75 6.44001 5.36 4.65001 7.58 4.65001H16.42C18.64 4.65001 20.25 6.44001 20.25 8.91001V15.09C20.25 16.37 19.81 17.51 19.02 18.3C18.34 18.98 17.44 19.34 16.43 19.34H11.01C10.6 19.34 10.26 19.68 10.26 20.09C10.26 20.5 10.6 20.84 11.01 20.84H16.42C17.83 20.79 19.11 20.33 20.08 19.35C21.16 18.27 21.75 16.76 21.75 15.08V8.90001C21.75 5.61001 19.46 3.14001 16.42 3.14001V3.15001ZM11.97 13.62C12.59 13.62 13.21 13.41 13.73 13L17.76 9.75C18.08 9.49 18.13 9.02 17.87 8.7C17.61 8.37999 17.14 8.33 16.82 8.59L12.79 11.84C12.31 12.22 11.63 12.22 11.16 11.84L7.15997 8.59C6.83997 8.33 6.36997 8.37999 6.09997 8.7C5.83997 9.02 5.88997 9.49 6.20997 9.76L10.22 13.02C10.74 13.43 11.35 13.63 11.97 13.63V13.62ZM7.22 14.13C7.22 14.54 6.88 14.88 6.47 14.88H3C2.59 14.88 2.25 14.54 2.25 14.13C2.25 13.72 2.59 13.38 3 13.38H6.47C6.88 13.38 7.22 13.72 7.22 14.13ZM10.4899 17.12C10.4899 16.71 10.1499 16.37 9.7399 16.37H5.3999C4.9899 16.37 4.6499 16.71 4.6499 17.12C4.6499 17.53 4.9899 17.87 5.3999 17.87H9.7399C10.1499 17.87 10.4899 17.53 10.4899 17.12ZM3.29004 19.35H6.46004C6.87004 19.35 7.21004 19.69 7.21004 20.1C7.21004 20.51 6.87004 20.85 6.46004 20.85H3.29004C2.88004 20.85 2.54004 20.51 2.54004 20.1C2.54004 19.69 2.88004 19.35 3.29004 19.35Z" fill="black"/>
</svg>
