<svg width="24" height="24" viewBox="0 0 24 24" fill="none" xmlns="http://www.w3.org/2000/svg">
<path fill-rule="evenodd" clip-rule="evenodd" d="M7.35 18.8H11.48C11.89 18.8 12.23 19.14 12.23 19.55C12.23 19.96 11.89 20.3 11.48 20.3H7.34C5.99 20.3 4.78 19.81 3.85 18.88C2.82 17.85 2.25 16.4 2.25 14.79V8.90999C2.25 5.76999 4.44 3.39999 7.35 3.39999H15.76C18.67 3.39999 20.86 5.76999 20.86 8.90999V10.51C20.86 10.92 20.52 11.26 20.11 11.26C19.7 11.26 19.36 10.92 19.36 10.51V8.90999C19.36 6.58999 17.85 4.89999 15.76 4.89999H7.36C5.28 4.89999 3.76 6.57999 3.76 8.90999V14.79C3.76 16 4.17 17.07 4.92 17.82C5.56 18.46 6.4 18.8 7.35 18.8ZM16.1201 8.57999C16.4501 8.31999 16.9201 8.36999 17.1801 8.68999L17.1901 8.67999C17.4501 9.00999 17.4001 9.47999 17.0801 9.73999L13.2801 12.83C12.7801 13.23 12.1801 13.43 11.5801 13.43C10.9801 13.43 10.3901 13.23 9.89006 12.84L6.05006 9.73999C5.73006 9.47999 5.68006 9.00999 5.94006 8.68999C6.20006 8.36999 6.67006 8.31999 6.99006 8.57999L10.8201 11.67C11.2601 12.02 11.8801 12.02 12.3301 11.67L16.1201 8.57999ZM19.5101 18.55C19.1101 18.9 18.6001 19.1 18.0601 19.1C16.8501 19.1 15.8701 18.12 15.8701 16.91C15.8701 16.5 15.5301 16.16 15.1201 16.16C14.7101 16.16 14.3701 16.5 14.3701 16.91C14.3701 18.94 16.0201 20.6 18.0601 20.6C18.9601 20.6 19.8301 20.27 20.5001 19.68C20.8101 19.41 20.8401 18.93 20.5701 18.62C20.2901 18.31 19.8201 18.28 19.5101 18.55ZM15.6201 14.14C16.2901 13.55 17.1601 13.22 18.0601 13.22C20.1001 13.22 21.7501 14.88 21.7501 16.91C21.7501 17.32 21.4101 17.66 21.0001 17.66C20.5901 17.66 20.2501 17.32 20.2501 16.91C20.2501 15.7 19.2701 14.72 18.0601 14.72C17.5201 14.72 17.0101 14.92 16.6101 15.27C16.3001 15.54 15.8201 15.51 15.5501 15.2C15.2801 14.89 15.3101 14.41 15.6201 14.14Z" fill="black"/>
</svg>
