<svg width="24" height="24" viewBox="0 0 24 24" fill="none" xmlns="http://www.w3.org/2000/svg">
<path fill-rule="evenodd" clip-rule="evenodd" d="M6.36 9.94001C8.08 9.94001 9.47 8.55001 9.47 6.84001C9.47 5.13001 8.07 3.74001 6.36 3.74001C4.65 3.74001 3.25 5.13001 3.25 6.84001C3.25 8.55001 4.65 9.94001 6.36 9.94001ZM6.36 5.25001C7.25 5.25001 7.97 5.97001 7.97 6.85001C7.97 7.73001 7.25 8.45001 6.36 8.45001C5.47 8.45001 4.75 7.73001 4.75 6.85001C4.75 5.97001 5.47 5.25001 6.36 5.25001ZM19.44 6.14999C19.85 6.14999 20.19 6.48999 20.19 6.89999C20.19 7.30999 19.85 7.64999 19.44 7.64999H13.14C12.73 7.64999 12.39 7.30999 12.39 6.89999C12.39 6.48999 12.73 6.14999 13.14 6.14999H19.44ZM4.03003 15.84H10.33C10.74 15.84 11.08 16.18 11.08 16.59C11.08 17 10.74 17.34 10.33 17.34H4.03003C3.62003 17.34 3.28003 17 3.28003 16.59C3.28003 16.18 3.62003 15.84 4.03003 15.84ZM14.53 16.56C14.53 14.85 15.92 13.46 17.64 13.46C19.35 13.46 20.75 14.85 20.75 16.56C20.75 18.27 19.35 19.66 17.64 19.66C15.93 19.66 14.53 18.27 14.53 16.56ZM16.03 16.55C16.03 17.43 16.75 18.15 17.64 18.15C18.53 18.15 19.25 17.43 19.25 16.55C19.25 15.67 18.53 14.95 17.64 14.95C16.75 14.95 16.03 15.67 16.03 16.55Z" fill="black"/>
</svg>
