<svg width="24" height="24" viewBox="0 0 24 24" fill="none" xmlns="http://www.w3.org/2000/svg">
<path d="M19.44 2.25H4.56C3.28 2.25 2.25 3.3 2.25 4.59V5.53C2.25 6.37 2.57 7.18 3.14 7.79L7.99 12.94C7.99 12.94 8.03 12.98 8.05 13C8.82 13.82 9.25 14.89 9.25 16.03V20.6C9.25 21.01 9.46 21.38 9.81 21.59C9.99 21.7 10.19 21.75 10.39 21.75C10.58 21.75 10.76 21.7 10.94 21.61L13.7 20.11C14.36 19.75 14.77 19.06 14.77 18.3V16.01C14.77 14.85 15.21 13.76 16.01 12.94L20.86 7.79C21.44 7.18 21.75 6.38 21.75 5.53V4.59C21.75 3.3 20.71 2.25 19.44 2.25ZM20.25 5.53C20.25 5.99 20.08 6.43 19.77 6.76L14.93 11.9C13.86 13 13.27 14.46 13.27 16.01V18.3C13.27 18.51 13.16 18.69 12.98 18.79L10.74 20.01V16.03C10.74 14.48 10.14 13.01 9.06 11.9C9.05 11.89 9.03 11.87 9.02 11.86L4.23 6.76C3.92 6.43 3.74 5.99 3.74 5.53V4.59C3.74 4.13 4.11 3.75 4.55 3.75H19.42C19.87 3.75 20.23 4.13 20.23 4.59V5.53H20.25Z" fill="black"/>
</svg>
