<svg width="24" height="24" viewBox="0 0 24 24" fill="none" xmlns="http://www.w3.org/2000/svg">
<path fill-rule="evenodd" clip-rule="evenodd" d="M17.8401 4.66998L20.6701 8.81998H20.6501C20.9801 9.30998 21.1401 9.88998 21.1001 10.47C21.0601 11.06 20.8301 11.61 20.4301 12.04L13.4201 19.75C13.2101 19.98 12.9501 20.16 12.6601 20.29C12.3801 20.41 12.0601 20.48 11.7501 20.48C11.4401 20.48 11.1301 20.42 10.8401 20.29C10.5501 20.16 10.2901 19.97 10.0801 19.74L3.07007 12.04C2.68007 11.61 2.44007 11.05 2.40007 10.47C2.36007 9.87998 2.52007 9.29998 2.85007 8.81998L5.68007 4.66998C5.91007 4.31998 6.24007 4.03998 6.61007 3.83998C6.99007 3.63998 7.41007 3.53998 7.83007 3.53998H15.6901C16.1201 3.53998 16.5401 3.63998 16.9101 3.83998C17.2801 4.02998 17.6001 4.31998 17.8401 4.66998ZM12.3501 18.78L19.3701 11.07H19.3601C19.5401 10.88 19.6401 10.63 19.6601 10.37C19.6801 10.11 19.6101 9.84998 19.4601 9.62998L16.6401 5.47998C16.5301 5.32998 16.3901 5.19998 16.2201 5.10998C16.0601 5.01998 15.8701 4.97998 15.6801 4.97998H7.82007C7.63007 4.97998 7.45007 5.01998 7.28007 5.10998C7.11007 5.19998 6.97007 5.31998 6.86007 5.47998L4.03007 9.62998C3.87007 9.84998 3.80007 10.11 3.82007 10.37C3.84007 10.63 3.94007 10.88 4.12007 11.07L11.1301 18.78C11.2101 18.86 11.3101 18.93 11.4101 18.97C11.5201 19.02 11.6301 19.04 11.7401 19.04C11.8501 19.04 11.9701 19.01 12.0701 18.97C12.1801 18.93 12.2701 18.86 12.3501 18.78ZM6.52001 9.66999C6.82001 9.39999 7.27001 9.42999 7.54001 9.71999L9.29 11.65C9.56001 11.95 9.53001 12.4 9.24001 12.67C8.94001 12.94 8.49001 12.91 8.22001 12.62L6.47001 10.69C6.20001 10.39 6.23001 9.93999 6.52001 9.66999Z" fill="black"/>
</svg>
