<svg width="24" height="24" viewBox="0 0 24 24" fill="none" xmlns="http://www.w3.org/2000/svg">
<path d="M21.28 8.67999L18.34 4.35999C17.83 3.61999 17 3.17999 16.1 3.17999H7.91004C7.01004 3.17999 6.18004 3.61999 5.67004 4.35999L2.72004 8.67999C2.01004 9.71999 2.10004 11.1 2.95004 12.03L10.26 20.06C10.66 20.51 11.23 20.77 11.83 20.81C11.9 20.82 11.96 20.83 12 20.83C12.04 20.83 12.1 20.83 12.17 20.81C12.77 20.77 13.33 20.51 13.74 20.06L21.05 12.03C21.9 11.1 22 9.71999 21.29 8.67999H21.28ZM17.1 5.19999L19.99 9.44999H16.19C16.16 9.26999 16.14 9.07999 16.09 8.90999L14.97 4.66999H16.09C16.49 4.66999 16.86 4.86999 17.09 5.19999H17.1ZM12 18.6L9.41004 11.27C9.38004 11.17 9.35004 11.06 9.33004 10.95H14.67C14.65 11.06 14.63 11.18 14.59 11.27L12 18.6ZM9.33004 9.44999C9.34004 9.39999 9.34004 9.33999 9.36004 9.28999L10.58 4.66999H13.42L14.64 9.28999C14.64 9.28999 14.66 9.39999 14.67 9.44999H9.33004ZM6.91004 5.19999C7.14004 4.86999 7.51004 4.66999 7.91004 4.66999H9.03004L7.91004 8.90999C7.86004 9.07999 7.84004 9.26999 7.81004 9.44999H4.01005L6.91004 5.19999ZM4.02004 10.95H7.81004C7.85004 11.24 7.91004 11.53 7.99004 11.77L10.05 17.6L4.06004 11.02C4.06004 11.02 4.03004 10.97 4.02004 10.95ZM13.95 17.6L16.01 11.78C16.1 11.53 16.15 11.25 16.19 10.96H19.98C19.98 10.96 19.95 11.01 19.94 11.03L13.95 17.61V17.6Z" fill="black"/>
</svg>
