<svg width="24" height="24" viewBox="0 0 24 24" fill="none" xmlns="http://www.w3.org/2000/svg">
<path fill-rule="evenodd" clip-rule="evenodd" d="M4.3201 6.26001H19.6801C20.0801 6.26001 20.4001 5.94001 20.4001 5.54001C20.4001 5.14001 20.0801 4.82001 19.6801 4.82001H4.3201C3.9201 4.82001 3.6001 5.14001 3.6001 5.54001C3.6001 5.94001 3.9201 6.26001 4.3201 6.26001ZM19.6801 18.26H4.3201C3.9201 18.26 3.6001 18.58 3.6001 18.98C3.6001 19.38 3.9201 19.7 4.3201 19.7H19.6801C20.0801 19.7 20.4001 19.38 20.4001 18.98C20.4001 18.58 20.0801 18.26 19.6801 18.26ZM4.3201 11.53H19.6801C20.0801 11.53 20.4001 11.85 20.4001 12.25C20.4001 12.65 20.0801 12.97 19.6801 12.97H4.3201C3.9201 12.97 3.6001 12.65 3.6001 12.25C3.6001 11.85 3.9201 11.53 4.3201 11.53Z" fill="black"/>
</svg>
