<svg width="24" height="24" viewBox="0 0 24 24" fill="none" xmlns="http://www.w3.org/2000/svg">
<path d="M20.1 11.87V10.35C20.1 5.88 16.47 2.25 12 2.25C7.53004 2.25 3.90004 5.88 3.90004 10.35V11.87C2.79004 12.9 2.32004 14.45 2.71004 15.99C3.10004 17.51 4.35004 18.69 5.90004 18.99C6.12004 19.03 6.35004 19.06 6.56004 19.07C6.59004 19.07 6.62004 19.07 6.65004 19.07C7.28004 19.07 7.86004 18.79 8.27004 18.3C8.70004 17.77 8.86003 17.09 8.70004 16.43L7.79004 12.63C7.63004 11.97 7.18004 11.43 6.55004 11.16C6.17004 11 5.78004 10.96 5.39004 11.02V10.33C5.39004 6.69 8.35004 3.73 11.99 3.73C15.63 3.73 18.59 6.69 18.59 10.33V11.02C18.2 10.96 17.81 11 17.43 11.16C16.8 11.43 16.35 11.97 16.19 12.63L15.28 16.43C15.12 17.09 15.28 17.77 15.71 18.3C15.82 18.43 15.94 18.54 16.07 18.64C14.99 20.28 13.99 20.26 12.33 20.22C12.06 20.22 11.78 20.21 11.49 20.21C11.08 20.21 10.74 20.55 10.74 20.96C10.74 21.37 11.08 21.71 11.49 21.71C11.76 21.71 12.03 21.71 12.29 21.72C12.54 21.72 12.78 21.73 13.02 21.73C14.63 21.73 16.17 21.45 17.58 19.04C17.74 19.03 17.91 19.01 18.08 18.98C19.63 18.68 20.88 17.5 21.27 15.97C21.67 14.43 21.19 12.88 20.08 11.85L20.1 11.87ZM5.71004 12.5C5.81004 12.5 5.90004 12.53 5.96004 12.55C6.15004 12.63 6.29004 12.79 6.33004 12.99L7.24004 16.79C7.29004 16.99 7.24004 17.19 7.11004 17.35C7.04004 17.44 6.88004 17.57 6.62004 17.57C6.48004 17.57 6.33004 17.55 6.18004 17.52C5.21004 17.33 4.40004 16.56 4.15004 15.61C3.79004 14.22 4.52004 13.09 5.40004 12.58C5.51004 12.52 5.61004 12.5 5.70004 12.5H5.71004ZM19.83 15.62C19.59 16.57 18.77 17.34 17.8 17.53C17.65 17.56 17.51 17.58 17.37 17.58C17.12 17.58 16.95 17.45 16.88 17.36C16.75 17.2 16.7 17 16.75 16.8L17.66 13.01C17.71 12.81 17.84 12.65 18.03 12.57C18.09 12.55 18.18 12.52 18.28 12.52C18.37 12.52 18.48 12.54 18.58 12.6C19.46 13.11 20.19 14.24 19.83 15.63V15.62Z" fill="black"/>
</svg>
