<svg width="24" height="24" viewBox="0 0 24 24" fill="none" xmlns="http://www.w3.org/2000/svg">
<path fill-rule="evenodd" clip-rule="evenodd" d="M12 3.28C13.62 2.26 15.78 1.97 17.65 2.57V2.58C21.71 3.88 22.97 8.31 21.84 11.83C20.1 17.36 12.67 21.49 12.36 21.66C12.25 21.72 12.13 21.75 12 21.75C11.87 21.75 11.75 21.72 11.64 21.66C11.33 21.49 3.95999 17.42 2.15999 11.83C1.02999 8.3 2.27999 3.88 6.33999 2.57C8.24999 1.95 10.32 2.22 12 3.28ZM12 20.13C13.47 19.25 19.05 15.68 20.41 11.37V11.38C21.3 8.6 20.48 5.07 17.19 4.01C15.6 3.5 13.74 3.81 12.46 4.8C12.19 5 11.82 5 11.55 4.8C10.19 3.78 8.41999 3.48 6.79999 4C3.51999 5.06 2.69999 8.59 3.58999 11.37C4.98999 15.73 10.53 19.26 12 20.13ZM15.29 6.47C15.41 6.08 15.84 5.87 16.23 5.99L16.24 5.98C17.6 6.43 18.55 7.63 18.67 9.06C18.7 9.47 18.39 9.84 17.98 9.87H17.92C17.53 9.87 17.2 9.57 17.17 9.18C17.1 8.36 16.55 7.66 15.77 7.41C15.38 7.29 15.16 6.86 15.29 6.47Z" fill="black"/>
</svg>
