<svg width="24" height="24" viewBox="0 0 24 24" fill="none" xmlns="http://www.w3.org/2000/svg">
<path fill-rule="evenodd" clip-rule="evenodd" d="M14.89 3.11005C17.01 3.87005 19.51 5.76005 20.21 7.94005H20.22C20.51 8.90005 20.48 9.66005 20.15 10.2101C19.98 10.4901 19.64 10.8401 19.02 10.9901C19.43 11.9401 19.62 12.9701 19.59 14.0101C19.55 15.3901 19.1 16.7201 18.31 17.8501C17.64 18.8601 16.71 19.4801 15.56 19.6701C15.3 19.7101 15.05 19.7301 14.79 19.7301C14.47 19.7301 14.15 19.7001 13.84 19.6501V20.6301C13.84 21.0301 13.52 21.3501 13.12 21.3501C12.72 21.3501 12.4 21.0301 12.4 20.6301V19.2601C11.24 18.8401 10.28 18.2401 9.80001 17.9101C9.50001 18.0101 9.20001 18.0701 8.89001 18.1101C8.69001 19.2501 8.16001 20.3101 7.34001 21.1401C7.20001 21.2801 7.02001 21.3501 6.83001 21.3501C6.64001 21.3501 6.46001 21.2801 6.32001 21.1401C6.04001 20.8601 6.04001 20.4001 6.32001 20.1201C6.88001 19.5501 7.26001 18.8301 7.44001 18.0601C4.45001 17.5001 2.99001 14.3301 3.09001 11.3001C3.17001 9.53005 3.76001 7.84005 4.78001 6.41005C5.81001 4.98005 7.22001 3.88005 8.86001 3.23005C10.79 2.48005 12.93 2.44005 14.89 3.11005ZM5.96001 7.26005C5.10001 8.46005 4.61001 9.89005 4.54001 11.3701L4.53001 11.3801C4.45001 13.8401 5.68001 16.5501 8.12001 16.7201C8.95001 16.7801 9.76001 16.5201 10.39 15.9801C11.31 15.0601 11.95 13.8601 12.2 12.5301C12.3 11.9001 12.63 11.3001 13.14 10.8801C13.17 10.8501 13.2 10.8301 13.23 10.8101L13.23 10.8101C13.59 10.6001 13.99 10.4601 14.41 10.4001C15.2336 10.2568 16.0732 10.0976 16.9217 9.93661C17.021 9.91778 17.1205 9.89891 17.22 9.88005L17.83 9.77005L18.63 9.62005C18.8234 9.5849 18.8777 9.51885 18.9016 9.48978C18.9049 9.48578 18.9076 9.48248 18.91 9.48005C18.99 9.34005 19.01 8.98005 18.83 8.38005C18.36 6.91005 16.41 5.19005 14.41 4.48005C13.65 4.21005 12.84 4.08005 12.04 4.08005C11.14 4.08005 10.24 4.25005 9.39001 4.58005C8.01001 5.13005 6.82001 6.05005 5.96001 7.26005ZM15.33 18.2601C16.07 18.1301 16.66 17.7301 17.12 17.0401H17.13C17.77 16.1301 18.12 15.0701 18.16 13.9701C18.19 13.0301 17.97 12.1101 17.56 11.2901H17.5C16.55 11.4701 15.6 11.6501 14.65 11.8201C14.41 11.8501 14.21 11.9201 14.03 12.0201C13.82 12.2201 13.67 12.4801 13.63 12.7701C13.33 14.4201 12.55 15.8801 11.37 17.0401C11.35 17.0551 11.33 17.0676 11.31 17.0801C11.29 17.0926 11.27 17.1051 11.25 17.1201C12.25 17.7101 13.9 18.5001 15.33 18.2601ZM8.26998 10.37C9.52998 10.37 10.56 11.4 10.56 12.66C10.56 13.92 9.52998 14.95 8.26998 14.95C7.00998 14.95 5.97998 13.92 5.97998 12.66C5.97998 11.4 7.00998 10.37 8.26998 10.37ZM8.25998 11.81C7.78998 11.81 7.40998 12.19 7.40998 12.66C7.40998 13.13 7.78998 13.51 8.25998 13.51C8.72998 13.51 9.10998 13.13 9.10998 12.66C9.10998 12.19 8.72998 11.81 8.25998 11.81Z" fill="black"/>
</svg>
