<svg width="24" height="24" viewBox="0 0 24 24" fill="none" xmlns="http://www.w3.org/2000/svg">
<path fill-rule="evenodd" clip-rule="evenodd" d="M19.36 3.72C19.65 3.43 20.13 3.43 20.42 3.72C20.71 4.01 20.71 4.49 20.42 4.78L4.65001 20.55C4.50001 20.7 4.31001 20.77 4.12001 20.77C3.93001 20.77 3.74001 20.7 3.59001 20.55C3.30001 20.26 3.30001 19.78 3.59001 19.49L5.56001 17.52C4.15001 16.22 2.95001 14.48 2.07001 12.43C1.99001 12.24 1.99001 12.03 2.07001 11.84C3.09001 9.47 4.53001 7.52 6.23001 6.18C9.52001 3.57 13.84 3.44 17.27 5.81L19.36 3.72ZM7.15001 7.36C5.71001 8.49 4.48001 10.14 3.57001 12.14H3.58001C4.37001 13.89 5.43001 15.35 6.64001 16.44L8.76001 14.32C8.33001 13.68 8.09001 12.93 8.09001 12.14C8.09001 9.98 9.84001 8.22 12 8.22C12.79 8.22 13.55 8.46 14.19 8.89L16.17 6.91C13.32 5.07 9.86001 5.22 7.15001 7.36ZM9.85662 13.2134L13.08 9.99C12.75 9.82 12.38 9.72 12 9.72C10.67 9.72 9.59001 10.81 9.59001 12.14C9.59001 12.5175 9.68868 12.8851 9.85662 13.2134ZM21.94 11.84C21.41 10.61 20.77 9.5 20.05 8.54C19.8 8.21 19.33 8.14 19 8.39C18.67 8.64 18.6 9.11 18.85 9.44C19.44 10.23 19.97 11.13 20.43 12.14C18.56 16.25 15.43 18.69 12 18.69C11.22 18.69 10.45 18.56 9.71004 18.32C9.31004 18.19 8.89004 18.4 8.76004 18.79C8.63004 19.18 8.84004 19.61 9.23004 19.74C10.13 20.04 11.06 20.19 12 20.19C16.13 20.19 19.84 17.29 21.94 12.44C22.02 12.25 22.02 12.03 21.94 11.84ZM14.37 12.57C14.19 13.55 13.42 14.33 12.44 14.51C12.03 14.58 11.76 14.97 11.84 15.38C11.91 15.74 12.22 16 12.58 16C12.62 16 12.67 16 12.72 15.99C14.31 15.7 15.57 14.44 15.86 12.84C15.93 12.43 15.66 12.04 15.25 11.97C14.84 11.9 14.45 12.17 14.38 12.58L14.37 12.57Z" fill="black"/>
</svg>
