<svg width="24" height="24" viewBox="0 0 24 24" fill="none" xmlns="http://www.w3.org/2000/svg">
<path d="M20.0299 7.45L14.9799 3.32C13.2599 1.91 10.7499 1.91 9.02988 3.32L3.96988 7.45C2.63988 8.54 2.00988 10.27 2.32988 11.97L3.46988 17.93C3.88988 20.14 5.82988 21.74 8.07988 21.74H9.37988H14.5799H15.8799C18.1299 21.74 20.0699 20.14 20.4899 17.93L21.6299 11.97C21.9599 10.28 21.3299 8.54 19.9899 7.45H20.0299ZM13.8599 20.25H10.1499V17.66C10.1499 16.64 10.9799 15.81 11.9999 15.81C13.0199 15.81 13.8499 16.64 13.8499 17.66V20.25H13.8599ZM20.1999 11.69L19.0599 17.65C18.7699 19.15 17.4499 20.25 15.9199 20.25H15.3699V17.66C15.3699 15.81 13.8699 14.31 12.0199 14.31C10.1699 14.31 8.66988 15.81 8.66988 17.66V20.25H8.10988C6.57988 20.25 5.25988 19.16 4.96988 17.65L3.82988 11.69C3.60988 10.54 4.03988 9.36 4.93988 8.61L9.98988 4.47C10.5799 3.99 11.2999 3.75 12.0099 3.75C12.7199 3.75 13.4499 3.99 14.0299 4.47L19.0799 8.61C19.9899 9.35 20.4199 10.53 20.1999 11.69Z" fill="black"/>
</svg>
