<svg width="24" height="24" viewBox="0 0 24 24" fill="none" xmlns="http://www.w3.org/2000/svg">
<path fill-rule="evenodd" clip-rule="evenodd" d="M9.44998 5.54999C9.44996 5.54666 9.44995 5.54333 9.44995 5.53999V5.55999C9.44995 5.55666 9.44996 5.55332 9.44998 5.54999ZM9.44998 5.54999C9.45252 6.06627 9.65232 6.55236 10.02 6.91999C10.17 7.06999 10.36 7.13999 10.55 7.13999C10.74 7.13999 10.93 7.06999 11.08 6.91999C11.37 6.62999 11.37 6.14999 11.08 5.85999C11 5.77999 10.95 5.65999 10.95 5.54999C10.95 5.43999 11 5.31999 11.08 5.23999C11.45 4.86999 11.65 4.38999 11.65 3.86999C11.65 3.34999 11.45 2.85999 11.08 2.48999C10.79 2.19999 10.31 2.19999 10.02 2.48999C9.72995 2.77999 9.72995 3.25999 10.02 3.54999C10.1 3.62999 10.15 3.74999 10.15 3.86999C10.15 3.98999 10.1 4.09999 10.02 4.17999C9.65232 4.54762 9.45252 5.03371 9.44998 5.54999ZM7.31005 6.90999C7.16005 7.05999 6.97005 7.12999 6.78005 7.12999V7.13999C6.59005 7.13999 6.40005 7.06999 6.25005 6.91999C5.88005 6.54999 5.68005 6.05999 5.68005 5.53999C5.68005 5.01999 5.88005 4.52999 6.25005 4.15999C6.54005 3.86999 7.02005 3.86999 7.31005 4.15999C7.60005 4.44999 7.60005 4.92999 7.31005 5.21999C7.23005 5.30999 7.18005 5.41999 7.18005 5.53999C7.18005 5.65999 7.23005 5.76999 7.31005 5.84999C7.60005 6.13999 7.60005 6.61999 7.31005 6.90999ZM17.6399 11.02H17.7099L17.6999 11.03C19.5499 11.03 21.0499 12.53 21.0499 14.38C21.0499 16.23 19.5499 17.73 17.6999 17.73H17.3799C16.4799 20.08 14.2099 21.76 11.5499 21.76H9.18994C5.73994 21.76 2.93994 18.96 2.93994 15.51V12.03C2.93994 10.12 4.48994 8.56999 6.39994 8.56999H14.3499C15.8999 8.56999 17.2099 9.60999 17.6399 11.02ZM9.19994 20.25H11.5599H11.5699C14.1899 20.25 16.3199 18.12 16.3199 15.5V12.02C16.3199 10.94 15.4399 10.06 14.3599 10.06H6.40994C5.32994 10.06 4.44994 10.94 4.44994 12.02V15.5C4.44994 18.12 6.57994 20.25 9.19994 20.25ZM17.7999 15.5C17.7999 15.75 17.7899 15.98 17.7599 16.22C18.7599 16.19 19.5599 15.36 19.5599 14.37C19.5599 13.38 18.7799 12.58 17.7999 12.53V15.5ZM14.31 7.12999C14.5 7.12999 14.69 7.05999 14.84 6.90999C15.13 6.61999 15.13 6.13999 14.84 5.84999C14.76 5.76999 14.71 5.65999 14.71 5.53999C14.71 5.41999 14.76 5.30999 14.84 5.22999C15.13 4.93999 15.13 4.45999 14.84 4.16999C14.55 3.87999 14.07 3.87999 13.78 4.16999C13.41 4.53999 13.21 5.02999 13.21 5.54999C13.21 6.06999 13.41 6.55999 13.78 6.91999C13.93 7.06999 14.12 7.13999 14.31 7.13999V7.12999Z" fill="black"/>
</svg>
