<svg width="24" height="24" viewBox="0 0 24 24" fill="none" xmlns="http://www.w3.org/2000/svg">
<path fill-rule="evenodd" clip-rule="evenodd" d="M17.5399 6.79002V6.80002C17.3899 8.32002 16.0699 9.59002 14.0599 11.52C13.7099 11.89 13.7099 12.11 14.0799 12.5L14.1078 12.5268C16.0823 14.4219 17.4006 15.6871 17.5399 17.2C17.6299 18.34 17.3199 19.39 16.6599 20.14C16.0299 20.87 15.1199 21.28 14.0399 21.35H9.33992C8.20992 21.29 7.29992 20.87 6.66992 20.14C6.00992 19.39 5.69992 18.35 5.78992 17.21C5.93992 15.68 7.25992 14.41 9.26992 12.48C9.61992 12.11 9.61992 11.89 9.24992 11.5C7.25992 9.60003 5.93992 8.32002 5.78992 6.80002C5.69992 5.66002 6.00992 4.61002 6.66992 3.86002C7.29992 3.14002 8.20992 2.72002 9.28992 2.65002H13.9899C15.1199 2.71002 16.0299 3.13002 16.6599 3.86002C17.3199 4.61002 17.6299 5.65002 17.5399 6.79002ZM16.0999 17.33C16.0099 16.39 14.9999 15.38 13.0599 13.52V13.53C12.1299 12.55 12.1299 11.46 13.0399 10.51C14.9899 8.63002 16.0099 7.62002 16.0999 6.67002C16.1599 5.92002 15.9699 5.26002 15.5699 4.80002C15.1999 4.37002 14.6399 4.12002 13.9499 4.08002H9.33992C8.69992 4.12002 8.12992 4.37002 7.75992 4.80002C7.35992 5.26002 7.16992 5.92002 7.22992 6.67002C7.31992 7.61002 8.32992 8.62002 10.2699 10.48C11.1999 11.46 11.1999 12.55 10.2899 13.5C8.33992 15.38 7.31992 16.39 7.22992 17.34C7.16992 18.08 7.35992 18.74 7.75992 19.2C8.12992 19.63 8.68992 19.88 9.37992 19.92H13.9899C14.6399 19.88 15.1999 19.63 15.5699 19.2C15.9699 18.74 16.1599 18.08 16.0999 17.33ZM14.4 6.03001C14.65 6.65001 14.49 7.35001 14.01 7.81001V7.80001C13.857 7.98691 13.6464 8.18824 13.427 8.39787C13.3882 8.435 13.3491 8.47239 13.31 8.51001C12.88 8.91001 12.48 9.29001 12.37 9.67001C12.29 9.98001 12 10.2 11.68 10.2C11.36 10.2 11.08 9.98001 10.99 9.67001C10.88 9.29001 10.48 8.91001 10.05 8.51001C9.78995 8.27001 9.52995 8.02001 9.29995 7.75001C8.86995 7.35001 8.70995 6.65001 8.95995 6.03001C9.19995 5.41001 9.78995 5.01001 10.46 5.01001H12.9C13.56 5.01001 14.15 5.41001 14.4 6.03001ZM12.4233 7.38132C12.6139 7.20052 12.8067 7.01765 12.97 6.82001H12.98C13.09 6.71001 13.1 6.65001 13.07 6.57001C13.04 6.50001 12.98 6.46001 12.9 6.46001H10.46C10.38 6.46001 10.32 6.50001 10.29 6.57001C10.26 6.65001 10.27 6.71001 10.33 6.77001C10.5408 7.00616 10.7374 7.19251 10.9258 7.37107C10.9608 7.40423 10.9955 7.43712 11.03 7.47001C11.066 7.50438 11.1022 7.53874 11.1386 7.5732C11.3244 7.74928 11.5127 7.92765 11.68 8.12001C11.8472 7.92765 12.0355 7.74927 12.2213 7.57319C12.2577 7.53874 12.294 7.50437 12.33 7.47001C12.3609 7.44046 12.3921 7.41092 12.4233 7.38132Z" fill="black"/>
</svg>
