<svg width="24" height="24" viewBox="0 0 24 24" fill="none" xmlns="http://www.w3.org/2000/svg">
<path fill-rule="evenodd" clip-rule="evenodd" d="M20.25 10.95C20.25 10.54 20.59 10.2 21 10.2L20.99 10.19C21.4 10.19 21.74 10.53 21.74 10.94V15.96C21.74 17.79 21.1 19.28 20.02 20.3V20.32C20.0142 20.3317 20.0016 20.3399 19.9881 20.3487C19.9784 20.355 19.9683 20.3617 19.96 20.37C19 21.23 17.73 21.74 16.21 21.74H7.78C4.47 21.74 2.25 19.42 2.25 15.97V8.02C2.25 4.57 4.47 2.25 7.78 2.25H11.98C12.39 2.25 12.73 2.59 12.73 3C12.73 3.41 12.39 3.75 11.98 3.75H7.78C5.33 3.75 3.75 5.43 3.75 8.02V14.09L6.51 12.08C8.26 10.81 10.63 10.92 12.26 12.35L14.98 14.79C15.41 14.52 16.02 14.14 16.72 13.76C18.16 12.99 19.35 13.35 20.25 13.91V10.95ZM3.75 15.97C3.75 18.56 5.33 20.24 7.78 20.24H16.2C16.98 20.24 17.66 20.05 18.24 19.74L11.26 13.48C10.17 12.51 8.57 12.44 7.39 13.3L3.75 15.95V15.97ZM16.15 15.84L19.4 18.76V18.77C19.95 18.05 20.26 17.11 20.26 15.98V15.81C19.37 15.01 18.56 14.5 17.45 15.09C16.96 15.35 16.51 15.61 16.15 15.84ZM17.6199 6.26001H15.9299C15.5199 6.26001 15.1799 5.92001 15.1799 5.51001C15.1799 5.10001 15.5199 4.76001 15.9299 4.76001H17.6199V3.07001C17.6199 2.66001 17.9599 2.32001 18.3699 2.32001C18.7799 2.32001 19.1199 2.66001 19.1199 3.07001V4.76001H20.8099C21.2199 4.76001 21.5599 5.10001 21.5599 5.51001C21.5599 5.92001 21.2199 6.26001 20.8099 6.26001H19.1199V7.95001C19.1199 8.36001 18.7799 8.70001 18.3699 8.70001C17.9599 8.70001 17.6199 8.36001 17.6199 7.95001V6.26001Z" fill="black"/>
</svg>
