<svg width="24" height="24" viewBox="0 0 24 24" fill="none" xmlns="http://www.w3.org/2000/svg">
<path fill-rule="evenodd" clip-rule="evenodd" d="M21.95 7.9V14.94H21.96V14.98V16.05C21.96 19.58 19.68 21.95 16.3 21.95H7.65C5.73 21.95 4.18 21.16 3.19 19.84C3.18 19.83 3.1725 19.82 3.165 19.81C3.1575 19.8 3.15 19.79 3.14 19.78C2.42 18.8 2 17.54 2 16.05V7.9C2 4.37 4.27 2 7.65 2H16.3C17.91 2 19.29 2.53 20.31 3.55C21.37 4.61 21.95 6.16 21.95 7.9ZM7.65 3.5C5.13 3.5 3.5 5.22 3.5 7.9V16.03C3.5 16.7 3.6 17.31 3.79 17.85C4.37 16.97 5.25 15.79 6.17 15.03C7.42 14.01 8.77 14.57 9.86 15.03C10.5 15.3 11.1 15.55 11.68 15.55C12.21 15.55 12.88 14.61 13.47 13.78L13.4773 13.7697C14.2956 12.6222 15.2241 11.32 16.58 11.32C18.07 11.32 19.42 12.25 20.45 13.16V7.9C20.45 6.54 20.04 5.4 19.25 4.61C18.52 3.89 17.5 3.5 16.3 3.5H7.65ZM7.65 20.45H16.29C18.82 20.45 20.45 18.73 20.45 16.05V15.25C19.58 14.35 18.06 12.83 16.58 12.83C15.99 12.83 15.3 13.8 14.69 14.66L14.6739 14.6826C13.839 15.8555 12.9816 17.06 11.68 17.06C10.8 17.06 9.99 16.72 9.28 16.42C8.14 15.94 7.63 15.79 7.13 16.2C6.12 17.03 5.13 18.54 4.67 19.28C5.39 20.03 6.41 20.45 7.65 20.45ZM11.46 8.78C11.46 10.22 10.29 11.38 8.86001 11.38C7.42001 11.38 6.26001 10.22 6.26001 8.78C6.26001 7.34 7.43001 6.18 8.86001 6.18C10.29 6.19 11.46 7.35 11.46 8.78ZM9.96001 8.79C9.96001 8.18 9.46001 7.69 8.86001 7.69C8.25001 7.69 7.76001 8.18 7.76001 8.79C7.76001 9.4 8.25001 9.89 8.86001 9.89C9.47001 9.89 9.96001 9.39 9.96001 8.79Z" fill="black"/>
</svg>
