<svg width="24" height="24" viewBox="0 0 24 24" fill="none" xmlns="http://www.w3.org/2000/svg">
<path fill-rule="evenodd" clip-rule="evenodd" d="M16.21 2.25H7.78C4.47 2.25 2.25 4.57 2.25 8.03V15.98C2.25 19.44 4.47 21.76 7.78 21.76H16.21C19.52 21.76 21.74 19.44 21.74 15.98V8.03C21.74 4.57 19.52 2.25 16.21 2.25ZM20.25 15.97C20.25 18.57 18.67 20.25 16.22 20.25H7.78C5.33 20.25 3.75 18.57 3.75 15.97V8.02C3.75 5.42 5.33 3.74 7.78 3.74H16.21C18.66 3.74 20.24 5.42 20.24 8.02V15.97H20.25ZM11.84 8.08C9.48997 8.08 7.58997 9.99 7.58997 12.33C7.58997 14.67 9.49997 16.58 11.84 16.58C14.18 16.58 16.09 14.67 16.09 12.33C16.09 9.99 14.18 8.08 11.84 8.08ZM11.84 15.09C10.32 15.09 9.08997 13.85 9.08997 12.34C9.08997 10.83 10.32 9.59 11.84 9.59C13.36 9.59 14.59 10.82 14.59 12.34C14.59 13.86 13.35 15.09 11.84 15.09ZM15.8199 7.38C15.8199 6.8 16.2899 6.34 16.8599 6.34C17.4299 6.34 17.8899 6.81 17.8899 7.38C17.8899 7.95 17.4399 8.41 16.8599 8.41C16.2799 8.41 15.8199 7.96 15.8199 7.38Z" fill="black"/>
</svg>
