<svg width="24" height="24" viewBox="0 0 24 24" fill="none" xmlns="http://www.w3.org/2000/svg">
<path fill-rule="evenodd" clip-rule="evenodd" d="M5.52002 6C5.52002 5.6 5.84002 5.28 6.24002 5.28C6.64002 5.28 6.96002 5.6 6.96002 6V17.52C6.96002 17.92 6.64002 18.24 6.24002 18.24C5.84002 18.24 5.52002 17.92 5.52002 17.52V6ZM18.27 6.51L13.02 11.76L18.27 17.01C18.55 17.29 18.55 17.75 18.27 18.03C18.13 18.17 17.95 18.24 17.76 18.24C17.57 18.24 17.39 18.17 17.25 18.03L11.49 12.27C11.21 11.99 11.21 11.53 11.49 11.25L17.25 5.49C17.53 5.21 17.99 5.21 18.27 5.49C18.55 5.77 18.55 6.23 18.27 6.51Z" fill="black"/>
</svg>
