<svg width="24" height="24" viewBox="0 0 24 24" fill="none" xmlns="http://www.w3.org/2000/svg">
<path fill-rule="evenodd" clip-rule="evenodd" d="M3.75 10.56C3.75 5.98 7.45 2.25 12 2.25C16.55 2.25 20.25 5.98 20.25 10.56C20.25 16.2 13.79 21.75 12 21.75C10.21 21.75 3.75 16.19 3.75 10.56ZM5.25 10.57C5.25 15.34 10.87 20 12 20.25C13.13 20 18.75 15.35 18.75 10.57C18.75 6.82 15.72 3.76 12 3.76C8.28 3.76 5.25 6.81 5.25 10.57ZM8.75 10.5C8.75 8.71 10.21 7.25 12 7.25C13.79 7.25 15.25 8.71 15.25 10.5C15.25 12.29 13.79 13.75 12 13.75C10.21 13.75 8.75 12.29 8.75 10.5ZM10.25 10.5C10.25 11.47 11.03 12.25 12 12.25C12.97 12.25 13.75 11.46 13.75 10.5C13.75 9.54 12.96 8.75 12 8.75C11.04 8.75 10.25 9.53 10.25 10.5Z" fill="black"/>
</svg>
