<svg width="24" height="24" viewBox="0 0 24 24" fill="none" xmlns="http://www.w3.org/2000/svg">
<path fill-rule="evenodd" clip-rule="evenodd" d="M12.19 2.02002H17.07C19.5 2.02002 21.49 4.01002 21.49 6.45002V17.59C21.49 20.03 19.51 22.02 17.06 22.02H12.17C9.73 22.02 7.75 20.04 7.75 17.6V16.66C7.75 16.25 8.09 15.91 8.5 15.91C8.91 15.91 9.25 16.25 9.25 16.66V17.6C9.25 19.21 10.56 20.52 12.17 20.52H17.06C18.67 20.52 19.99 19.21 19.99 17.59V6.45002C19.99 4.83002 18.68 3.52002 17.07 3.52002H12.19C10.57 3.52002 9.25 4.83002 9.25 6.45002V7.38002C9.25 7.79002 8.91 8.13002 8.5 8.13002C8.09 8.13002 7.75 7.79002 7.75 7.38002V6.45002C7.75 4.01002 9.74 2.02002 12.19 2.02002ZM12.36 15.47C12.07 15.18 12.07 14.7 12.36 14.41V14.39L14 12.76H3.77002C3.36002 12.76 3.02002 12.42 3.02002 12.01C3.02002 11.6 3.36002 11.26 3.77002 11.26H14L12.36 9.62998C12.07 9.33998 12.07 8.85998 12.36 8.56998C12.65 8.27998 13.13 8.27998 13.42 8.56998L16.35 11.49C16.42 11.56 16.47 11.64 16.51 11.73C16.55 11.82 16.57 11.92 16.57 12.02C16.57 12.12 16.55 12.22 16.51 12.31C16.47 12.4 16.42 12.48 16.35 12.55L13.42 15.47C13.27 15.62 13.08 15.69 12.89 15.69C12.7 15.69 12.51 15.62 12.36 15.47Z" fill="black"/>
</svg>
