<svg width="24" height="24" viewBox="0 0 24 24" fill="none" xmlns="http://www.w3.org/2000/svg">
<path fill-rule="evenodd" clip-rule="evenodd" d="M13.7499 15.97C13.7499 15.57 14.0699 15.25 14.4699 15.25L14.4799 15.24C14.8799 15.24 15.1999 15.56 15.1999 15.96V16.82C15.1899 19.05 13.3799 20.87 11.1399 20.87H6.7099C4.4699 20.87 2.6499 19.05 2.6499 16.81V6.71001C2.6499 4.47001 4.4699 2.64001 6.7099 2.64001H11.1399C13.3799 2.64001 15.1999 4.47001 15.1999 6.71001V7.56001C15.1999 7.96001 14.8799 8.28001 14.4799 8.28001C14.0799 8.28001 13.7599 7.96001 13.7599 7.56001V6.71001C13.7599 5.27001 12.5799 4.09001 11.1299 4.09001H6.6999C5.2599 4.09001 4.0799 5.26001 4.0799 6.71001V16.83C4.0799 18.27 5.2499 19.45 6.6999 19.45H11.1299C12.5799 19.45 13.7499 18.27 13.7499 16.83V15.97ZM21.28 11.42C21.29 11.44 21.31 11.49 21.31 11.49L21.33 11.54C21.36 11.62 21.38 11.7 21.38 11.79V11.84C21.38 11.92 21.36 12 21.33 12.08C21.3 12.16 21.25 12.24 21.18 12.31L18.52 14.96C18.38 15.1 18.19 15.17 18.01 15.17C17.83 15.17 17.64 15.1 17.5 14.96C17.22 14.68 17.22 14.22 17.5 13.94L18.92 12.52H9.73001C9.33001 12.52 9.01001 12.2 9.01001 11.8C9.01001 11.4 9.33001 11.08 9.73001 11.08H18.92L17.5 9.65999C17.22 9.37999 17.22 8.91999 17.5 8.63999C17.78 8.35999 18.24 8.35999 18.52 8.63999L21.18 11.29C21.22 11.33 21.25 11.37 21.28 11.42Z" fill="black"/>
</svg>
