<svg width="24" height="24" viewBox="0 0 24 24" fill="none" xmlns="http://www.w3.org/2000/svg">
<path fill-rule="evenodd" clip-rule="evenodd" d="M19.5 11.25H21C21.41 11.25 21.75 11.59 21.75 12C21.75 12.41 21.41 12.75 21 12.75H19.5C19.15 16.31 16.31 19.15 12.75 19.5V21C12.75 21.41 12.41 21.75 12 21.75C11.59 21.75 11.25 21.41 11.25 21V19.5C7.69 19.15 4.85 16.31 4.5 12.75H3C2.59 12.75 2.25 12.41 2.25 12C2.25 11.59 2.59 11.25 3 11.25H4.5C4.85 7.68 7.69 4.84 11.25 4.49V3C11.25 2.59 11.59 2.25 12 2.25C12.41 2.25 12.75 2.59 12.75 3V4.49C16.31 4.85 19.15 7.69 19.5 11.25ZM5.96 12C5.96 15.33 8.67 18.04 12 18.04C15.33 18.04 18.04 15.33 18.04 12C18.04 8.67 15.33 5.96 12 5.96C8.67 5.96 5.96 8.67 5.96 12ZM9.16992 12C9.16992 10.44 10.4399 9.16998 11.9999 9.16998C13.5599 9.16998 14.8299 10.45 14.8299 12C14.8299 13.55 13.5599 14.82 11.9999 14.82C10.4399 14.82 9.16992 13.56 9.16992 12ZM10.6699 12C10.6699 12.73 11.2699 13.32 11.9999 13.32C12.7399 13.32 13.3299 12.74 13.3299 12C13.3299 11.26 12.7399 10.67 11.9999 10.67C11.2599 10.67 10.6699 11.27 10.6699 12Z" fill="black"/>
</svg>
