<svg width="24" height="24" viewBox="0 0 24 24" fill="none" xmlns="http://www.w3.org/2000/svg">
<path fill-rule="evenodd" clip-rule="evenodd" d="M18.7701 4.15001L16.0701 9.53001L16.0601 9.54001C17.7401 10.78 18.8301 12.76 18.8301 14.99C18.8301 18.72 15.7901 21.76 12.0601 21.76C8.33008 21.76 5.29008 18.73 5.29008 14.99C5.29008 12.69 6.44008 10.66 8.20008 9.43001L5.26008 4.22001C5.02008 3.81001 5.02008 3.33001 5.26008 2.92001C5.50008 2.51001 5.92008 2.27001 6.39008 2.27001H8.97008C9.44008 2.27001 9.88008 2.52001 10.1101 2.94001L12.1701 6.64001L14.0101 2.97001C14.2301 2.53001 14.6801 2.26001 15.1801 2.26001H17.6001C18.0601 2.26001 18.4701 2.49001 18.7101 2.88001C18.9501 3.27001 18.9701 3.74001 18.7701 4.15001ZM17.2901 3.75001H15.3101L13.0601 8.23001L13.0901 8.29001C13.6701 8.38001 14.2401 8.54001 14.7701 8.77001L17.2901 3.75001ZM8.86008 3.76001H6.74008L9.53008 8.70001C10.1001 8.47001 10.7101 8.31001 11.3501 8.24001L8.86008 3.76001ZM6.79008 14.98C6.79008 17.88 9.15008 20.25 12.0601 20.25C14.9601 20.25 17.3301 17.88 17.3301 14.98C17.3301 12.08 14.9601 9.71001 12.0601 9.71001C9.16008 9.71001 6.79008 12.08 6.79008 14.98ZM13.5 12.9L14.58 13.06L14.61 13.08C14.9 13.12 15.17 13.27 15.35 13.51C15.53 13.75 15.61 14.04 15.57 14.34C15.54 14.58 15.42 14.82 15.24 15L14.46 15.75L14.64 16.8C14.69 17.11 14.62 17.4 14.44 17.65C14.26 17.89 14 18.05 13.7 18.1C13.46 18.14 13.21 18.1 12.99 17.98L12.03 17.48L11.06 17.98C10.9 18.07 10.72 18.11 10.54 18.11C10.42 18.11 10.31 18.09 10.2 18.06C9.90997 17.97 9.66997 17.77 9.52997 17.5C9.40997 17.29 9.36997 17.03 9.40997 16.79L9.59997 15.73L8.81997 14.98C8.59997 14.77 8.46997 14.49 8.46997 14.19C8.46997 13.89 8.57997 13.61 8.78997 13.39C8.95997 13.22 9.19997 13.1 9.44997 13.06L10.53 12.91L11.01 11.94C11.15 11.66 11.39 11.46 11.68 11.37C11.96 11.28 12.27 11.31 12.54 11.45C12.74 11.55 12.91 11.72 13.02 11.93V11.94L13.5 12.9ZM12.92 15.8C12.85 15.43 12.98 15.05 13.25 14.79V14.82L13.62 14.47L13.1 14.39C12.74 14.34 12.42 14.11 12.25 13.77L12.01 13.29L11.77 13.77C11.61 14.1 11.29 14.33 10.92 14.38L10.4 14.45L10.77 14.8C11.04 15.06 11.16 15.43 11.1 15.8L11.01 16.31L11.49 16.06C11.65 15.97 11.83 15.93 12.01 15.93C12.19 15.93 12.37 15.98 12.53 16.06L13.01 16.31L12.92 15.8Z" fill="black"/>
</svg>
