<svg width="24" height="24" viewBox="0 0 24 24" fill="none" xmlns="http://www.w3.org/2000/svg">
<path d="M18.87 2.34004C18.5 2.15004 18.05 2.30004 17.86 2.67004L14.8 8.77004C14.27 8.54004 13.7 8.37004 13.11 8.28004L13.08 8.23004L15.54 3.34004C15.73 2.97004 15.58 2.52004 15.21 2.33004C14.84 2.14004 14.39 2.30004 14.2 2.66004L12.2 6.63004L9.98003 2.64004C9.78003 2.28004 9.32003 2.15004 8.96003 2.35004C8.60003 2.55004 8.47003 3.01004 8.67003 3.37004L11.37 8.24004C10.73 8.31004 10.12 8.46004 9.54003 8.70004L6.12003 2.64004C5.92003 2.28004 5.46003 2.15004 5.10003 2.36004C4.74003 2.56004 4.61003 3.02004 4.82003 3.38004L8.23003 9.41004C6.47003 10.63 5.32003 12.67 5.32003 14.97C5.32003 18.71 8.36003 21.74 12.09 21.74C15.82 21.74 18.86 18.7 18.86 14.97C18.86 12.74 17.77 10.75 16.1 9.52004L19.2 3.34004C19.39 2.97004 19.24 2.52004 18.87 2.33004V2.34004ZM17.37 14.98C17.37 17.89 15 20.25 12.1 20.25C9.20003 20.25 6.83003 17.88 6.83003 14.98C6.83003 12.08 9.20003 9.71004 12.1 9.71004C12.22 9.71004 12.35 9.71004 12.47 9.72004C12.55 9.74004 12.63 9.74004 12.71 9.74004C15.33 10.04 17.38 12.28 17.38 14.98H17.37Z" fill="black"/>
</svg>
