<svg width="24" height="24" viewBox="0 0 24 24" fill="none" xmlns="http://www.w3.org/2000/svg">
<path fill-rule="evenodd" clip-rule="evenodd" d="M12.56 2.89C15.23 3.04 17.71 4.34 19.38 6.45V6.44C22.12 9.9 22.04 14.87 19.18 18.25C17.39 20.38 14.77 21.59 12.01 21.59H9.88001H5.57001H5.05001C4.48001 21.59 3.95001 21.28 3.68001 20.77C3.41001 20.27 3.44001 19.65 3.76001 19.17C3.90242 18.9598 4.07703 18.7128 4.24016 18.482C4.31758 18.3724 4.39242 18.2666 4.46001 18.17C4.51001 18.1 4.51001 18.01 4.47001 17.94C3.67198 16.5705 3.54371 16.2494 3.50184 16.1446L3.50001 16.14C1.87001 12.62 2.62001 8.38 5.39001 5.61C7.28001 3.73 9.89001 2.73 12.56 2.89ZM12.01 20.16C14.35 20.16 16.56 19.13 18.08 17.33C20.46 14.52 20.53 10.22 18.25 7.34C16.82 5.53 14.77 4.45 12.48 4.32C10.22 4.19 8.01001 5.03 6.41001 6.63C4.07001 8.98 3.43001 12.57 4.82001 15.58C4.86001 15.69 5.01001 16.02 5.71001 17.23C6.03001 17.79 6.00001 18.49 5.63001 19.01C5.42001 19.3 5.16001 19.67 4.95001 19.98C4.93001 20.02 4.93001 20.06 4.95001 20.1C4.98001 20.16 5.05001 20.16 5.05001 20.16H5.57001H9.88001C10.2539 20.16 10.5998 20.1614 10.9036 20.1626C11.4125 20.1647 11.8034 20.1663 12.01 20.16ZM14.8601 12.5C14.8601 11.96 15.3001 11.51 15.8501 11.51C16.3901 11.51 16.8401 11.96 16.8401 12.5C16.8401 13.04 16.3901 13.49 15.8501 13.49C15.3101 13.49 14.8601 13.04 14.8601 12.5ZM12.01 11.51C11.46 11.51 11.02 11.96 11.02 12.5C11.02 13.04 11.47 13.49 12.01 13.49C12.55 13.49 13 13.04 13 12.5C13 11.96 12.55 11.51 12.01 11.51ZM7.16992 12.5C7.16992 11.96 7.60992 11.51 8.15992 11.51C8.69992 11.51 9.14992 11.96 9.14992 12.5C9.14992 13.04 8.69992 13.49 8.15992 13.49C7.61992 13.49 7.16992 13.04 7.16992 12.5Z" fill="black"/>
</svg>
