<svg width="24" height="24" viewBox="0 0 24 24" fill="none" xmlns="http://www.w3.org/2000/svg">
<path fill-rule="evenodd" clip-rule="evenodd" d="M11.25 5.81001L10.35 6.71001H10.37C10.08 7.00001 9.60003 7.00001 9.31003 6.71001C9.02003 6.42001 9.02003 5.94001 9.31003 5.65001L11.49 3.47001C11.56 3.40001 11.64 3.35001 11.73 3.31001C11.81 3.28001 11.9 3.26001 11.99 3.26001H12.01H12.03C12.12 3.26001 12.21 3.28001 12.29 3.31001C12.38 3.35001 12.46 3.40001 12.53 3.47001L14.71 5.65001C15 5.94001 15 6.42001 14.71 6.71001C14.42 7.00001 13.94 7.00001 13.65 6.71001L12.75 5.81001V9.54001C12.75 9.95001 12.41 10.29 12 10.29C11.59 10.29 11.25 9.95001 11.25 9.54001V5.81001ZM12.75 18.19L13.65 17.29V17.31C13.94 17.02 14.42 17.02 14.71 17.31C15 17.6 15 18.08 14.71 18.37L12.54 20.54L12.52 20.56C12.45 20.62 12.38 20.67 12.3 20.7C12.21 20.74 12.12 20.76 12.02 20.76H12H11.99C11.9 20.76 11.81 20.74 11.73 20.71C11.64 20.67 11.56 20.62 11.48 20.54L9.30002 18.36C9.01002 18.07 9.01002 17.59 9.30002 17.3C9.59002 17.01 10.07 17.01 10.36 17.3L11.25 18.19V14.46C11.25 14.05 11.59 13.71 12 13.71C12.41 13.71 12.75 14.05 12.75 14.46V18.19ZM5.81 12.75H9.54C9.95 12.75 10.29 12.41 10.29 12C10.29 11.59 9.95 11.25 9.54 11.25H5.81L6.71 10.35C7 10.06 7 9.58001 6.71 9.29001C6.42 9.00001 5.94 9.00001 5.65 9.29001L3.47 11.47C3.4 11.54 3.34 11.62 3.31 11.71C3.27 11.8 3.25 11.9 3.25 12C3.25 12.1 3.27 12.2 3.31 12.29C3.35 12.38 3.4 12.46 3.47 12.53L5.65 14.71C5.8 14.86 5.99 14.93 6.18 14.93C6.37 14.93 6.56 14.86 6.71 14.71C7 14.42 7 13.94 6.71 13.65L5.81 12.75ZM20.54 11.48C20.61 11.55 20.66 11.63 20.69 11.71V11.72C20.73 11.8 20.75 11.89 20.75 11.98V12.03C20.74 12.12 20.72 12.21 20.69 12.29C20.65 12.38 20.6 12.46 20.53 12.53L18.35 14.71C18.2 14.86 18.01 14.93 17.82 14.93C17.63 14.93 17.44 14.86 17.29 14.71C17 14.42 17 13.94 17.29 13.65L18.19 12.75H14.46C14.05 12.75 13.71 12.41 13.71 12C13.71 11.59 14.05 11.25 14.46 11.25H18.19L17.29 10.35C17 10.06 17 9.58001 17.29 9.29001C17.58 9.00001 18.06 9.00001 18.35 9.29001L20.52 11.46C20.54 11.47 20.54 11.48 20.54 11.48Z" fill="black"/>
</svg>
