<svg width="24" height="24" viewBox="0 0 24 24" fill="none" xmlns="http://www.w3.org/2000/svg">
<path fill-rule="evenodd" clip-rule="evenodd" d="M18.28 8.77998L21.68 19.46L21.69 19.47C21.85 19.97 21.72 20.52 21.36 20.9C21.08 21.19 20.7 21.35 20.31 21.35C20.19 21.35 20.06 21.33 19.94 21.3L8.88004 18.39C8.86504 18.385 8.85254 18.3775 8.84004 18.37C8.82754 18.3625 8.81504 18.355 8.80004 18.35C8.56004 18.27 8.36004 18.15 8.22004 18.01C7.28004 17.13 7.59004 15.34 9.07004 13.09C9.30004 12.75 9.76004 12.65 10.11 12.88C10.45 13.11 10.55 13.57 10.32 13.92C9.16004 15.68 9.08004 16.76 9.24004 16.91C9.29004 16.96 9.74004 17.06 10.77 16.52C11.81 15.98 12.98 15.05 14.06 13.89C16.14 11.66 16.84 9.78998 16.81 9.11998L16.73 8.86998C16.51 8.69998 15.21 8.94998 13.28 10.59C12.96 10.86 12.49 10.82 12.22 10.5C11.96 10.18 11.99 9.70998 12.31 9.43998C12.54 9.24998 12.75 9.07998 12.97 8.91998C11.22 5.67998 13.07 3.06998 13.16 2.94998C13.41 2.61998 13.87 2.54998 14.21 2.78998C14.55 3.03998 14.62 3.50998 14.38 3.83998C14.31 3.92998 13.07 5.75998 14.24 8.08998C15.77 7.22998 17.03 7.08998 17.77 7.77998C18.06 8.04998 18.22 8.38998 18.28 8.77998ZM11.8718 17.6131C12.9484 16.9831 14.0939 16.0458 15.16 14.91C16.14 13.86 17.02 12.67 17.61 11.53L20.32 19.84L11.8718 17.6131ZM3.77001 6.80998C3.77001 7.21998 3.43001 7.55998 3.02001 7.55998C2.61001 7.55998 2.26001 7.21998 2.26001 6.80998C2.26001 6.39998 2.59001 6.05998 3.00001 6.05998H3.02001C3.43001 6.05998 3.77001 6.39998 3.77001 6.80998ZM5.85009 16.44H5.83009C5.42009 16.44 5.09009 16.78 5.09009 17.19C5.09009 17.6 5.44009 17.94 5.85009 17.94C6.26009 17.94 6.60009 17.6 6.60009 17.19C6.60009 16.78 6.26009 16.44 5.85009 16.44ZM10.45 5.89998C10.45 6.97998 9.58005 7.84998 8.50005 7.84998C7.42005 7.84998 6.55005 6.97998 6.55005 5.89998C6.55005 4.81998 7.42005 3.94998 8.50005 3.94998C9.58005 3.94998 10.45 4.81998 10.45 5.89998ZM8.95005 5.89998C8.95005 5.64998 8.75005 5.44998 8.50005 5.44998C8.25005 5.44998 8.05005 5.64998 8.05005 5.89998C8.05005 6.14998 8.25005 6.34998 8.50005 6.34998C8.75005 6.34998 8.95005 6.14998 8.95005 5.89998ZM6.44994 13.14C6.35994 13.14 4.18994 13.21 2.54994 15.36C2.29994 15.69 2.35994 16.16 2.68994 16.41C2.82994 16.51 2.98994 16.56 3.13994 16.56C3.36994 16.56 3.58994 16.46 3.73994 16.26C4.91994 14.71 6.39994 14.63 6.47994 14.63C6.88994 14.62 7.21994 14.28 7.20994 13.87C7.20994 13.46 6.81994 13.16 6.44994 13.13V13.14ZM4.43988 11.46C4.02988 11.57 3.61988 11.34 3.50988 10.94V10.95C3.39988 10.55 3.62988 10.13 4.02988 10.02C9.41221 8.49782 12.904 11.9939 13.0873 12.1774L13.0899 12.18C13.3699 12.48 13.3699 12.95 13.0699 13.24C12.9299 13.38 12.7499 13.45 12.5499 13.45C12.3499 13.45 12.1599 13.37 12.0099 13.22C11.8799 13.08 8.94988 10.18 4.43988 11.46Z" fill="black"/>
</svg>
