<svg width="24" height="24" viewBox="0 0 24 24" fill="none" xmlns="http://www.w3.org/2000/svg">
<path fill-rule="evenodd" clip-rule="evenodd" d="M20.1799 14.65L21.6799 19.38C21.8399 19.88 21.7099 20.43 21.3499 20.81C21.0799 21.1 20.6999 21.26 20.3099 21.26C20.1799 21.26 20.0599 21.24 19.9399 21.21L9.00991 18.33C8.99991 18.33 8.99241 18.325 8.98491 18.32C8.97741 18.315 8.96991 18.31 8.95991 18.31C8.73991 18.24 8.53991 18.13 8.35991 17.96C7.06991 16.75 8.27991 14.11 10.1199 11.84C8.81991 11.26 6.96991 10.84 4.71991 11.48C4.31991 11.59 3.89991 11.36 3.78991 10.96C3.67991 10.56 3.90991 10.14 4.30991 10.03C7.22991 9.19002 9.57991 9.87002 11.1499 10.67C11.7399 10.05 12.3899 9.47002 13.0499 8.97002C11.3556 5.8263 13.0854 3.28683 13.2327 3.07058L13.2399 3.06002C13.4899 2.73002 13.9499 2.65002 14.2899 2.90002C14.6299 3.14002 14.6999 3.61002 14.4599 3.94002L14.4579 3.94297C14.3772 4.06354 13.1806 5.85141 14.3199 8.13002C15.7099 7.34002 17.0099 7.08002 17.8199 7.83002C18.1099 8.09002 18.2699 8.43002 18.3299 8.82002L20.1699 14.61C20.1799 14.62 20.1799 14.65 20.1799 14.65ZM11.4399 12.6C9.53991 14.87 9.13991 16.63 9.37991 16.86L9.38991 16.87C9.65991 17.11 11.7099 16.48 14.1399 13.88C16.2199 11.65 16.8699 9.80002 16.8499 9.16002L16.7799 8.93002C16.4999 8.70002 14.6799 9.29002 12.4699 11.49C12.9499 11.85 13.2299 12.13 13.2699 12.17C13.5499 12.47 13.5499 12.94 13.2499 13.23C13.1099 13.37 12.9299 13.44 12.7299 13.44C12.5299 13.44 12.3399 13.36 12.1899 13.21C12.1815 13.2037 12.1633 13.1871 12.1355 13.162L12.1355 13.1619L12.1355 13.1619C12.0318 13.0677 11.795 12.8525 11.4399 12.6ZM15.2299 14.9C14.2399 15.96 13.0999 16.92 11.9999 17.57L15.1999 18.41C15.7999 17.96 16.4199 17.39 17.0199 16.75C17.6299 16.09 18.1699 15.39 18.6199 14.7L17.6299 11.6C17.0499 12.71 16.1899 13.88 15.2299 14.9ZM18.1099 17.77C17.7399 18.17 17.3599 18.54 16.9799 18.88H16.9699L20.2099 19.73L19.1799 16.5C18.8499 16.93 18.4899 17.36 18.1099 17.77ZM3.22997 7.62001C3.63997 7.62001 3.97997 7.28001 3.97997 6.87001C3.97997 6.46001 3.63997 6.12001 3.22997 6.12001H3.20997C2.79997 6.12001 2.46997 6.46001 2.46997 6.87001C2.46997 7.28001 2.81997 7.62001 3.22997 7.62001ZM5.92992 16.38H5.90992C5.49992 16.38 5.16992 16.72 5.16992 17.13C5.16992 17.54 5.51992 17.88 5.92992 17.88C6.33992 17.88 6.67992 17.54 6.67992 17.13C6.67992 16.72 6.33992 16.38 5.92992 16.38ZM6.50002 13.33L6.48166 13.3295C6.25164 13.3218 4.20212 13.2531 2.44002 15.15C2.16002 15.45 2.18002 15.93 2.48002 16.21C2.62002 16.34 2.81002 16.41 2.99002 16.41C3.19002 16.41 3.39002 16.33 3.54002 16.17C4.81045 14.8026 6.22195 14.8271 6.37904 14.8299L6.39002 14.83C6.80002 14.85 7.16002 14.55 7.19002 14.14C7.22003 13.73 6.91002 13.37 6.50002 13.33ZM10.33 5.97001C10.33 7.04001 9.45995 7.91001 8.38995 7.91001C7.31995 7.91001 6.44995 7.04001 6.44995 5.97001C6.44995 4.90001 7.31995 4.03001 8.38995 4.03001C9.45995 4.03001 10.33 4.90001 10.33 5.97001ZM8.82995 5.98001C8.82995 5.74001 8.62995 5.54001 8.38995 5.54001C8.14995 5.54001 7.94995 5.74001 7.94995 5.98001C7.94995 6.22001 8.14995 6.42001 8.38995 6.42001C8.62995 6.42001 8.82995 6.22001 8.82995 5.98001Z" fill="black"/>
</svg>
