<svg width="24" height="24" viewBox="0 0 24 24" fill="none" xmlns="http://www.w3.org/2000/svg">
<path fill-rule="evenodd" clip-rule="evenodd" d="M14.41 2.85001H14.4L9.76997 2.87001C8.69997 2.87001 7.69997 3.29001 6.94997 4.05001C6.19997 4.81001 5.77997 5.81001 5.78997 6.88001L5.82997 17.17C5.82997 19.37 7.62997 21.15 9.82997 21.15H9.83997L14.47 21.13C15.54 21.13 16.54 20.71 17.29 19.95C18.04 19.19 18.46 18.19 18.45 17.12L18.41 6.83001C18.41 4.63001 16.61 2.85001 14.41 2.85001ZM16.26 18.94C15.78 19.43 15.14 19.69 14.45 19.7L9.81997 19.72C8.40997 19.72 7.26997 18.58 7.25997 17.17L7.21997 6.88001C7.21997 6.20001 7.47997 5.55001 7.95997 5.07001C8.43997 4.59001 9.07997 4.32001 9.76997 4.31001L14.4 4.29001C15.81 4.29001 16.95 5.43001 16.96 6.84001L17 17.13C17 17.81 16.74 18.46 16.26 18.94ZM20.74 8.69C21.14 8.69 21.46 9.01 21.46 9.41L21.48 14.52C21.48 14.92 21.16 15.24 20.76 15.24C20.36 15.24 20.04 14.92 20.04 14.52L20.02 9.41C20.02 9.01 20.34 8.69 20.74 8.69ZM2.76001 9.47C2.76001 9.08 3.08001 8.75 3.48001 8.75C3.88001 8.75 4.20001 9.07 4.20001 9.47L4.22001 14.58C4.22001 14.98 3.90001 15.3 3.50001 15.3C3.10001 15.3 2.78001 14.98 2.78001 14.58L2.76001 9.47ZM13.09 16.92C13.09 17.4502 12.6602 17.88 12.13 17.88C11.5999 17.88 11.17 17.4502 11.17 16.92C11.17 16.3898 11.5999 15.96 12.13 15.96C12.6602 15.96 13.09 16.3898 13.09 16.92Z" fill="black"/>
</svg>
