<svg width="24" height="24" viewBox="0 0 24 24" fill="none" xmlns="http://www.w3.org/2000/svg">
<path d="M17.94 8.89001C15.82 6.97001 12.22 4.72001 9.52002 3.63001C8.29002 3.23001 7.26002 3.28001 6.45002 3.78001C5.57002 4.32001 5.00002 5.36001 4.75002 6.91001C4.58002 8.46001 4.49002 10.1 4.50002 11.76C4.50002 13.43 4.58002 15.07 4.76002 16.65C4.99002 18.16 5.56002 19.19 6.43002 19.74C6.89002 20.02 7.42002 20.16 8.01002 20.16C8.47002 20.16 8.98002 20.07 9.52002 19.9C9.54002 19.9 9.55002 19.89 9.57002 19.88C12.22 18.81 15.82 16.56 17.93 14.64C18.98 13.72 19.51 12.75 19.51 11.76C19.51 10.77 18.98 9.80001 17.94 8.88001V8.89001ZM16.97 13.58C15 15.37 11.53 17.54 9.05002 18.54C8.24002 18.79 7.61002 18.78 7.18002 18.51C6.68002 18.2 6.34002 17.5 6.18002 16.46C6.01002 14.96 5.93002 13.39 5.94002 11.76C5.94002 10.14 6.01002 8.57001 6.18002 7.10001C6.35002 6.02001 6.70002 5.31001 7.21002 5.00001C7.43002 4.86001 7.71002 4.80001 8.03002 4.80001C8.35002 4.80001 8.67002 4.86001 9.04002 4.98001C11.51 5.98001 15 8.16001 16.99 9.96001C17.71 10.59 18.08 11.2 18.08 11.76C18.08 12.32 17.71 12.93 16.98 13.57L16.97 13.58Z" fill="black"/>
</svg>
