<svg width="24" height="24" viewBox="0 0 24 24" fill="none" xmlns="http://www.w3.org/2000/svg">
<path fill-rule="evenodd" clip-rule="evenodd" d="M2.25 12C2.25 6.62 6.62 2.25 12 2.25C17.38 2.25 21.75 6.62 21.75 12C21.75 17.38 17.38 21.75 12 21.75C6.62 21.75 2.25 17.38 2.25 12ZM3.75 12C3.75 16.55 7.45 20.25 12 20.25C16.55 20.25 20.25 16.55 20.25 12C20.25 7.45 16.55 3.75 12 3.75C7.45 3.75 3.75 7.45 3.75 12ZM12.75 11.25H15.3C15.71 11.25 16.05 11.59 16.05 12C16.05 12.41 15.71 12.75 15.3 12.75H12.75V15.29C12.75 15.7 12.41 16.04 12 16.04C11.59 16.04 11.25 15.7 11.25 15.29V12.75H8.69995C8.28995 12.75 7.94995 12.41 7.94995 12C7.94995 11.59 8.28995 11.25 8.69995 11.25H11.25V8.70001C11.25 8.29001 11.59 7.95001 12 7.95001C12.41 7.95001 12.75 8.29001 12.75 8.70001V11.25Z" fill="black"/>
</svg>
