<svg width="24" height="24" viewBox="0 0 24 24" fill="none" xmlns="http://www.w3.org/2000/svg">
<path fill-rule="evenodd" clip-rule="evenodd" d="M19.44 12.13C19.88 12.22 20.95 12.52 21.58 13.48V13.5C21.8 13.83 21.71 14.28 21.38 14.5C21.25 14.58 21.12 14.62 20.98 14.62C20.75 14.62 20.52 14.51 20.38 14.3C20.16 13.98 19.84 13.8 19.56 13.69C19.5536 13.7069 19.5473 13.7243 19.5409 13.7419C19.5169 13.8076 19.4915 13.8769 19.46 13.94C20.38 14.49 20.99 15.49 20.99 16.61C20.99 18.33 19.59 19.74 17.86 19.74C16.32 19.74 15.04 18.62 14.78 17.16H10.8C10.53 18.62 9.25998 19.73 7.71998 19.73C6.17998 19.73 4.90998 18.62 4.63998 17.16H3.69998C3.29998 17.16 2.97998 16.84 2.97998 16.44V14.04C2.97998 12.97 3.41998 12.01 4.12998 11.31C3.94998 11.2 3.77998 11.08 3.63998 10.93C3.21998 10.48 2.98998 9.88005 2.98998 9.18005V6.91005C2.98998 6.23005 3.21998 5.61005 3.62998 5.16005C4.05998 4.70005 4.67998 4.43005 5.36998 4.43005H8.90998C9.59998 4.43005 10.22 4.69005 10.65 5.15005C11.07 5.60005 11.3 6.20005 11.3 6.90005V9.17005C11.31 9.95005 11.02 10.6 10.54 11.04C10.74 11.24 10.92 11.48 11.06 11.75L11.69 13.03C11.82 13.3 12.1 13.47 12.4 13.47H13.32C13.56 13.47 13.76 13.28 13.77 13.04L13.71 8.89005C13.7 8.33005 13.92 7.80005 14.31 7.40005C14.68 7.02005 15.17 6.81005 15.69 6.78005L15.36 5.97005C15.32 5.87005 15.12 5.74005 15.01 5.74005H12.97C12.57 5.74005 12.25 5.42005 12.25 5.02005C12.25 4.62005 12.57 4.30005 12.97 4.30005H15.01C15.7 4.30005 16.43 4.79005 16.69 5.43005L17.42 7.21005C17.43 7.22005 17.44 7.25005 17.44 7.25005L17.47 7.31005C17.86 6.81005 18.4 6.44005 18.98 6.31005C19.23 6.26005 19.47 6.33005 19.65 6.50005C20.76 7.59005 21.08 8.95005 20.55 10.42C20.46 10.65 20.27 10.82 20.03 10.88C19.84 10.92 19.64 10.94 19.44 10.94C19.27 10.94 19.1 10.91 18.93 10.88L19.44 12.13ZM18.93 7.87005C18.8 7.96005 18.68 8.07005 18.58 8.20005C18.41 8.43005 18.33 8.68005 18.38 8.88005C18.44 9.14005 18.69 9.29005 18.83 9.36005C18.98 9.43005 19.14 9.47005 19.3 9.49005C19.42 8.89005 19.3 8.36005 18.93 7.87005ZM5.35998 5.85005C5.05998 5.85005 4.82998 5.94005 4.66998 6.11005C4.49998 6.29005 4.41998 6.56005 4.41998 6.88005V9.15005C4.41998 9.47005 4.50998 9.74005 4.67998 9.92005C4.83998 10.09 5.06998 10.18 5.36998 10.18H8.90998C9.76998 10.17 9.84998 9.45005 9.84998 9.14005V6.87005C9.84998 6.55005 9.75998 6.28005 9.58998 6.10005C9.42998 5.93005 9.21998 5.85005 8.89998 5.85005H5.35998ZM6.80998 11.62C5.47998 11.62 4.40998 12.7 4.40998 14.02H4.41998V15.7H15.35C15.41 15.7 15.48 15.68 15.53 15.63L18.14 13.28C18.23 13.2 18.25 13.08 18.21 12.97L16.26 8.20005H15.78C15.61 8.20005 15.45 8.27005 15.33 8.39005C15.21 8.52005 15.15 8.68005 15.15 8.85005L15.21 13.05C15.15 14.1 14.32 14.88 13.32 14.88H12.4C11.55 14.88 10.78 14.41 10.4 13.64L9.76998 12.36C9.53998 11.9 9.08998 11.62 8.57998 11.62H6.80998ZM6.11998 17.14C6.35998 17.8 6.97998 18.27 7.70998 18.27C8.44998 18.27 9.06998 17.8 9.29998 17.14H6.11998ZM16.19 16.91C16.35 17.69 17.03 18.27 17.85 18.27L17.86 18.25C18.8 18.25 19.56 17.49 19.56 16.56C19.56 15.84 19.09 15.2 18.42 14.97L17.86 15.47L18.41 16.11C18.67 16.42 18.63 16.87 18.33 17.13C18.19 17.24 18.03 17.3 17.86 17.3C17.65 17.3 17.45 17.22 17.31 17.05L16.78 16.44L16.51 16.69C16.41 16.78 16.3 16.85 16.19 16.91ZM7.92 7.89996H6.35C5.95 7.89996 5.63 7.57996 5.63 7.17996C5.63 6.77996 5.95 6.45996 6.35 6.45996H7.92C8.32 6.45996 8.64001 6.77996 8.64001 7.17996C8.64001 7.57996 8.32 7.89996 7.92 7.89996Z" fill="black"/>
</svg>
