<svg width="24" height="24" viewBox="0 0 24 24" fill="none" xmlns="http://www.w3.org/2000/svg">
<path fill-rule="evenodd" clip-rule="evenodd" d="M11.9799 12.76H11.9499V12.74C10.5199 12.74 9.17988 12.18 8.17988 11.17C7.16988 10.16 6.62988 8.82 6.62988 7.4C6.62988 4.46 9.02988 2.06 11.9799 2.06C14.9299 2.06 17.3299 4.46 17.3299 7.41C17.3299 10.36 14.9299 12.76 11.9799 12.76ZM15.8299 7.42C15.8299 5.30166 14.1026 3.57272 11.9849 3.57C9.86716 3.57272 8.13988 5.30166 8.13988 7.42C8.12988 8.45 8.52988 9.41 9.24988 10.14C9.96988 10.87 10.9299 11.27 11.9499 11.27L11.9799 12.02V11.27C14.1099 11.27 15.8299 9.54 15.8299 7.42ZM4.06006 18.28C4.06006 14.98 8.58006 14.6 11.9801 14.6C13.9401 14.6 19.9001 14.6 19.9001 18.3C19.9001 21.6 15.3801 21.98 11.9801 21.98C10.0201 21.98 4.06006 21.98 4.06006 18.28ZM5.56006 18.28C5.56006 19.74 7.72006 20.48 11.9801 20.48C16.2401 20.48 18.4001 19.76 18.4001 18.3C18.4001 16.84 16.2401 16.1 11.9801 16.1C7.72006 16.1 5.56006 16.82 5.56006 18.28Z" fill="black"/>
</svg>
