<svg width="24" height="24" viewBox="0 0 24 24" fill="none" xmlns="http://www.w3.org/2000/svg">
<path fill-rule="evenodd" clip-rule="evenodd" d="M21 2.49H3C2.59 2.49 2.25 2.83 2.25 3.24C2.25 3.65 2.59 3.99 3 3.99H4.04V18.98C4.04 19.64 4.37 20.25 4.93 20.6C5.49 20.96 6.18 21 6.78 20.71L7.52 20.36C7.77 20.24 8.06 20.23 8.32 20.34L10.41 21.19C10.93 21.4 11.47 21.51 12.01 21.51C12.55 21.51 13.09 21.4 13.61 21.19L15.7 20.34C15.95 20.24 16.25 20.24 16.5 20.36L17.23 20.71C17.83 21 18.52 20.96 19.08 20.6C19.64 20.24 19.98 19.64 19.98 18.97L19.96 3.98H21.01C21.42 3.98 21.76 3.64 21.76 3.23C21.76 2.82 21.42 2.48 21.01 2.48L21 2.49ZM18.47 18.98C18.47 19.19 18.33 19.3 18.27 19.33C18.21 19.37 18.05 19.45 17.86 19.35L17.13 19C16.5 18.7 15.76 18.68 15.12 18.94L13.03 19.79C12.37 20.06 11.63 20.06 10.97 19.79L8.88 18.94C8.23 18.67 7.5 18.7 6.87 19L6.13 19.35C5.94 19.44 5.78 19.36 5.72 19.33C5.66 19.29 5.52 19.18 5.52 18.97V3.99H18.44L18.46 18.98H18.47ZM9.25 10.61H12.92C13.33 10.61 13.67 10.27 13.67 9.86C13.67 9.45 13.33 9.11 12.92 9.11H9.25C8.84 9.11 8.5 9.45 8.5 9.86C8.5 10.27 8.84 10.61 9.25 10.61ZM14.75 14.89H9.25C8.84 14.89 8.5 14.55 8.5 14.14C8.5 13.73 8.84 13.39 9.25 13.39H14.75C15.16 13.39 15.5 13.73 15.5 14.14C15.5 14.55 15.16 14.89 14.75 14.89Z" fill="black"/>
</svg>
