<svg width="24" height="24" viewBox="0 0 24 24" fill="none" xmlns="http://www.w3.org/2000/svg">
<path fill-rule="evenodd" clip-rule="evenodd" d="M20.1601 6.92C20.1601 4.04 18.4301 2.25 15.6401 2.25H8.34008C5.57008 2.25 3.85008 4.04 3.85008 6.92L3.83008 19.17C3.83008 19.85 4.17008 20.46 4.74008 20.82C5.31008 21.18 6.02008 21.22 6.63008 20.93L7.38008 20.57C7.64008 20.44 7.95008 20.44 8.22008 20.55L10.3701 21.43C10.9001 21.64 11.4501 21.75 12.0001 21.75C12.5501 21.75 13.1101 21.64 13.6301 21.43L15.7701 20.55C16.0401 20.44 16.3401 20.45 16.6101 20.57L17.3701 20.93C17.9801 21.22 18.6901 21.18 19.2601 20.82C19.8301 20.46 20.1701 19.84 20.1701 19.17V6.92H20.1601ZM18.4601 19.56C18.4001 19.6 18.2201 19.68 18.0201 19.59L17.2601 19.23C16.6201 18.92 15.8701 18.9 15.2101 19.17L13.0701 20.05C12.3801 20.33 11.6201 20.33 10.9401 20.05L8.79008 19.17C8.48008 19.05 8.16008 18.98 7.83008 18.98C7.45008 18.98 7.08008 19.06 6.74008 19.23L5.99008 19.59C5.79008 19.69 5.62008 19.6 5.55008 19.56C5.48008 19.52 5.34008 19.4 5.34008 19.18L5.36008 6.93C5.36008 5.48 5.88008 3.76 8.35008 3.76H15.6501C17.6001 3.76 18.6701 4.89 18.6701 6.94V19.2C18.6701 19.43 18.5301 19.54 18.4701 19.58L18.4601 19.56ZM14.36 13.7H9.25C8.84 13.7 8.5 14.04 8.5 14.45C8.5 14.86 8.84 15.2 9.25 15.2H14.36C14.77 15.2 15.11 14.86 15.11 14.45C15.11 14.04 14.77 13.7 14.36 13.7ZM11.2001 10.32L13.8301 7.69C14.1201 7.4 14.6001 7.4 14.8901 7.69C15.1801 7.98 15.1801 8.46 14.8901 8.75L11.7301 11.91C11.5801 12.06 11.3901 12.13 11.2001 12.13C11.0101 12.13 10.8201 12.06 10.6701 11.91L9.1301 10.37C8.8401 10.08 8.8401 9.6 9.1301 9.31C9.4201 9.02 9.9001 9.02 10.1901 9.31L11.2001 10.32Z" fill="black"/>
</svg>
