<svg width="24" height="24" viewBox="0 0 24 24" fill="none" xmlns="http://www.w3.org/2000/svg">
<path d="M19.9601 7.34999C19.5901 7.19999 19.1701 7.36999 19.0201 7.72999L18.2901 9.44999C17.3201 6.39999 14.4901 4.23999 11.1201 4.23999C6.9701 4.23999 3.6001 7.60999 3.6001 11.76C3.6001 15.91 6.9701 19.28 11.1201 19.28C13.6001 19.28 15.9201 18.07 17.3201 16.03C17.5501 15.7 17.4601 15.25 17.1401 15.03C16.8101 14.8 16.3601 14.89 16.1401 15.21C15.0101 16.86 13.1301 17.84 11.1301 17.84C7.7801 17.84 5.0501 15.11 5.0501 11.76C5.0501 8.40999 7.7801 5.67999 11.1301 5.67999C14.0501 5.67999 16.4701 7.68999 17.0701 10.43L14.7901 9.46999C14.4201 9.30999 14.0001 9.48999 13.8501 9.84999C13.6901 10.22 13.8701 10.64 14.2301 10.79L17.5901 12.21C17.5901 12.21 17.6701 12.25 17.7201 12.26L17.8601 12.32C17.9501 12.36 18.0501 12.38 18.1401 12.38C18.4201 12.38 18.6901 12.21 18.8001 11.94L20.3401 8.28999C20.5001 7.91999 20.3201 7.49999 19.9601 7.34999Z" fill="black"/>
</svg>
