<svg width="24" height="24" viewBox="0 0 24 24" fill="none" xmlns="http://www.w3.org/2000/svg">
<path d="M12.88 4.24001C9.50003 4.24001 6.68003 6.41001 5.71003 9.45001L4.98003 7.73001C4.83003 7.36001 4.40003 7.19001 4.04003 7.35001C3.67003 7.50001 3.50003 7.93001 3.66003 8.29001L5.20003 11.94C5.32003 12.21 5.58003 12.38 5.86003 12.38C5.95003 12.38 6.05003 12.36 6.14003 12.32L9.77003 10.78C10.14 10.63 10.31 10.2 10.15 9.84001C10 9.47001 9.57003 9.30001 9.21003 9.46001L6.94003 10.42C7.55003 7.72001 10.01 5.67001 12.88 5.67001C16.23 5.67001 18.96 8.40001 18.96 11.75C18.96 15.1 16.23 17.83 12.88 17.83C10.88 17.83 9.01003 16.85 7.86003 15.2C7.63003 14.87 7.18003 14.79 6.86003 15.02C6.53003 15.25 6.45003 15.7 6.68003 16.02C8.09003 18.05 10.41 19.27 12.88 19.27C17.03 19.27 20.4 15.9 20.4 11.75C20.4 7.60001 17.03 4.23001 12.88 4.23001V4.24001Z" fill="black"/>
</svg>
