<svg width="24" height="24" viewBox="0 0 24 24" fill="none" xmlns="http://www.w3.org/2000/svg">
<path fill-rule="evenodd" clip-rule="evenodd" d="M2.25 12C2.25 6.62 6.62 2.25 12 2.25C17.38 2.25 21.75 6.62 21.75 12C21.75 17.38 17.38 21.75 12 21.75C6.62 21.75 2.25 17.38 2.25 12ZM3.75 12C3.75 16.55 7.45 20.25 12 20.25C16.55 20.25 20.25 16.55 20.25 12C20.25 7.45 16.55 3.75 12 3.75C7.45 3.75 3.75 7.45 3.75 12ZM14.8601 10.2L13.0601 12L14.8701 13.81C15.1601 14.1 15.1601 14.58 14.8701 14.87C14.7201 15.02 14.5301 15.09 14.3401 15.09C14.1501 15.09 13.9601 15.02 13.8101 14.87L12.0001 13.06L10.2001 14.86C9.91011 15.15 9.43011 15.15 9.14011 14.86C8.85011 14.57 8.85011 14.09 9.14011 13.8L10.9401 12L9.14011 10.2C8.85011 9.91 8.85011 9.43 9.14011 9.14C9.43011 8.85 9.91011 8.85 10.2001 9.14L12.0001 10.94L13.8001 9.14C14.0901 8.85 14.5701 8.85 14.8601 9.14C15.1501 9.43 15.1501 9.91 14.8601 10.2Z" fill="black"/>
</svg>
