<svg width="24" height="24" viewBox="0 0 24 24" fill="none" xmlns="http://www.w3.org/2000/svg">
<path fill-rule="evenodd" clip-rule="evenodd" d="M19.27 13.36L19.7 14.28C20.13 15.18 20.06 16.22 19.53 17.05C19 17.88 18.09 18.38 17.1 18.38H15.61C15.47 20.26 13.91 21.75 12 21.75C10.09 21.75 8.53003 20.26 8.39003 18.38H6.90003C5.91003 18.38 5.00003 17.88 4.47003 17.05C3.93003 16.21 3.87003 15.18 4.29003 14.28L4.73003 13.36C4.99003 12.81 5.13003 12.19 5.13003 11.58V10.35C5.13003 6.82 7.82003 3.91 11.25 3.53V3C11.25 2.59 11.59 2.25 12 2.25C12.41 2.25 12.75 2.59 12.75 3V3.53C16.19 3.9 18.87 6.82 18.87 10.35V11.58C18.87 12.19 19.01 12.81 19.27 13.36ZM9.89003 18.38C10.03 19.43 10.91 20.25 12 20.25C13.09 20.25 13.98 19.43 14.11 18.38H9.89003ZM17.1 16.89C17.58 16.89 18 16.66 18.26 16.25H18.25C18.5 15.85 18.54 15.36 18.33 14.93L17.9 14.01C17.55 13.26 17.36 12.42 17.36 11.59V10.36C17.36 7.41 14.96 5 12 5C9.05003 5 6.64003 7.4 6.64003 10.36V11.59C6.64003 12.42 6.45003 13.26 6.10003 14.01L5.66003 14.93C5.45003 15.36 5.48003 15.84 5.74003 16.25C6.00003 16.66 6.42003 16.89 6.90003 16.89H17.1ZM8.25003 8.98001C8.43003 7.84001 9.22003 6.91001 10.31 6.55001V6.54001C10.7 6.41001 11.13 6.63001 11.26 7.02001C11.39 7.42001 11.17 7.84001 10.78 7.97001C10.23 8.15001 9.82003 8.63001 9.73003 9.21001C9.67003 9.58001 9.35003 9.84001 8.99003 9.84001H8.87003C8.46003 9.77001 8.19003 9.39001 8.25003 8.98001Z" fill="black"/>
</svg>
