<svg width="24" height="24" viewBox="0 0 24 24" fill="none" xmlns="http://www.w3.org/2000/svg">
<path fill-rule="evenodd" clip-rule="evenodd" d="M18.4501 2.47C19.4701 3.46 20.2401 4.67 20.6701 5.98V5.97C20.8101 6.36 20.5901 6.79 20.2001 6.92C20.1201 6.95 20.0401 6.96 19.9601 6.96C19.6501 6.96 19.3501 6.76 19.2501 6.45C18.8901 5.37 18.2501 4.37 17.4001 3.54C17.1101 3.25 17.1001 2.77 17.3901 2.48C17.6801 2.19 18.1501 2.18 18.4501 2.47ZM4.75998 6.44C5.11998 5.37 5.74998 4.37 6.59998 3.55C6.89998 3.26 6.89998 2.79 6.60998 2.49C6.31998 2.19 5.84998 2.19 5.54998 2.48C4.52998 3.47 3.76998 4.68 3.32998 5.98C3.19998 6.37 3.40998 6.8 3.79998 6.93C3.87998 6.96 3.95998 6.97 4.03998 6.97C4.34998 6.97 4.64998 6.77 4.74998 6.46L4.75998 6.44ZM12 2.69C15.81 2.69 18.37 5.78 18.37 8.66H18.38C18.38 10.0952 18.7277 10.7059 19.0963 11.3535L19.1 11.36L19.1055 11.3695C19.4842 12.0271 19.91 12.7668 19.91 14.17C19.61 17.8 16 18.1 12.01 18.1C8.02003 18.1 4.41003 17.8 4.11003 14.23C4.10008 12.7667 4.52613 12.0268 4.90484 11.369L4.91003 11.36L4.91376 11.3535C5.28238 10.7059 5.63003 10.0952 5.63003 8.66C5.63003 5.78 8.19003 2.69 12 2.69ZM5.60003 14.17C5.73003 15.76 6.76003 16.6 12 16.6L11.99 16.61C17.23 16.61 18.26 15.77 18.4 14.11C18.4 13.1684 18.1348 12.7082 17.799 12.1256L17.79 12.11L17.779 12.0905C17.3517 11.3354 16.87 10.4842 16.87 8.66C16.87 6.54 14.87 4.19 12 4.19C9.13003 4.19 7.13003 6.55 7.13003 8.66C7.13003 10.5054 6.64248 11.3557 6.21326 12.1044L6.21003 12.11L6.20156 12.1247C5.86556 12.7077 5.60003 13.1684 5.60003 14.17ZM10.57 19.53C11.31 20.45 12.77 20.44 13.5 19.53C13.76 19.2 14.23 19.15 14.55 19.41C14.88 19.67 14.93 20.14 14.67 20.46C14.02 21.27 13.05 21.74 12.03 21.74C11.01 21.74 10.05 21.27 9.40001 20.46C9.14001 20.14 9.20001 19.67 9.52001 19.41C9.84001 19.15 10.31 19.21 10.57 19.53Z" fill="black"/>
</svg>
