<svg width="24" height="24" viewBox="0 0 24 24" fill="none" xmlns="http://www.w3.org/2000/svg">
<path d="M19.4901 14.94L19.0701 14.04C18.8201 13.5 18.6901 12.92 18.6901 12.32V11.13C18.6901 8.27 16.8801 5.84 14.3601 4.88V4.6C14.3601 3.3 13.3001 2.25 12.0001 2.25C10.7001 2.25 9.65006 3.31 9.65006 4.6V4.88C7.13006 5.84 5.32006 8.27 5.32006 11.13V12.32C5.32006 12.91 5.19006 13.5 4.94006 14.04L4.52006 14.93C4.11006 15.81 4.17006 16.82 4.69006 17.64C5.21006 18.46 6.10006 18.94 7.06006 18.94H8.54006C8.89006 20.54 10.3101 21.74 12.0101 21.74C13.7101 21.74 15.1301 20.54 15.4801 18.94H16.9601C17.9301 18.94 18.8201 18.45 19.3401 17.63C19.8601 16.81 19.9201 15.8 19.5101 14.93L19.4901 14.94ZM12.0001 3.75C12.4401 3.75 12.7901 4.08 12.8401 4.51C12.5701 4.48 12.2901 4.45 12.0001 4.45C11.7101 4.45 11.4401 4.47 11.1601 4.51C11.2101 4.09 11.5601 3.75 12.0001 3.75ZM12.0001 20.25C11.1301 20.25 10.4001 19.71 10.1001 18.95H13.9101C13.6101 19.71 12.8701 20.25 12.0101 20.25H12.0001ZM18.0501 16.84C17.8001 17.23 17.4001 17.45 16.9401 17.45H7.06006C6.60006 17.45 6.20006 17.23 5.95006 16.84C5.70006 16.45 5.68006 15.99 5.87006 15.58L6.29006 14.68C6.63006 13.95 6.82006 13.13 6.82006 12.32V11.13C6.82006 8.27 9.15006 5.95 12.0001 5.95C14.8501 5.95 17.1801 8.28 17.1801 11.13V12.32C17.1801 13.14 17.3601 13.94 17.7101 14.68L18.1301 15.57C18.3301 15.99 18.3001 16.45 18.0501 16.83V16.84Z" fill="black"/>
</svg>
