<svg width="24" height="24" viewBox="0 0 24 24" fill="none" xmlns="http://www.w3.org/2000/svg">
<path d="M20.2201 13.81L19.7501 12.82C19.4601 12.21 19.3201 11.56 19.3201 10.88V9.55999C19.3201 5.52999 16.0401 2.23999 12.0001 2.23999C7.96015 2.23999 4.68015 5.51999 4.68015 9.55999V10.88C4.68015 11.54 4.53015 12.21 4.25015 12.82L3.78015 13.81C3.34015 14.75 3.40015 15.85 3.96015 16.73C4.52015 17.61 5.48015 18.14 6.52015 18.14H8.17015C8.29015 20.15 9.95015 21.76 11.9901 21.76C14.0301 21.76 15.6901 20.16 15.8201 18.14H17.4701C18.5101 18.14 19.4701 17.61 20.0301 16.73C20.5901 15.85 20.6601 14.76 20.2101 13.81H20.2201ZM12.0001 20.25C10.7901 20.25 9.79015 19.32 9.68015 18.13H14.3301C14.2101 19.31 13.2201 20.25 12.0001 20.25ZM18.7701 15.92C18.4801 16.37 18.0101 16.63 17.4801 16.63H6.53015C5.99015 16.63 5.52015 16.37 5.24015 15.92C4.95015 15.47 4.92015 14.93 5.15015 14.45L5.62015 13.46C6.00015 12.66 6.20015 11.77 6.20015 10.89V9.56999C6.20015 6.35999 8.81015 3.74999 12.0201 3.74999C15.2301 3.74999 17.8401 6.35999 17.8401 9.56999V10.89C17.8401 11.78 18.0401 12.67 18.4201 13.46L18.8901 14.45C19.1201 14.93 19.0801 15.47 18.8001 15.92H18.7701Z" fill="black"/>
</svg>
