<svg width="24" height="24" viewBox="0 0 24 24" fill="none" xmlns="http://www.w3.org/2000/svg">
<path fill-rule="evenodd" clip-rule="evenodd" d="M19.7501 12.82L20.2201 13.81H20.2101C20.6601 14.76 20.5901 15.85 20.0301 16.73C19.4701 17.61 18.5101 18.14 17.4701 18.14H15.8201C15.6901 20.16 14.0301 21.76 11.9901 21.76C9.95015 21.76 8.29015 20.15 8.17015 18.14H6.52015C5.48015 18.14 4.52015 17.61 3.96015 16.73C3.40015 15.85 3.34015 14.75 3.78015 13.81L4.25015 12.82C4.53015 12.21 4.68015 11.54 4.68015 10.88V9.55999C4.68015 5.51999 7.96015 2.23999 12.0001 2.23999C16.0401 2.23999 19.3201 5.52999 19.3201 9.55999V10.88C19.3201 11.55 19.4701 12.22 19.7501 12.82ZM9.68015 18.13C9.79015 19.32 10.7901 20.25 12.0001 20.25C13.2201 20.25 14.2101 19.31 14.3301 18.13H9.68015ZM17.4801 16.63C18.0101 16.63 18.4801 16.37 18.7701 15.92H18.8001C19.0801 15.47 19.1201 14.93 18.8901 14.45L18.4201 13.46C18.0401 12.66 17.8401 11.77 17.8401 10.89V9.56999C17.8401 6.35999 15.2301 3.74999 12.0201 3.74999C8.81015 3.74999 6.20015 6.35999 6.20015 9.56999V10.89C6.20015 11.77 6.00015 12.66 5.62015 13.46L5.15015 14.45C4.92015 14.93 4.95015 15.47 5.24015 15.92C5.52015 16.37 5.99015 16.63 6.53015 16.63H17.4801ZM11.2201 11.09L13.6101 8.70001C13.9001 8.41001 14.3801 8.41001 14.6701 8.70001C14.9601 8.99001 14.9601 9.47001 14.6701 9.76001L11.7501 12.68C11.6101 12.82 11.4201 12.9 11.2201 12.9C11.0201 12.9 10.8301 12.82 10.6901 12.68L9.27011 11.26C8.98011 10.97 8.98011 10.49 9.27011 10.2C9.56011 9.91001 10.0401 9.91001 10.3301 10.2L11.2201 11.09Z" fill="black"/>
</svg>
