<svg width="24" height="24" viewBox="0 0 24 24" fill="none" xmlns="http://www.w3.org/2000/svg">
<path fill-rule="evenodd" clip-rule="evenodd" d="M4.06986 6.53001C4.34986 6.53001 4.62986 6.37001 4.74986 6.09001C5.18986 5.13001 5.87986 4.27001 6.74986 3.59001C7.07986 3.34001 7.12986 2.86001 6.87986 2.54001C6.61986 2.21001 6.14986 2.15001 5.82986 2.41001C4.77986 3.23001 3.92986 4.29001 3.38986 5.46001C3.21986 5.84001 3.38986 6.28001 3.75986 6.45001C3.85986 6.50001 3.96986 6.52001 4.06986 6.52001V6.53001ZM19.5599 13.03C19.2899 12.45 19.1399 11.8 19.1399 11.15V9.87C19.1399 5.93 15.9299 2.73 11.9999 2.73C8.06992 2.73 4.85992 5.93 4.85992 9.87V11.15C4.85992 11.8 4.70992 12.44 4.43992 13.03L3.98992 13.99C3.54992 14.92 3.61992 15.99 4.16992 16.85C4.71992 17.71 5.65992 18.23 6.67992 18.23H8.25992C8.38992 20.19 10.0099 21.75 11.9999 21.75C13.9899 21.75 15.6099 20.19 15.7399 18.23H17.3299C18.3499 18.23 19.2899 17.71 19.8399 16.85C20.3899 15.99 20.4599 14.92 20.0199 13.99L19.5699 13.03H19.5599ZM11.9899 20.25C10.8199 20.25 9.86992 19.36 9.74992 18.23H14.2299C14.0999 19.36 13.1499 20.25 11.9899 20.25ZM18.5599 16.05C18.2799 16.48 17.8299 16.73 17.3199 16.73H6.66992C6.15992 16.73 5.69992 16.48 5.42992 16.05C5.14992 15.62 5.11992 15.1 5.33992 14.63L5.78992 13.67C6.15992 12.89 6.34992 12.02 6.34992 11.16V9.88C6.34992 6.77 8.87992 4.24 11.9899 4.24C15.0999 4.24 17.6299 6.77 17.6299 9.88V11.16C17.6299 12.02 17.8299 12.89 18.1899 13.68L18.6399 14.64C18.8599 15.11 18.8299 15.62 18.5499 16.06L18.5599 16.05ZM18.1699 2.41001C19.2299 3.23001 20.0699 4.29001 20.6099 5.46001V5.47001C20.7799 5.84001 20.6199 6.29001 20.2399 6.46001C20.1399 6.51001 20.0399 6.53001 19.9299 6.53001C19.6499 6.53001 19.3799 6.36001 19.2499 6.09001C18.8099 5.13001 18.1199 4.27001 17.2499 3.59001C16.9199 3.34001 16.8699 2.87001 17.1199 2.54001C17.3699 2.21001 17.8399 2.15001 18.1699 2.41001Z" fill="black"/>
</svg>
