<svg width="24" height="24" viewBox="0 0 24 24" fill="none" xmlns="http://www.w3.org/2000/svg">
<path fill-rule="evenodd" clip-rule="evenodd" d="M5.45001 15.71C5.53001 15.3 5.93001 15.04 6.33001 15.12H6.34001C6.75001 15.2 7.01001 15.59 6.93001 16L6.41001 18.62C6.37001 18.82 6.26001 18.99 6.09001 19.1C5.96001 19.19 5.82001 19.23 5.67001 19.23C5.62001 19.23 5.52001 19.22 5.52001 19.22L2.89001 18.69C2.48001 18.61 2.22001 18.22 2.30001 17.81C2.38001 17.4 2.78001 17.14 3.18001 17.22L3.93001 17.37C1.46001 13.73 1.75001 8.69001 4.85001 5.37001C7.01001 3.05001 10.17 1.95001 13.31 2.41001C13.72 2.47001 14 2.85001 13.94 3.26001C13.88 3.67001 13.5 3.95001 13.09 3.89001C10.44 3.50001 7.77001 4.44001 5.94001 6.39001C3.28001 9.23001 3.08001 13.57 5.26001 16.65L5.45001 15.71ZM21.17 5.59L18.55 4.99C18.15 4.9 17.74 5.15 17.65 5.55L17.05 8.15C16.96 8.55 17.21 8.96 17.61 9.05L17.6324 9.05379C17.6828 9.06238 17.7276 9.07 17.78 9.07C18.12 9.07 18.43 8.84 18.51 8.49L18.73 7.55C20.82 10.7 20.48 15.02 17.74 17.79C15.86 19.69 13.16 20.54 10.52 20.07C10.11 20 9.71995 20.27 9.64995 20.68C9.57995 21.09 9.84995 21.48 10.26 21.55C10.83 21.65 11.4 21.7 11.97 21.7C14.52 21.7 16.99 20.69 18.81 18.85C22.01 15.62 22.45 10.6 20.1 6.88L20.84 7.05C21.24 7.14 21.65 6.89 21.74 6.49C21.83 6.09 21.58 5.68 21.18 5.59H21.17ZM10.79 15.34C11.11 15.66 11.54 15.84 12 15.84C12.46 15.84 12.89 15.66 13.21 15.34L15.35 13.21C15.67 12.89 15.85 12.46 15.85 12C15.85 11.54 15.67 11.11 15.35 10.79L13.22 8.66C12.9 8.34 12.47 8.16 12.01 8.16C11.55 8.16 11.12 8.34 10.8 8.66L8.66998 10.79C7.99998 11.46 7.99998 12.54 8.66998 13.21L10.8 15.34H10.79ZM9.71998 11.85L11.85 9.72C11.9 9.67 11.96 9.66 12 9.66C12 9.64 12.1 9.67 12.15 9.72L14.29 11.86C14.34 11.91 14.35 11.97 14.35 12.01C14.35 12.05 14.34 12.11 14.29 12.16L12.15 14.3C12.05 14.4 11.95 14.4 11.85 14.3L9.71998 12.17C9.63998 12.09 9.63998 11.95 9.71998 11.87V11.85Z" fill="black"/>
</svg>
