<svg width="24" height="24" viewBox="0 0 24 24" fill="none" xmlns="http://www.w3.org/2000/svg">
<path fill-rule="evenodd" clip-rule="evenodd" d="M10.2701 9.14001C9.99012 9.42001 9.53012 9.42001 9.25012 9.14001V9.13001L7.76012 7.64001V16.87L9.25012 15.38C9.53012 15.1 9.99012 15.1 10.2701 15.38C10.5501 15.66 10.5501 16.12 10.2701 16.4L7.55012 19.12L7.54012 19.13C7.48012 19.19 7.41012 19.24 7.33012 19.27C7.24012 19.31 7.15012 19.33 7.05012 19.33C6.95012 19.33 6.86012 19.31 6.77012 19.27C6.70012 19.24 6.62012 19.19 6.56012 19.13L6.55012 19.12L3.83012 16.4C3.55012 16.12 3.55012 15.66 3.83012 15.38C4.11012 15.1 4.57012 15.1 4.85012 15.38L6.34012 16.87V7.65001L4.85012 9.14001C4.57012 9.42001 4.11012 9.42001 3.83012 9.14001C3.55012 8.86001 3.55012 8.40001 3.83012 8.12001L6.55012 5.40001L6.56012 5.39001C6.62012 5.33001 6.69012 5.28001 6.77012 5.25001C6.94012 5.18001 7.16012 5.18001 7.33012 5.25001C7.40012 5.28001 7.48012 5.33001 7.54012 5.39001L7.55012 5.40001L10.2701 8.12001C10.5501 8.40001 10.5501 8.86001 10.2701 9.14001ZM19.68 7.40002H13.46C13.06 7.40002 12.74 7.08002 12.74 6.68002C12.74 6.28002 13.06 5.96002 13.46 5.96002H19.68C20.08 5.96002 20.4 6.28002 20.4 6.68002C20.4 7.08002 20.08 7.40002 19.68 7.40002ZM19.68 17.11H13.46C13.06 17.11 12.74 17.43 12.74 17.83C12.74 18.23 13.06 18.55 13.46 18.55H19.68C20.08 18.55 20.4 18.23 20.4 17.83C20.4 17.43 20.08 17.11 19.68 17.11ZM13.46 11.63H19.68C20.08 11.63 20.4 11.95 20.4 12.35C20.4 12.75 20.08 13.07 19.68 13.07H13.46C13.06 13.07 12.74 12.75 12.74 12.35C12.74 11.95 13.06 11.63 13.46 11.63Z" fill="black"/>
</svg>
