<svg width="24" height="24" viewBox="0 0 24 24" fill="none" xmlns="http://www.w3.org/2000/svg">
<path d="M14.63 9.14001C14.91 9.42001 15.37 9.42001 15.65 9.14001C15.93 8.86001 15.93 8.40001 15.65 8.12001L12.93 5.40001C12.93 5.40001 12.93 5.40001 12.92 5.39001C12.86 5.33001 12.78 5.28001 12.71 5.25001C12.54 5.18001 12.32 5.18001 12.15 5.25001C12.07 5.28001 12 5.33001 11.94 5.39001C11.94 5.39001 11.94 5.39001 11.93 5.40001L9.21 8.12001C8.93 8.40001 8.93 8.86001 9.21 9.14001C9.49 9.42001 9.95 9.42001 10.23 9.14001L11.72 7.65001V16.87L10.23 15.38C9.95 15.1 9.49 15.1 9.21 15.38C8.93 15.66 8.93 16.12 9.21 16.4L11.93 19.12C11.93 19.12 11.93 19.12 11.94 19.13C12 19.19 12.08 19.24 12.15 19.27C12.24 19.31 12.33 19.33 12.43 19.33C12.53 19.33 12.62 19.31 12.71 19.27C12.79 19.24 12.86 19.19 12.92 19.13C12.92 19.13 12.92 19.13 12.93 19.12L15.65 16.4C15.93 16.12 15.93 15.66 15.65 15.38C15.37 15.1 14.91 15.1 14.63 15.38L13.14 16.87V7.64001L14.63 9.13001V9.14001Z" fill="black"/>
</svg>
