<svg width="24" height="24" viewBox="0 0 24 24" fill="none" xmlns="http://www.w3.org/2000/svg">
<path d="M22.07 21.47L18.93 18.34C20.52 16.61 21.5 14.3 21.5 11.77C21.5 6.4 17.13 2.03 11.76 2.03C6.39003 2.03 2.03003 6.4 2.03003 11.77C2.03003 17.14 6.40003 21.51 11.77 21.51C14.07 21.51 16.18 20.71 17.84 19.37L21.01 22.53C21.16 22.68 21.35 22.75 21.54 22.75C21.73 22.75 21.92 22.68 22.07 22.53C22.36 22.24 22.36 21.76 22.07 21.47ZM3.53003 11.77C3.53003 7.22 7.22003 3.53 11.77 3.53C16.32 3.53 20.01 7.23 20.01 11.77C20.01 16.31 16.31 20.01 11.77 20.01C7.23003 20.01 3.53003 16.31 3.53003 11.77Z" fill="black"/>
</svg>
