<svg width="24" height="24" viewBox="0 0 24 24" fill="none" xmlns="http://www.w3.org/2000/svg">
<path d="M21.16 2.85C20.64 2.33 19.87 2.13 19.16 2.34L3.71004 6.86C2.94004 7.09 2.39004 7.72 2.27004 8.53C2.16004 9.33 2.52004 10.1 3.20004 10.53L9.55004 14.5L13.43 20.79C13.81 21.4 14.44 21.75 15.14 21.75C15.23 21.75 15.32 21.75 15.42 21.73C16.22 21.62 16.86 21.07 17.09 20.3L21.66 4.86C21.87 4.15 21.68 3.38 21.15 2.85H21.16ZM20.23 4.43L15.66 19.87C15.57 20.16 15.33 20.23 15.23 20.24C15.13 20.26 14.88 20.26 14.72 20L11.06 14.07L16.37 8.7C16.66 8.41 16.66 7.93 16.37 7.64C16.08 7.35 15.6 7.35 15.31 7.64L10.01 13L4.01004 9.25C3.75004 9.09 3.75004 8.83 3.77004 8.73C3.78004 8.63 3.85004 8.38 4.14004 8.3L19.6 3.77C19.86 3.69 20.05 3.84 20.11 3.9C20.18 3.97 20.32 4.15 20.24 4.42L20.23 4.43Z" fill="black"/>
</svg>
