<svg width="24" height="24" viewBox="0 0 24 24" fill="none" xmlns="http://www.w3.org/2000/svg">
<path fill-rule="evenodd" clip-rule="evenodd" d="M19.98 12.88C20.53 13.2 20.93 13.73 21.09 14.35H21.1C21.27 14.98 21.18 15.63 20.85 16.19L20.25 17.19C19.59 18.34 18.09 18.74 16.93 18.07C16.79 17.99 16.62 17.94 16.45 17.94C15.91 17.94 15.47 18.39 15.47 18.93C15.46 20.27 14.37 21.36 13.03 21.36H11.91C10.56 21.36 9.47 20.26 9.47 18.92C9.47 18.77 9.42 18.61 9.34 18.47C9.2 18.22 8.98 18.06 8.73 17.99C8.47 17.92 8.21 17.96 7.98 18.09C6.78 18.75 5.29 18.33 4.64 17.15L4.08 16.19C3.41 15.02 3.81 13.54 4.97 12.87C5.28 12.7 5.47 12.37 5.47 12.01C5.47 11.65 5.28 11.32 4.97 11.14C3.81 10.46 3.41 8.97001 4.08 7.81001L4.69 6.81001C5.35 5.66001 6.85 5.26001 8.01 5.93001C8.16 6.01001 8.32 6.06001 8.48 6.06001C9.01 6.06001 9.47 5.61001 9.47 5.07001C9.47 3.73001 10.56 2.64001 11.9 2.64001H13.03C14.45 2.69001 15.51 3.82001 15.47 5.16001C15.47 5.29001 15.52 5.45001 15.6 5.59001C15.74 5.82001 15.95 5.98001 16.21 6.05001C16.47 6.11001 16.73 6.07001 16.96 5.94001C18.13 5.27001 19.62 5.67001 20.29 6.83001L20.85 7.80001C20.87 7.83001 20.88 7.85001 20.89 7.88001C21.5 9.03001 21.09 10.47 19.96 11.13C19.8 11.22 19.67 11.34 19.59 11.49C19.45 11.74 19.42 12.01 19.49 12.26C19.56 12.52 19.72 12.73 19.95 12.86C19.96 12.87 19.97 12.88 19.98 12.88ZM19 16.46L19.6 15.46L19.59 15.42C19.72 15.2 19.76 14.94 19.69 14.68C19.62 14.43 19.46 14.21 19.23 14.08C19.22 14.075 19.2125 14.07 19.205 14.065C19.1975 14.06 19.19 14.055 19.18 14.05C18.62 13.71 18.24 13.21 18.08 12.61C17.91 11.99 17.99 11.33 18.31 10.77C18.54 10.38 18.85 10.07 19.22 9.86001C19.69 9.59001 19.85 8.98001 19.58 8.51001L19.55 8.45001L19.02 7.54001C18.75 7.07001 18.14 6.91001 17.66 7.18001C17.11 7.51001 16.46 7.60001 15.83 7.44001C15.21 7.28001 14.68 6.89001 14.34 6.34001V6.32001C14.13 5.96001 14.01 5.56001 14.01 5.14001C14.03 4.56001 13.59 4.10001 13.04 4.08001H11.88C11.33 4.08001 10.89 4.53001 10.89 5.07001C10.87 6.42001 9.78 7.50001 8.45 7.50001C8.03 7.50001 7.62 7.38001 7.26 7.17001C6.8 6.90001 6.18 7.06001 5.91 7.54001L5.3 8.54001C5.03 9.00001 5.19 9.61001 5.67 9.89001C6.42 10.32 6.89 11.13 6.89 12C6.89 12.87 6.42 13.68 5.67 14.11C5.19 14.38 5.03 14.99 5.3 15.46L5.87 16.44C6.15 16.94 6.76 17.12 7.24 16.85C7.61 16.63 8.03 16.52 8.45 16.52C8.65 16.52 8.86 16.55 9.07 16.6C9.7 16.76 10.22 17.16 10.55 17.72C10.77 18.08 10.89 18.49 10.89 18.91C10.89 19.47 11.34 19.92 11.89 19.92H13.01C13.56 19.92 14.01 19.48 14.01 18.93C14.01 18.29 14.25 17.68 14.71 17.22C15.16 16.76 15.77 16.5 16.42 16.5C16.88 16.51 17.28 16.62 17.63 16.82C18.11 17.1 18.72 16.94 19 16.46ZM9.37012 12C9.37012 10.3 10.7601 8.90997 12.4601 8.90997C14.1701 8.90997 15.5501 10.3 15.5501 12C15.5501 13.7 14.1601 15.09 12.4601 15.09C10.7601 15.09 9.37012 13.7 9.37012 12ZM10.8101 12C10.8101 12.91 11.5501 13.65 12.4601 13.65C13.3701 13.65 14.1101 12.91 14.1101 12C14.1101 11.09 13.3701 10.35 12.4601 10.35C11.5501 10.35 10.8101 11.09 10.8101 12Z" fill="black"/>
</svg>
