<svg width="24" height="24" viewBox="0 0 24 24" fill="none" xmlns="http://www.w3.org/2000/svg">
<path fill-rule="evenodd" clip-rule="evenodd" d="M11.01 19.51H7.59C5.26 19.51 3.75 17.91 3.75 15.44V7.82C3.75 5.35 5.26 3.75 7.59 3.75H15.68C18.01 3.75 19.52 5.35 19.52 7.82V10.78C19.52 11.19 19.86 11.53 20.27 11.53C20.68 11.53 21.02 11.19 21.02 10.78V7.82C21.02 4.49 18.88 2.25 15.68 2.25H7.59C4.4 2.25 2.25 4.49 2.25 7.82V15.44C2.25 18.77 4.39 21.01 7.59 21.01H11.01C11.42 21.01 11.76 20.67 11.76 20.26C11.76 19.85 11.42 19.51 11.01 19.51ZM15.07 7.83002C14.66 7.83002 14.32 8.17002 14.32 8.58002C14.32 10.06 13.12 11.26 11.64 11.26C10.16 11.26 8.95996 10.06 8.95996 8.58002C8.95996 8.17002 8.61996 7.83002 8.20996 7.83002C7.79996 7.83002 7.45996 8.17002 7.45996 8.58002C7.45996 10.89 9.33996 12.76 11.64 12.76C13.94 12.76 15.82 10.88 15.82 8.58002C15.82 8.17002 15.48 7.83002 15.07 7.83002ZM20.84 15.75C21.11 15.79 21.36 15.93 21.53 16.15L21.5499 16.14C21.88 16.57 21.83 17.17 21.43 17.54L20.17 18.76L20.47 20.5C20.5599 21.09 20.16 21.62 19.6 21.71C19.37 21.75 19.15 21.71 18.95 21.61L17.36 20.78L15.78 21.61C15.62 21.69 15.45 21.73 15.29 21.73C14.91 21.73 14.55 21.54 14.36 21.19C14.24 20.95 14.2 20.73 14.24 20.51L14.55 18.76L13.27 17.53C13.06 17.32 12.95 17.06 12.95 16.78C12.95 16.5 13.06 16.24 13.26 16.04C13.44 15.88 13.63 15.79 13.83 15.75L15.62 15.49L16.41 13.91C16.53 13.66 16.75 13.47 17.02 13.38C17.29 13.3 17.57 13.32 17.82 13.44C18.03 13.55 18.19 13.7 18.29 13.9V13.92L19.08 15.5L20.84 15.75ZM18.63 18.8C18.5599 18.47 18.68 18.11 18.94 17.86V17.85L19.72 17.1L18.63 16.94C18.29 16.88 17.99 16.67 17.84 16.36L17.35 15.37L16.86 16.36C16.7 16.67 16.41 16.89 16.07 16.94L14.97 17.1L15.76 17.86C16.01 18.11 16.12 18.46 16.06 18.8L15.87 19.88L16.86 19.36C17.16 19.19 17.54 19.19 17.85 19.36L18.82 19.87L18.63 18.8Z" fill="black"/>
</svg>
