<svg width="24" height="24" viewBox="0 0 24 24" fill="none" xmlns="http://www.w3.org/2000/svg">
<path fill-rule="evenodd" clip-rule="evenodd" d="M20.3899 9.97L21.1299 15.69C21.3999 17.55 21.0599 19.04 20.1299 20.11C19.1999 21.18 17.7399 21.74 15.8999 21.74H8.07991C6.05991 21.74 4.64991 21.24 3.76991 20.22C2.88991 19.2 2.58991 17.67 2.88991 15.67L3.61991 10.03C4.09991 7.42 5.85991 6.5 7.22991 6.5C7.34991 5.41 7.80991 4.41 8.58991 3.64C9.49991 2.74 10.6999 2.25 11.9699 2.25H11.9899C14.4499 2.25 16.4599 4.12 16.7299 6.5H16.7799C18.1499 6.5 19.8299 7.41 20.3899 9.97ZM11.9799 3.75H11.9699H11.9599C11.0799 3.75 10.2599 4.09 9.63991 4.71C9.13991 5.2 8.82991 5.82 8.71991 6.5H15.2199C14.9599 4.94 13.6099 3.75 11.9799 3.75ZM15.8999 20.24C16.8699 20.24 18.1899 20.05 18.9899 19.13L18.9799 19.12C19.6199 18.39 19.8299 17.3 19.6299 15.88L18.8999 10.21C18.5899 8.84 17.7899 7.98 16.7599 7.98H7.22991C6.82991 7.98 5.47991 8.15 5.08991 10.25L4.36991 15.87C4.13991 17.43 4.31991 18.56 4.89991 19.24C5.47991 19.91 6.51991 20.24 8.07991 20.24H15.8999ZM13.2701 11.8C13.5601 11.51 14.0401 11.51 14.3301 11.8C14.6201 12.09 14.6201 12.57 14.3301 12.86L13.0401 14.15L14.3301 15.44C14.6201 15.73 14.6201 16.21 14.3301 16.5C14.1801 16.65 13.9901 16.72 13.8001 16.72C13.6101 16.72 13.4201 16.65 13.2701 16.5L11.9801 15.21L10.6901 16.5C10.5401 16.65 10.3501 16.72 10.1601 16.72C9.9701 16.72 9.7801 16.65 9.6301 16.5C9.3401 16.21 9.3401 15.73 9.6301 15.44L10.9201 14.15L9.6301 12.86C9.3401 12.57 9.3401 12.09 9.6301 11.8C9.9201 11.51 10.4001 11.51 10.6901 11.8L11.9801 13.09L13.2701 11.8Z" fill="black"/>
</svg>
