<svg width="24" height="24" viewBox="0 0 24 24" fill="none" xmlns="http://www.w3.org/2000/svg">
<path fill-rule="evenodd" clip-rule="evenodd" d="M7.53 19.29H10.91C11.32 19.29 11.66 19.63 11.66 20.04C11.66 20.45 11.32 20.79 10.91 20.79H7.53C4.37 20.79 2.25 18.58 2.25 15.28V7.74999C2.25 4.44999 4.37 2.23999 7.53 2.23999H15.52C18.68 2.23999 20.8 4.44999 20.8 7.74999V10.67C20.8 11.08 20.46 11.42 20.05 11.42C19.64 11.42 19.3 11.08 19.3 10.67V7.74999C19.3 5.30999 17.82 3.73999 15.52 3.73999H7.53C5.23 3.73999 3.75 5.30999 3.75 7.74999V15.28C3.75 17.71 5.23 19.29 7.53 19.29ZM14.1699 8.48999C14.1699 8.07999 14.5099 7.73999 14.9199 7.73999C15.3299 7.73999 15.6699 8.07999 15.6699 8.48999C15.6699 10.77 13.8099 12.63 11.5299 12.63C9.24989 12.63 7.38989 10.77 7.38989 8.48999C7.38989 8.07999 7.72989 7.73999 8.13989 7.73999C8.54989 7.73999 8.88989 8.07999 8.88989 8.48999C8.88989 9.93999 10.0799 11.13 11.5299 11.13C12.9799 11.13 14.1699 9.94999 14.1699 8.48999ZM17.3001 12.86C14.8401 12.86 12.8501 14.86 12.8501 17.31C12.8501 19.76 14.8501 21.76 17.3001 21.76C19.7501 21.76 21.7501 19.76 21.7501 17.31C21.7501 14.86 19.7501 12.86 17.3001 12.86ZM17.3001 20.27C15.6701 20.27 14.3501 18.94 14.3501 17.32C14.3501 15.7 15.6801 14.37 17.3001 14.37C18.9201 14.37 20.2501 15.7 20.2501 17.32C20.2501 18.94 18.9201 20.27 17.3001 20.27ZM18.03 17.16L18.83 17.64V17.63C19.19 17.84 19.3 18.3 19.09 18.66C18.95 18.9 18.7 19.03 18.45 19.03C18.32 19.03 18.19 18.99 18.07 18.92L16.9 18.22C16.67 18.09 16.53 17.84 16.53 17.58V16.08C16.53 15.67 16.87 15.33 17.28 15.33C17.69 15.33 18.03 15.67 18.03 16.08V17.16Z" fill="black"/>
</svg>
