<svg width="24" height="24" viewBox="0 0 24 24" fill="none" xmlns="http://www.w3.org/2000/svg">
<path fill-rule="evenodd" clip-rule="evenodd" d="M12 4C16.14 4.01 19.85 6.91 21.94 11.76C22.02 11.95 22.02 12.16 21.94 12.35C19.85 17.21 16.14 20.11 12 20.11C7.86 20.1 4.15 17.2 2.06 12.35C1.98 12.16 1.98 11.95 2.06 11.76C4.15 6.9 7.86 4 12 4ZM3.57 12.06C5.43 16.17 8.56 18.61 12 18.61C15.44 18.61 18.57 16.17 20.43 12.06C18.57 7.95 15.44 5.51 12 5.51C8.56 5.51 5.43 7.95 3.57 12.06ZM8.08997 12.05C8.08997 9.89001 9.83997 8.14001 12 8.14001C14.16 8.14001 15.91 9.89001 15.91 12.05C15.91 14.21 14.16 15.96 12 15.96C9.83997 15.96 8.08997 14.21 8.08997 12.05ZM9.58997 12.05C9.58997 13.38 10.67 14.46 12 14.46C13.33 14.46 14.41 13.38 14.41 12.05C14.41 10.72 13.33 9.64001 12 9.64001C10.67 9.64001 9.58997 10.72 9.58997 12.05Z" fill="black"/>
</svg>
