<svg width="24" height="24" viewBox="0 0 24 24" fill="none" xmlns="http://www.w3.org/2000/svg">
<path fill-rule="evenodd" clip-rule="evenodd" d="M14.37 7.84997C14.37 10.13 12.52 11.98 10.24 11.98C7.95998 11.98 6.10999 10.13 6.10999 7.84997C6.10999 5.56997 7.95998 3.71997 10.24 3.71997C12.52 3.71997 14.37 5.56997 14.37 7.84997ZM12.93 7.84997C12.93 6.36997 11.72 5.15997 10.24 5.15997C8.75998 5.15997 7.54999 6.36997 7.54999 7.84997C7.54999 9.32997 8.75998 10.54 10.24 10.54C11.72 10.54 12.93 9.32997 12.93 7.84997ZM21.46 9.84002C21.46 9.84002 21.46 9.82002 21.45 9.82002C21.42 9.76002 21.38 9.71002 21.33 9.66002L19.52 7.86002C19.24 7.58002 18.78 7.58002 18.5 7.86002C18.22 8.14002 18.22 8.60002 18.5 8.88002L19.07 9.45002H16.33C15.93 9.45002 15.61 9.77002 15.61 10.17C15.61 10.57 15.93 10.89 16.33 10.89H19.07L18.5 11.46C18.22 11.74 18.22 12.2 18.5 12.48C18.64 12.62 18.83 12.69 19.01 12.69C19.19 12.69 19.38 12.62 19.52 12.48L21.33 10.68L21.35 10.66C21.4 10.6 21.44 10.54 21.47 10.48C21.51 10.39 21.53 10.3 21.53 10.2C21.53 10.1 21.51 10.01 21.48 9.93002L21.46 9.84002ZM10.23 13.37L10.2233 13.37L10.2208 13.37L10.22 13.37H10.23ZM10.2233 13.37C12.0867 13.3901 17.71 13.4524 17.69 17.47C17.61 19.16 16.42 20.28 14.75 20.28H5.71002C4.03002 20.28 2.85002 19.17 2.77002 17.5C2.77002 13.4249 8.37647 13.3801 10.2233 13.37ZM14.74 18.84H5.71002C4.80002 18.84 4.25002 18.33 4.20002 17.46C4.20002 16.81 4.20002 14.85 10.22 14.81C16.2501 14.8699 16.25 16.8136 16.25 17.417V17.42C16.2 18.32 15.65 18.84 14.74 18.84Z" fill="black"/>
</svg>
