<svg width="24" height="24" viewBox="0 0 24 24" fill="none" xmlns="http://www.w3.org/2000/svg">
<path fill-rule="evenodd" clip-rule="evenodd" d="M2.25 12C2.25 6.62 6.62 2.25 12 2.25C17.38 2.25 21.75 6.62 21.75 12C21.75 17.38 17.38 21.75 12 21.75C6.62 21.75 2.25 17.38 2.25 12ZM3.75 12C3.75 16.55 7.45 20.25 12 20.25C16.55 20.25 20.25 16.55 20.25 12C20.25 7.45 16.55 3.75 12 3.75C7.45 3.75 3.75 7.45 3.75 12ZM8.72 8.05C9.26 8.05 9.7 8.49 9.7 9.03H9.71C9.71 9.57 9.27 10.01 8.73 10.01C8.19 10.01 7.75 9.57 7.75 9.03C7.75 8.77 7.85 8.53 8.03 8.34C8.21 8.15 8.46 8.05 8.72 8.05ZM15.22 8.05C14.96 8.05 14.71 8.15 14.53 8.34C14.35 8.53 14.25 8.77 14.25 9.03C14.25 9.57 14.69 10.01 15.22 10.01C15.75 10.01 16.2 9.57 16.2 9.03C16.2 8.49 15.76 8.05 15.22 8.05ZM8.53004 14.86C9.39004 13.74 10.66 13.09 12 13.09L12.02 13.1C13.36 13.1 14.62 13.74 15.49 14.87C15.74 15.2 15.68 15.67 15.35 15.92C15.02 16.17 14.55 16.11 14.3 15.78C13.72 15.02 12.89 14.59 12.01 14.59C11.13 14.59 10.3 15.03 9.72004 15.78C9.58004 15.97 9.35004 16.07 9.13004 16.07C8.97004 16.07 8.81004 16.01 8.67004 15.91C8.34004 15.66 8.28004 15.19 8.53004 14.86Z" fill="black"/>
</svg>
