<svg width="24" height="24" viewBox="0 0 24 24" fill="none" xmlns="http://www.w3.org/2000/svg">
<path fill-rule="evenodd" clip-rule="evenodd" d="M14.7501 2.25C17.1601 2.25 19.1201 4.21 19.1201 6.62H19.1101V17.38C19.1101 19.79 17.1501 21.75 14.7401 21.75H9.23011C6.82011 21.75 4.86011 19.79 4.86011 17.38V6.62C4.86011 4.21 6.82011 2.25 9.23011 2.25H14.7501ZM9.24011 20.25H14.7501H14.7601C16.3401 20.25 17.6301 18.96 17.6301 17.38V6.62C17.6301 5.04 16.3401 3.75 14.7601 3.75H9.24011C7.66011 3.75 6.37011 5.04 6.37011 6.62V17.38C6.37011 18.96 7.66011 20.25 9.24011 20.25ZM11 17.28C11 16.73 11.45 16.28 12 16.28C12.55 16.28 13 16.73 13 17.28C13 17.83 12.55 18.28 12 18.28C11.45 18.28 11 17.83 11 17.28Z" fill="black"/>
</svg>
