<svg width="24" height="24" viewBox="0 0 24 24" fill="none" xmlns="http://www.w3.org/2000/svg">
<path fill-rule="evenodd" clip-rule="evenodd" d="M2.25 12C2.25 6.62 6.62 2.25 12 2.25C17.38 2.25 21.75 6.62 21.75 12C21.75 17.38 17.38 21.75 12 21.75C6.62 21.75 2.25 17.38 2.25 12ZM3.75 12C3.75 16.55 7.45 20.25 12 20.25C16.55 20.25 20.25 16.55 20.25 12C20.25 7.45 16.55 3.75 12 3.75C7.45 3.75 3.75 7.45 3.75 12ZM12 15.02C12.88 15.02 13.71 14.59 14.29 13.83H14.27C14.52 13.5 14.99 13.44 15.32 13.69C15.65 13.94 15.71 14.41 15.46 14.74C14.6 15.86 13.33 16.51 11.99 16.51C10.65 16.51 9.39003 15.87 8.52003 14.74C8.27003 14.41 8.33003 13.94 8.66003 13.69C8.99003 13.44 9.46003 13.5 9.71003 13.83C10.3 14.59 11.12 15.02 12 15.02ZM9.7 9.03C9.7 8.49 9.26 8.05 8.72 8.05C8.46 8.05 8.21 8.15 8.03 8.34C7.85 8.53 7.75 8.77 7.75 9.03C7.75 9.57 8.19 10.01 8.73 10.01C9.27 10.01 9.71 9.57 9.71 9.03H9.7ZM14.53 8.34C14.71 8.15 14.96 8.05 15.22 8.05C15.76 8.05 16.2 8.49 16.2 9.03C16.2 9.57 15.75 10.01 15.22 10.01C14.69 10.01 14.25 9.57 14.25 9.03C14.25 8.77 14.35 8.53 14.53 8.34Z" fill="black"/>
</svg>
