<svg width="24" height="24" viewBox="0 0 24 24" fill="none" xmlns="http://www.w3.org/2000/svg">
<path d="M17.8499 2.24999C17.6999 2.24999 17.5599 2.26999 17.4099 2.29999C17.4099 2.29999 17.3999 2.29999 17.3899 2.29999C16.9699 2.38999 7.13994 4.40999 5.86994 4.72999C4.21994 5.13999 2.43994 7.10999 2.43994 9.57999C2.43994 11.9 4.00994 13.76 5.55994 14.32V18.62C5.55994 20.34 6.95994 21.75 8.68994 21.75C10.4199 21.75 11.8199 20.35 11.8199 18.62V15.7C14.5499 16.27 17.2199 16.82 17.4299 16.86C17.4799 16.87 17.5299 16.88 17.5799 16.88C17.5799 16.88 17.5799 16.88 17.5899 16.88C17.6699 16.88 17.7499 16.9 17.8299 16.9C19.9399 16.9 21.5399 13.75 21.5399 9.56999C21.5399 5.38999 19.9499 2.23999 17.8299 2.23999L17.8499 2.24999ZM3.94994 9.57999C3.94994 7.75999 5.29994 6.40999 6.23994 6.17999C7.08994 5.96999 12.1399 4.91999 15.2399 4.26999C14.5499 5.57999 14.1399 7.43999 14.1399 9.56999C14.1399 11.7 14.5599 13.56 15.2399 14.88C12.1199 14.23 7.07994 13.19 6.22994 12.97C5.28994 12.74 3.93994 11.39 3.93994 9.56999L3.94994 9.57999ZM10.3299 18.62C10.3299 19.52 9.59994 20.25 8.69994 20.25C7.79994 20.25 7.06994 19.52 7.06994 18.62V14.7C7.90994 14.88 9.06994 15.13 10.3199 15.39V18.62H10.3299ZM17.8499 15.4C16.9499 15.4 15.6399 13.13 15.6399 9.56999C15.6399 6.00999 16.9499 3.73999 17.8499 3.73999C18.7499 3.73999 20.0599 6.00999 20.0599 9.56999C20.0599 13.13 18.7499 15.4 17.8499 15.4Z" fill="black"/>
</svg>
