<svg width="24" height="24" viewBox="0 0 24 24" fill="none" xmlns="http://www.w3.org/2000/svg">
<path fill-rule="evenodd" clip-rule="evenodd" d="M10.54 3.75H14.75C15.16 3.75 15.5 3.41 15.5 3C15.5 2.59 15.16 2.25 14.75 2.25H10.54C10.13 2.25 9.79004 2.59 9.79004 3C9.79004 3.41 10.13 3.75 10.54 3.75ZM12.64 4.93001C7.99998 4.93001 4.22998 8.70001 4.22998 13.34C4.22998 13.75 4.56998 14.09 4.97998 14.09C5.38998 14.09 5.72998 13.75 5.72998 13.34C5.72998 9.53001 8.82998 6.43001 12.64 6.43001C16.45 6.43001 19.55 9.53001 19.55 13.34C19.55 17.15 16.45 20.25 12.64 20.25H8.66998C8.25998 20.25 7.91998 20.59 7.91998 21C7.91998 21.41 8.25998 21.75 8.66998 21.75H12.64C17.28 21.75 21.05 17.97 21.05 13.33C21.05 8.69001 17.28 4.92001 12.64 4.92001V4.93001ZM11.2299 18.47C11.2299 18.06 10.8899 17.72 10.4799 17.72H6.18994C5.77994 17.72 5.43994 18.06 5.43994 18.47C5.43994 18.88 5.77994 19.22 6.18994 19.22H10.4799C10.8899 19.22 11.2299 18.88 11.2299 18.47ZM7.99995 15.18C8.40995 15.18 8.74995 15.52 8.74995 15.93H8.73995C8.73995 16.34 8.39995 16.68 7.98995 16.68H3.69995C3.28995 16.68 2.94995 16.34 2.94995 15.93C2.94995 15.52 3.28995 15.18 3.69995 15.18H7.99995ZM16.1001 10.9L13.1601 13.84C13.0101 13.99 12.8201 14.06 12.6301 14.06C12.4401 14.06 12.2501 13.99 12.1001 13.84C11.8101 13.55 11.8101 13.07 12.1001 12.78L15.0401 9.84C15.3301 9.55 15.8101 9.55 16.1001 9.84C16.3901 10.13 16.3901 10.61 16.1001 10.9Z" fill="black"/>
</svg>
