<svg width="24" height="24" viewBox="0 0 24 24" fill="none" xmlns="http://www.w3.org/2000/svg">
<path fill-rule="evenodd" clip-rule="evenodd" d="M9.8999 3.75H14.1099C14.5199 3.75 14.8599 3.41 14.8599 3C14.8599 2.59 14.5199 2.25 14.1099 2.25H9.8999C9.4899 2.25 9.1499 2.59 9.1499 3C9.1499 3.41 9.4899 3.75 9.8999 3.75ZM12.0001 4.93005C7.36009 4.93005 3.59009 8.70005 3.59009 13.3401C3.59009 17.9801 7.36009 21.7501 12.0001 21.7501C16.6401 21.7501 20.4101 17.9801 20.4101 13.3401C20.4101 8.70005 16.6401 4.93005 12.0001 4.93005ZM12.0001 20.2501C8.19009 20.2501 5.09009 17.1501 5.09009 13.3401C5.09009 9.53005 8.19009 6.43005 12.0001 6.43005C15.8101 6.43005 18.9101 9.53005 18.9101 13.3401C18.9101 17.1501 15.8101 20.2501 12.0001 20.2501ZM11.4599 12.7801L14.3999 9.84006C14.6899 9.55006 15.1699 9.55006 15.4599 9.84006C15.7499 10.1301 15.7499 10.6101 15.4599 10.9001L12.5199 13.8401C12.3699 13.9901 12.1799 14.0601 11.9899 14.0601C11.7999 14.0601 11.6099 13.9901 11.4599 13.8401C11.1699 13.5501 11.1699 13.0701 11.4599 12.7801Z" fill="black"/>
</svg>
