<svg width="24" height="24" viewBox="0 0 24 24" fill="none" xmlns="http://www.w3.org/2000/svg">
<path d="M21.5799 7.44L20.6799 4.82C20.2899 3.79 19.2999 3.09 18.2099 3.09H5.78994C4.69994 3.09 3.70994 3.78 3.30994 4.84L2.41994 7.42C2.10994 8.25 2.21994 9.18 2.72994 9.91C3.04994 10.38 3.51994 10.7 4.03994 10.88V17.55C4.03994 19.41 5.54994 20.88 7.42994 20.91H16.5899C18.4399 20.91 19.9499 19.41 19.9599 17.55V10.88C20.4799 10.7 20.9399 10.37 21.2699 9.91C21.7699 9.18 21.8899 8.25 21.5899 7.44H21.5799ZM13.9999 4.59L14.6999 9.54H9.39994L10.0999 4.59H14.0099H13.9999ZM3.83994 7.92L4.72994 5.34C4.89994 4.88 5.31994 4.59 5.78994 4.59H8.57994L7.87994 9.54H4.88994C4.51994 9.54 4.17994 9.36 3.95994 9.05C3.72994 8.72 3.67994 8.32 3.82994 7.92H3.83994ZM13.7199 19.41H10.2899V16.68C10.2899 15.74 11.0599 14.97 11.9999 14.97C12.9399 14.97 13.7099 15.74 13.7099 16.68V19.41H13.7199ZM16.5899 19.41H15.2199V16.68C15.2199 14.91 13.7799 13.47 12.0099 13.47C10.2399 13.47 8.79994 14.91 8.79994 16.68V19.41H7.42994C6.39994 19.41 5.55994 18.58 5.55994 17.55V11.04H18.4799V17.55C18.4799 18.58 17.6399 19.41 16.5999 19.41H16.5899ZM20.0399 9.05C19.8199 9.36 19.4899 9.54 19.1099 9.54H16.2199L15.5199 4.59H18.2099C18.6799 4.59 19.1099 4.89 19.2699 5.32L20.1699 7.94C20.3099 8.32 20.2599 8.72 20.0299 9.05H20.0399Z" fill="black"/>
</svg>
