<svg width="24" height="24" viewBox="0 0 24 24" fill="none" xmlns="http://www.w3.org/2000/svg">
<path fill-rule="evenodd" clip-rule="evenodd" d="M20.67 3.15C21.04 3.33 21.35 3.64 21.54 4.02L21.53 4.01C21.74 4.42 21.74 4.83 21.74 5.59V13.3C21.74 14.05 21.74 14.47 21.53 14.88C21.35 15.26 21.04 15.57 20.66 15.76C20.25 15.97 19.83 15.97 19.08 15.97H18.85C17.77 15.97 17.18 15.97 16.64 15.7C16.24 15.5 15.9 15.19 15.65 14.81C14.61 15.03 13.1 16.29 12.44 19.27L12.4389 19.2747C12.3288 19.7752 12.1472 20.601 11.26 20.93C11.02 21.02 10.77 21.05 10.53 21.05C10.23 21.05 9.94999 21 9.69999 20.95C8.95999 20.79 8.35999 20.36 7.97999 19.68C7.33999 18.55 7.33999 16.84 7.98999 14.61H6.48999H6.48998C5.19999 14.61 4.48999 14.61 3.86999 14.3C3.29999 14.02 2.82999 13.55 2.54999 12.98C2.23999 12.36 2.23999 11.69 2.23999 10.36V8.12C2.23999 7.56 2.23999 7.26 2.30999 6.93C2.36999 6.63 2.47999 6.34 2.62999 6.07C2.78508 5.78891 2.97774 5.56419 3.31727 5.16817C3.32803 5.15562 3.33893 5.1429 3.34999 5.13L3.82999 4.57C3.853 4.54392 3.87546 4.51845 3.89741 4.49355C4.30477 4.0315 4.53686 3.76824 4.84999 3.55C5.15999 3.34 5.49999 3.18 5.85999 3.09C6.24999 2.99 6.61999 2.99 7.29999 2.99H11.71C12.04 2.99 12.2 2.99 12.36 3.01C12.53 3.03 12.7 3.06 12.86 3.11C13.0087 3.14718 13.1401 3.20163 13.3908 3.30548C13.4098 3.31337 13.4295 3.32154 13.45 3.33L15.59 4.22C15.84 3.79 16.21 3.43 16.65 3.21C17.19 2.94 17.78 2.94 18.86 2.94H19.09C19.84 2.94 20.26 2.94 20.67 3.15ZM10.74 19.53C10.83 19.49 10.88 19.41 10.98 18.95L10.99 18.96C11.75 15.56 13.61 13.78 15.26 13.37C15.24 13.08 15.24 12.76 15.24 12.36V6.57C15.24 6.39357 15.2428 6.23143 15.2455 6.08052C15.2478 5.94917 15.25 5.82634 15.25 5.71L12.89 4.73C12.8068 4.69747 12.7407 4.67016 12.6849 4.64714C12.5864 4.60647 12.5202 4.57916 12.45 4.56C12.37 4.54 12.28 4.52 12.19 4.51C12.07 4.5 11.95 4.5 11.71 4.5H7.29999C6.72999 4.5 6.43999 4.5 6.23999 4.55C6.04999 4.6 5.86999 4.68 5.70999 4.79C5.53999 4.91 5.34999 5.13 4.97999 5.56L4.49999 6.12C4.47009 6.15489 4.44157 6.18809 4.41439 6.21974C4.16889 6.50559 4.03202 6.66495 3.95999 6.8C3.87999 6.94 3.81999 7.09 3.78999 7.25C3.74999 7.43 3.74999 7.66 3.74999 8.13V10.37C3.74999 11.43 3.74999 12.01 3.89999 12.32C4.03999 12.6 4.26999 12.83 4.54999 12.97C4.84999 13.12 5.43999 13.12 6.49999 13.12H10.1C10.51 13.12 10.85 13.46 10.85 13.87C10.85 14.28 10.51 14.62 10.1 14.62H9.57999C8.73999 17.27 9.02999 18.47 9.29999 18.95C9.46999 19.25 9.70999 19.42 10.02 19.49C10.46 19.58 10.66 19.56 10.74 19.53ZM20.19 14.22C20.24 14.13 20.24 13.75 20.24 13.31V5.6C20.24 5.16 20.24 4.79 20.19 4.69C20.15 4.61 20.08 4.53 19.99 4.49C19.9 4.44 19.52 4.44 19.08 4.44H18.85C18.03 4.44 17.53 4.44 17.31 4.55C17.11 4.65 16.94 4.82 16.84 5.02C16.73 5.25 16.73 5.74 16.73 6.56V12.35C16.73 13.17 16.73 13.67 16.84 13.89C16.94 14.09 17.11 14.26 17.31 14.36C17.54 14.47 18.03 14.47 18.85 14.47H19.08C19.52 14.47 19.89 14.47 19.99 14.42C20.07 14.38 20.15 14.31 20.19 14.22ZM17.8899 6.09998C17.8899 5.68998 18.2299 5.34998 18.6399 5.34998C19.0499 5.34998 19.3899 5.67998 19.3899 6.09998C19.3899 6.50998 19.0499 6.84998 18.6399 6.84998C18.2299 6.84998 17.8899 6.50998 17.8899 6.09998Z" fill="black"/>
</svg>
