<svg width="24" height="24" viewBox="0 0 24 24" fill="none" xmlns="http://www.w3.org/2000/svg">
<path fill-rule="evenodd" clip-rule="evenodd" d="M20.12 9.68997C20.69 9.96997 21.16 10.44 21.44 11.01L21.41 11.02C21.72 11.64 21.72 12.31 21.72 13.64V15.88C21.72 16.44 21.72 16.74 21.65 17.07C21.59 17.37 21.48 17.66 21.33 17.93C21.17 18.22 20.98 18.45 20.62 18.86L20.12 19.43C19.68 19.94 19.43 20.22 19.1 20.45C18.8 20.66 18.46 20.82 18.1 20.91C17.71 21.01 17.34 21.01 16.66 21.01H12.25C11.93 21.01 11.77 21.01 11.61 20.99C11.44 20.97 11.27 20.94 11.11 20.89C10.96 20.84 10.81 20.78 10.51 20.66L8.38998 19.78C8.13998 20.21 7.76998 20.57 7.32998 20.79C6.78998 21.06 6.19999 21.06 5.12 21.06H5.11998H4.88998C4.13998 21.06 3.71998 21.06 3.30998 20.85C2.93998 20.66 2.62998 20.35 2.43998 19.97C2.22998 19.56 2.22998 19.14 2.22998 18.39V10.68C2.22998 9.92997 2.22998 9.50997 2.43998 9.09997C2.62998 8.72997 2.93998 8.41997 3.31998 8.22997C3.72998 8.01997 4.14998 8.01997 4.89997 8.01997H4.89998H5.12998H5.12999C6.20998 8.01997 6.79998 8.01997 7.33998 8.28997C7.73998 8.48997 8.07998 8.79997 8.32998 9.17997C9.36998 8.95997 10.88 7.69997 11.54 4.71997L11.5401 4.71924C11.6502 4.21917 11.8304 3.39981 12.72 3.05997C13.25 2.85997 13.83 2.94997 14.28 3.03997C15.02 3.19997 15.62 3.62997 16 4.30997C16.65 5.43997 16.65 7.14997 16 9.37997H17.5C18.79 9.37997 19.5 9.37997 20.12 9.68997ZM5.14002 19.55C5.96 19.55 6.45998 19.55 6.67998 19.44C6.87998 19.34 7.04998 19.17 7.14998 18.97C7.25998 18.74 7.25998 18.25 7.25998 17.43V11.64C7.25998 10.82 7.25998 10.32 7.14998 10.1C7.04998 9.89997 6.87998 9.72997 6.67998 9.62997C6.44998 9.51997 5.95999 9.51997 5.14 9.51997H5.13998H4.90998H4.90995C4.46997 9.51997 4.09998 9.51997 3.99998 9.56997C3.90998 9.60997 3.83998 9.67997 3.79998 9.76997C3.74998 9.85997 3.74998 10.24 3.74998 10.68V18.39C3.74998 18.83 3.74998 19.2 3.79998 19.3C3.83998 19.38 3.90998 19.46 3.99998 19.5C4.08998 19.55 4.46998 19.55 4.90998 19.55H5.13998H5.14002ZM20.21 16.75C20.25 16.57 20.25 16.34 20.25 15.87L20.24 15.88V13.64C20.24 12.58 20.24 12 20.09 11.69C19.95 11.41 19.72 11.18 19.44 11.04C19.13 10.89 18.55 10.89 17.49 10.89H13.9C13.49 10.89 13.15 10.55 13.15 10.14C13.15 9.72997 13.49 9.38997 13.9 9.38997H14.42C15.26 6.72997 14.97 5.53997 14.7 5.05997C14.53 4.75997 14.3 4.57997 13.98 4.51997C13.51 4.42997 13.33 4.44997 13.26 4.47997C13.16 4.51997 13.11 4.59997 13.01 5.05997C12.25 8.44997 10.39 10.23 8.73998 10.64C8.75998 10.93 8.75998 11.25 8.75998 11.65V17.44C8.75998 17.6164 8.75712 17.7785 8.75446 17.9295C8.75215 18.0608 8.74998 18.1836 8.74998 18.3L11.1 19.28C11.1482 19.2997 11.1912 19.3175 11.23 19.3336C11.3682 19.3909 11.4541 19.4265 11.54 19.45C11.63 19.47 11.72 19.49 11.81 19.5H12.28H16.69C17.27 19.5 17.56 19.5 17.76 19.45C17.94 19.4 18.12 19.32 18.28 19.21C18.45 19.09 18.63 18.89 19.02 18.44L19.5 17.88C19.5205 17.8561 19.5404 17.8331 19.5595 17.8109C19.8296 17.4975 19.9653 17.34 20.04 17.2C20.12 17.06 20.18 16.91 20.21 16.75ZM4.61011 17.89C4.61011 17.48 4.95011 17.14 5.36011 17.14C5.77011 17.14 6.11011 17.48 6.11011 17.89C6.11011 18.3 5.77011 18.64 5.36011 18.64C4.95011 18.64 4.61011 18.31 4.61011 17.89Z" fill="black"/>
</svg>
