<svg width="24" height="24" viewBox="0 0 24 24" fill="none" xmlns="http://www.w3.org/2000/svg">
<path fill-rule="evenodd" clip-rule="evenodd" d="M2 12C2 6.49 6.49 2 12 2C17.51 2 22 6.49 22 12C22 17.51 17.51 22 12 22C6.49 22 2 17.51 2 12ZM3.5 12C3.5 16.69 7.31 20.5 12 20.5C16.69 20.5 20.5 16.69 20.5 12C20.5 7.31 16.69 3.5 12 3.5C7.31 3.5 3.5 7.31 3.5 12ZM12.42 12.27L15.82 14.3H15.83C16.19 14.51 16.3 14.97 16.09 15.33C15.94 15.57 15.7 15.7 15.44 15.7C15.31 15.7 15.18 15.66 15.06 15.59L11.29 13.34C11.06 13.21 10.92 12.96 10.92 12.7V7.85001C10.92 7.44001 11.26 7.10001 11.67 7.10001C12.08 7.10001 12.42 7.44001 12.42 7.85001V12.27Z" fill="black"/>
</svg>
