<svg width="24" height="24" viewBox="0 0 24 24" fill="none" xmlns="http://www.w3.org/2000/svg">
<path d="M21.3599 16.35V11.64C21.3599 11.24 21.0399 10.92 20.6399 10.92C20.2399 10.92 19.9199 11.24 19.9199 11.64V14.61L13.6899 8.38001C13.4099 8.10001 12.9499 8.10001 12.6699 8.38001L9.24989 11.8L3.86989 6.41001C3.58989 6.13001 3.12989 6.13001 2.84989 6.41001C2.56989 6.69001 2.56989 7.15001 2.84989 7.43001L8.73989 13.32C9.01989 13.6 9.47989 13.6 9.75989 13.32L13.1799 9.90001L18.9099 15.62H15.9299C15.5299 15.62 15.2099 15.94 15.2099 16.34C15.2099 16.74 15.5299 17.06 15.9299 17.06H20.6399C20.8299 17.06 21.0099 16.98 21.1499 16.85C21.2199 16.78 21.2699 16.7 21.3099 16.61C21.3399 16.54 21.3499 16.47 21.3499 16.39C21.3499 16.37 21.3599 16.35 21.3599 16.33V16.35Z" fill="black"/>
</svg>
