<svg width="24" height="24" viewBox="0 0 24 24" fill="none" xmlns="http://www.w3.org/2000/svg">
<path d="M21.2999 6.64001C21.2699 6.58001 21.2299 6.52001 21.1899 6.47001C21.1699 6.45001 21.1699 6.42001 21.1499 6.41001C21.1199 6.38001 21.0899 6.37001 21.0499 6.35001C21.0099 6.32001 20.9699 6.28001 20.9099 6.26001C20.8199 6.22001 20.7199 6.20001 20.6299 6.20001H15.9199C15.5199 6.20001 15.1999 6.52001 15.1999 6.92001C15.1999 7.32001 15.5199 7.64001 15.9199 7.64001H18.8899L13.1699 13.36L9.74988 9.94001C9.60988 9.81001 9.42988 9.73001 9.23988 9.73001C9.04988 9.73001 8.86988 9.81001 8.72988 9.94001L2.83988 15.83C2.55988 16.11 2.55988 16.57 2.83988 16.85C2.97988 16.99 3.16988 17.06 3.34988 17.06C3.52988 17.06 3.71988 16.99 3.85988 16.85L9.23988 11.47L12.6599 14.89C12.7999 15.03 12.9799 15.1 13.1699 15.1C13.3599 15.1 13.5399 15.02 13.6799 14.89L19.9099 8.66001V11.64C19.9099 12.04 20.2299 12.36 20.6299 12.36C21.0299 12.36 21.3499 12.04 21.3499 11.64V6.93001C21.3499 6.84001 21.3299 6.74001 21.2899 6.65001L21.2999 6.64001Z" fill="black"/>
</svg>
