<svg width="24" height="24" viewBox="0 0 24 24" fill="none" xmlns="http://www.w3.org/2000/svg">
<path fill-rule="evenodd" clip-rule="evenodd" d="M20.0399 8.66999C20.2599 8.33999 20.7099 8.24999 21.0399 8.46999L21.0299 8.47999C21.3599 8.69999 21.4499 9.14999 21.2299 9.47999L19.4199 12.17C19.3099 12.33 19.1499 12.44 18.9599 12.48C18.9099 12.49 18.8699 12.49 18.8199 12.49C18.6799 12.49 18.5399 12.45 18.4199 12.37L15.7399 10.57C15.4099 10.35 15.3199 9.89999 15.5399 9.56999C15.7599 9.23999 16.2099 9.14999 16.5399 9.36999L17.8799 10.27C17.2099 7.63999 14.8099 5.67999 11.9899 5.67999C9.9899 5.67999 8.1199 6.65999 6.9799 8.30999C6.7499 8.62999 6.3099 8.71999 5.9799 8.48999C5.6599 8.26999 5.5699 7.81999 5.7999 7.48999C7.2099 5.45999 9.5299 4.23999 11.9999 4.23999C15.4499 4.23999 18.3999 6.61999 19.2599 9.82999L20.0399 8.66999ZM12.0001 17.85C14.0001 17.85 15.8701 16.87 17.0101 15.22H17.0201C17.2401 14.9 17.6901 14.81 18.0201 15.04C18.3401 15.26 18.4301 15.71 18.2001 16.04C16.7901 18.07 14.4701 19.29 12.0001 19.29C8.55008 19.29 5.60008 16.9 4.74008 13.69L3.96008 14.85C3.82008 15.06 3.59008 15.17 3.36008 15.17C3.22008 15.17 3.08008 15.13 2.96008 15.05C2.63008 14.83 2.54008 14.38 2.76008 14.05L4.57008 11.36C4.79008 11.03 5.24008 10.94 5.57008 11.16L8.25008 12.96C8.58008 13.18 8.67008 13.63 8.45008 13.96C8.23008 14.29 7.78008 14.38 7.45008 14.16L6.11008 13.26C6.78008 15.89 9.18008 17.85 12.0001 17.85Z" fill="black"/>
</svg>
