<svg width="24" height="24" viewBox="0 0 24 24" fill="none" xmlns="http://www.w3.org/2000/svg">
<path fill-rule="evenodd" clip-rule="evenodd" d="M11.2699 4.87002L9.85992 6.29002L9.89992 6.28002C9.61992 6.56002 9.15992 6.56002 8.87992 6.28002C8.59992 6.00002 8.59992 5.54002 8.87992 5.26002L11.5199 2.60002C11.5499 2.57002 11.5899 2.54002 11.6299 2.51002C11.6599 2.49002 11.6999 2.47002 11.7299 2.46002C11.8999 2.38002 12.1199 2.38002 12.2899 2.46002H12.3099C12.3699 2.49002 12.4299 2.53002 12.4799 2.58002L12.4999 2.60002L15.1499 5.26002C15.4299 5.54002 15.4299 6.00002 15.1499 6.28002C14.8699 6.56002 14.4099 6.56002 14.1299 6.28002L12.7099 4.86002V14.05C12.7099 14.45 12.3899 14.77 11.9899 14.77C11.5899 14.77 11.2699 14.45 11.2699 14.05V4.87002ZM16.1999 8.56H17.0599H17.0699C19.2999 8.56 21.1199 10.38 21.1199 12.62V17.05C21.1199 19.29 19.2899 21.11 17.0499 21.11H6.94988C4.70988 21.11 2.87988 19.29 2.87988 17.05V12.62C2.87988 10.38 4.70988 8.56 6.94988 8.56H7.79988C8.19988 8.56 8.51988 8.88 8.51988 9.28C8.51988 9.68 8.19988 10 7.79988 10H6.94988C5.50988 10 4.32988 11.17 4.32988 12.62V17.05C4.32988 18.49 5.49988 19.67 6.94988 19.67H17.0499C18.4999 19.67 19.6799 18.5 19.6799 17.05V12.62C19.6799 11.17 18.4999 10 17.0599 10H16.1999C15.7999 10 15.4799 9.68 15.4799 9.28C15.4799 8.88 15.7999 8.56 16.1999 8.56Z" fill="black"/>
</svg>
