<svg width="24" height="24" viewBox="0 0 24 24" fill="none" xmlns="http://www.w3.org/2000/svg">
<g clip-path="url(#clip0_1001_628)">
<path fill-rule="evenodd" clip-rule="evenodd" d="M16.06 2.94H7.94C4.8 2.94 2.25 5.49 2.25 8.63V11.62C2.25 12.03 2.59 12.37 3 12.37C3.41 12.37 3.75 12.03 3.75 11.62V8.63C3.75 6.32 5.63 4.44 7.94 4.44H16.07C18.37 4.44 20.24 6.3 20.25 8.6H17.19C15.38 8.6 13.91 10.07 13.91 11.88C13.91 13.69 15.38 15.16 17.19 15.16H20.25V15.38C20.25 17.69 18.37 19.57 16.06 19.57H12.63C12.22 19.57 11.88 19.91 11.88 20.32C11.88 20.73 12.22 21.07 12.63 21.07H16.06C19.19 21.07 21.75 18.52 21.75 15.38V8.63C21.75 5.49 19.2 2.94 16.06 2.94ZM17.18 13.66C16.2 13.66 15.4 12.86 15.4 11.88C15.4 10.9 16.2 10.1 17.18 10.1H20.24V13.66H17.18ZM16.99 11.07C16.58 11.07 16.24 11.41 16.24 11.82C16.24 12.23 16.58 12.57 16.99 12.57C17.4 12.57 17.74 12.23 17.74 11.82C17.74 11.41 17.4 11.07 16.99 11.07ZM7.9475 18.2225C8.0175 18.2925 8.0675 18.3825 8.1075 18.4725C8.1375 18.5425 8.1575 18.6225 8.1575 18.7025V18.7525V22.5125C8.1575 22.9325 7.8175 23.2625 7.4075 23.2625C6.9975 23.2325 6.6575 22.9325 6.6575 22.5125V20.5725L3.2775 23.9525C3.1275 24.1025 2.9375 24.1725 2.7475 24.1725C2.5575 24.1725 2.3675 24.1025 2.2175 23.9525C1.9275 23.6625 1.9275 23.1825 2.2175 22.8925L5.5975 19.5125H3.6575C3.2475 19.5125 2.9075 19.1725 2.9075 18.7625C2.9075 18.3425 3.2475 18.0025 3.6575 18.0025H7.4175C7.6475 17.9825 7.8075 18.0825 7.9475 18.2225Z" fill="black"/>
</g>
<defs>
<clipPath id="clip0_1001_628">
<rect width="24" height="24" fill="white"/>
</clipPath>
</defs>
</svg>
