<svg width="24" height="24" viewBox="0 0 24 24" fill="none" xmlns="http://www.w3.org/2000/svg">
<path d="M16.06 2.94H7.94C4.8 2.94 2.25 5.49 2.25 8.63V11.62C2.25 12.03 2.59 12.37 3 12.37C3.41 12.37 3.75 12.03 3.75 11.62V8.63C3.75 6.32 5.63 4.44 7.94 4.44H16.07C18.37 4.44 20.24 6.3 20.25 8.6H17.19C15.38 8.6 13.91 10.07 13.91 11.88C13.91 13.69 15.38 15.16 17.19 15.16H20.25V15.38C20.25 17.69 18.37 19.57 16.06 19.57H12.63C12.22 19.57 11.88 19.91 11.88 20.32C11.88 20.73 12.22 21.07 12.63 21.07H16.06C19.19 21.07 21.75 18.52 21.75 15.38V8.63C21.75 5.49 19.2 2.94 16.06 2.94ZM17.19 13.66C16.21 13.66 15.41 12.86 15.41 11.88C15.41 10.9 16.21 10.1 17.19 10.1H20.25V13.66H17.19Z" fill="black"/>
<path d="M7.14002 15.11L3.76002 18.49V16.55C3.76002 16.13 3.43002 15.8 3.02002 15.8C2.61002 15.8 2.27002 16.13 2.27002 16.55V20.3C2.27002 20.4 2.29002 20.49 2.32002 20.57C2.36002 20.66 2.41002 20.75 2.48002 20.82C2.62002 20.96 2.81002 21.04 3.01002 21.04H6.77002C7.18002 21.04 7.52002 20.7 7.52002 20.28C7.52002 19.87 7.18002 19.53 6.77002 19.53H4.82002L8.21002 16.15C8.50002 15.86 8.50002 15.38 8.21002 15.09C7.92002 14.8 7.44002 14.8 7.15002 15.09L7.14002 15.11Z" fill="black"/>
</svg>
